0
SECTION
2
HEADER
9
$INSUNITS
70
4
9
$ACADVER
1
AC1014
9
$HANDSEED
5
FFFF
0
ENDSEC
0
SECTION
2
TABLES
0
TABLE
2
VPORT
5
8
100
AcDbSymbolTable
0
ENDTAB
0
TABLE
2
LTYPE
5
5
100
AcDbSymbolTable
0
LTYPE
5
14
100
AcDbSymbolTableRecord
100
AcDbLinetypeTableRecord
2
BYBLOCK
70
0
0
LTYPE
5
15
100
AcDbSymbolTableRecord
100
AcDbLinetypeTableRecord
2
BYLAYER
70
0
0
LTYPE
5
16
100
AcDbSymbolTableRecord
100
AcDbLinetypeTableRecord
2
DASHED
70
0
3
Dashed __ __ __ __ __ __ __ __ __ __ __ __ __ _
72
65
73
2
40
0.75
49
0.5
74
0
49
-0.25
74
0
0
ENDTAB
0
TABLE
2
LAYER
5
2
100
AcDbSymbolTable
70
2
0
LAYER
5
50
100
AcDbSymbolTableRecord
100
AcDbLayerTableRecord
2
0
70
0
62
7
6
CONTINUOUS
0
ENDTAB
0
TABLE
2
STYLE
5
3
100
AcDbSymbolTable
70
1
0
STYLE
5
11
100
AcDbSymbolTableRecord
100
AcDbTextStyleTableRecord
2
STANDARD
70
0
0
ENDTAB
0
TABLE
2
VIEW
5
6
100
AcDbSymbolTable
70
0
0
ENDTAB
0
TABLE
2
UCS
5
7
100
AcDbSymbolTable
70
0
0
ENDTAB
0
TABLE
2
APPID
5
9
100
AcDbSymbolTable
70
2
0
APPID
5
12
100
AcDbSymbolTableRecord
100
AcDbRegAppTableRecord
2
ACAD
70
0
0
ENDTAB
0
TABLE
2
DIMSTYLE
5
A
100
AcDbSymbolTable
70
1
0
ENDTAB
0
TABLE
2
BLOCK_RECORD
5
1
100
AcDbSymbolTable
70
1
0
BLOCK_RECORD
5
1F
100
AcDbSymbolTableRecord
100
AcDbBlockTableRecord
2
*MODEL_SPACE
0
BLOCK_RECORD
5
1B
100
AcDbSymbolTableRecord
100
AcDbBlockTableRecord
2
*PAPER_SPACE
0
ENDTAB
0
ENDSEC
0
SECTION
2
BLOCKS
0
BLOCK
5
20
100
AcDbEntity
100
AcDbBlockBegin
2
*MODEL_SPACE
0
ENDBLK
5
21
100
AcDbEntity
100
AcDbBlockEnd
0
BLOCK
5
1C
100
AcDbEntity
100
AcDbBlockBegin
2
*PAPER_SPACE
0
ENDBLK
5
1D
100
AcDbEntity
100
AcDbBlockEnd
0
ENDSEC
0
SECTION
2
ENTITIES
0
LINE
5
100
100
AcDbEntity
8
0
100
AcDbLine
10
-12.262500000000001
20
21.369686790553217
30
5.5511151231257827e-16
11
12.262500000000001
21
21.369686790553214
31
5.5511151231257847e-16
0
ARC
5
101
100
AcDbEntity
8
0
100
AcDbCircle
10
-12.262500000000003
20
19.869686790553224
30
2.7755575615628909e-16
40
1.4999999999999947
210
-1.8233113364060931e-31
220
-1.8503717077086012e-16
230
1
100
AcDbArc
50
89.999999999999929
51
180
0
LINE
5
102
100
AcDbEntity
8
0
100
AcDbLine
10
-13.762499999999998
20
3.8996867905532073
30
0
11
-13.762500000000003
21
19.869686790553228
31
2.7755575615628923e-16
0
ARC
5
103
100
AcDbEntity
8
0
100
AcDbCircle
10
-15.262500000000001
20
3.8996867905532069
30
0
40
1.5000000000000002
210
-2.3486258485571662e-32
220
-2.775557561562892e-17
230
1
100
AcDbArc
50
-90.000000000000099
51
0
0
LINE
5
104
100
AcDbEntity
8
0
100
AcDbLine
10
-17.025000000000002
20
2.3996867905532078
30
-2.7755575615628914e-16
11
-15.262500000000003
21
2.3996867905532064
31
-4.1633363423443383e-17
0
ARC
5
105
100
AcDbEntity
8
0
100
AcDbCircle
10
-17.025000000000006
20
0.89968679055320344
30
-8.0889057664263906e-32
40
1.500000000000004
210
3.0724719836213268e-31
220
1.8503717077085886e-16
230
1
100
AcDbArc
50
89.999999999999872
51
180
0
LINE
5
106
100
AcDbEntity
8
0
100
AcDbLine
10
-18.525000000000002
20
-13.480313209446795
30
-5.5511151231257827e-16
11
-18.525000000000009
21
0.89968679055320733
31
1.4806824093314333e-32
0
SPLINE
5
107
100
AcDbEntity
8
0
100
AcDbSpline
70
0
71
3
72
14
73
10
74
0
42
0.000000001
43
0.0000000001
44
0.0000000001
40
0
40
0
40
0
40
0
40
0.059417766288909546
40
0.059417766288909546
40
0.11955838610820982
40
0.11955838610820982
40
0.17737648590299196
40
0.17737648590299196
40
0.23637428368478219
40
0.23637428368478219
40
0.23637428368478219
40
0.23637428368478219
10
-17.025000000000009
20
-14.980313209446791
30
-5.5511151231257827e-16
10
-17.223059220963041
20
-14.980313209446791
30
-5.5511151231257827e-16
10
-17.419171316571227
20
-14.941085754438308
30
-5.5511151231257827e-16
10
-17.787035704151624
20
-14.787787606290152
30
-5.5511151231257827e-16
10
-17.954757493374647
20
-14.674356222204906
30
-5.5511151231257827e-16
10
-18.230259902114661
20
-14.393818690886222
30
-5.5511151231257827e-16
10
-18.337540693534599
20
-14.231565912657258
30
-5.5511151231257827e-16
10
-18.486325109521097
20
-13.87172579836295
30
-5.5511151231257827e-16
10
-18.525000000000006
20
-13.676972535386104
30
-5.5511151231257827e-16
10
-18.525000000000006
20
-13.480313209446802
30
-5.5511151231257827e-16
0
LINE
5
108
100
AcDbEntity
8
0
100
AcDbLine
10
-10.500000000000004
20
-14.980313209446798
30
-5.5511151231257827e-16
11
-17.025000000000009
21
-14.980313209446791
31
-5.5511151231257827e-16
0
ARC
5
109
100
AcDbEntity
8
0
100
AcDbCircle
10
-10.500000000000004
20
-16.480313209446798
30
0
40
1.5000000000000013
210
-3.0814879110195763e-33
220
-1.3877787807814457e-17
230
1
100
AcDbArc
50
0
51
90
0
LINE
5
110
100
AcDbEntity
8
0
100
AcDbLine
10
-9.0000000000000018
20
-18.69281320944679
30
-8.3266726846886741e-16
11
-9.0000000000000018
21
-16.480313209446798
31
4.6222318665293688e-33
0
ARC
5
111
100
AcDbEntity
8
0
100
AcDbCircle
10
-7.5
20
-18.69281320944679
30
-8.3266726846886701e-16
40
1.5000000000000024
210
-2.0543252740130469e-31
220
-2.7755575615629012e-17
230
1
100
AcDbArc
50
180
51
269.99999999999994
0
LINE
5
112
100
AcDbEntity
8
0
100
AcDbLine
10
7.5000000000000044
20
-20.192813209446797
30
-5.5511151231257827e-16
11
-7.5000000000000009
21
-20.19281320944679
31
-8.7430063189231058e-16
0
ARC
5
113
100
AcDbEntity
8
0
100
AcDbCircle
10
7.5000000000000044
20
-18.69281320944679
30
-8.326672684688675e-16
40
1.5000000000000058
210
-1.2011482662460322e-31
220
1.8503717077085879e-16
230
1
100
AcDbArc
50
270
51
360
0
LINE
5
114
100
AcDbEntity
8
0
100
AcDbLine
10
9.0000000000000053
20
-16.480313209446791
30
-5.5511151231257827e-16
11
9.0000000000000053
21
-18.692813209446793
31
-8.3266726846886741e-16
0
ARC
5
115
100
AcDbEntity
8
0
100
AcDbCircle
10
10.500000000000009
20
-16.480313209446795
30
-5.5511151231257827e-16
40
1.5000000000000013
210
3.1507289938087915e-33
220
-1.3877787807814437e-17
230
1
100
AcDbArc
50
90
51
180
0
LINE
5
116
100
AcDbEntity
8
0
100
AcDbLine
10
10.500000000000009
20
-14.980313209446795
30
-5.3429483060085659e-16
11
17.024999999999984
21
-14.980313209446813
31
-5.5511151231257886e-16
0
SPLINE
5
117
100
AcDbEntity
8
0
100
AcDbSpline
70
0
71
3
72
14
73
10
74
0
42
0.000000001
43
0.0000000001
44
0.0000000001
40
-0.23637428368478292
40
-0.23637428368478292
40
-0.23637428368478292
40
-0.23637428368478292
40
-0.17737648590299177
40
-0.17737648590299177
40
-0.11955838610820946
40
-0.11955838610820946
40
-0.059417766288909095
40
-0.059417766288909095
40
0
40
0
40
0
40
0
10
17.025000000000006
20
-14.980313209446809
30
-5.5511151231257827e-16
10
17.22165932593931
20
-14.980313209446809
30
-5.5511151231257827e-16
10
17.416412588916163
20
-14.941638318967904
30
-5.5511151231257827e-16
10
17.776252703210471
20
-14.79285390298141
30
-5.5511151231257827e-16
10
17.938505481439435
20
-14.685573111561466
30
-5.5511151231257827e-16
10
18.219043012758117
20
-14.410070702821452
30
-5.5511151231257827e-16
10
18.332474396843374
20
-14.242348913598429
30
-5.5511151231257827e-16
10
18.485772544991523
20
-13.874484526018037
30
-5.5511151231257827e-16
10
18.525000000000006
20
-13.678372430409848
30
-5.5511151231257827e-16
10
18.525000000000006
20
-13.480313209446816
30
-5.5511151231257827e-16
0
LINE
5
118
100
AcDbEntity
8
0
100
AcDbLine
10
18.525000000000006
20
0.89968679055320966
30
0
11
18.525000000000006
21
-13.480313209446816
31
-5.5511151231257827e-16
0
ARC
5
119
100
AcDbEntity
8
0
100
AcDbCircle
10
17.025000000000006
20
0.89968679055320799
30
-6.9333477997940491e-32
40
1.4999999999999991
210
-1.540743955509787e-32
220
-2.7755575615628938e-17
230
1
100
AcDbArc
50
0
51
89.999999999999872
0
LINE
5
120
100
AcDbEntity
8
0
100
AcDbLine
10
15.262500000000017
20
2.3996867905532131
30
0
11
17.025000000000009
21
2.3996867905532095
31
4.1633363423443376e-17
0
ARC
5
121
100
AcDbEntity
8
0
100
AcDbCircle
10
15.262500000000019
20
3.8996867905532135
30
0
40
1.5000000000000013
210
-1.5291122687287223e-32
220
-1.3877787807814457e-17
230
1
100
AcDbArc
50
180
51
269.99999999999989
0
LINE
5
122
100
AcDbEntity
8
0
100
AcDbLine
10
13.762499999999998
20
19.869686790553221
30
0
11
13.762500000000017
21
3.8996867905532122
31
-3.8344123586028745e-32
0
ARC
5
123
100
AcDbEntity
8
0
100
AcDbCircle
10
12.262499999999992
20
19.869686790553214
30
-4.2370458776519189e-31
40
1.5000000000000058
210
-1.5921020873601053e-31
220
-2.7755575615629e-17
230
1
100
AcDbArc
50
0
51
89.999999999999673
0
CIRCLE
5
124
100
AcDbEntity
8
0
100
AcDbCircle
10
-4.4479243362704391e-15
20
9.6196867906121071
30
0
40
1.25
210
6.5206348408169225e-34
220
-2.7755575615628907e-17
230
1
0
CIRCLE
5
125
100
AcDbEntity
8
0
100
AcDbCircle
10
-3.533586134780532e-15
20
-8.1928132093879054
30
0
40
1.25
210
6.5206348408169225e-34
220
-2.7755575615628907e-17
230
1
0
ENDSEC
0
SECTION
2
OBJECTS
0
DICTIONARY
5
C
100
AcDbDictionary
3
ACAD_GROUP
350
D
3
ACAD_MLINESTYLE
350
17
0
DICTIONARY
5
D
100
AcDbDictionary
0
DICTIONARY
5
1A
330
C
100
AcDbDictionary
0
DICTIONARY
5
17
100
AcDbDictionary
0
ENDSEC
0
EOF
