0
SECTION
2
HEADER
9
$INSUNITS
70
4
9
$ACADVER
1
AC1014
9
$HANDSEED
5
FFFF
0
ENDSEC
0
SECTION
2
TABLES
0
TABLE
2
VPORT
5
8
100
AcDbSymbolTable
0
ENDTAB
0
TABLE
2
LTYPE
5
5
100
AcDbSymbolTable
0
LTYPE
5
14
100
AcDbSymbolTableRecord
100
AcDbLinetypeTableRecord
2
BYBLOCK
70
0
0
LTYPE
5
15
100
AcDbSymbolTableRecord
100
AcDbLinetypeTableRecord
2
BYLAYER
70
0
0
ENDTAB
0
TABLE
2
LAYER
5
2
100
AcDbSymbolTable
70
2
0
LAYER
5
50
100
AcDbSymbolTableRecord
100
AcDbLayerTableRecord
2
0
70
0
6
CONTINUOUS
0
ENDTAB
0
TABLE
2
STYLE
5
3
100
AcDbSymbolTable
70
1
0
STYLE
5
11
100
AcDbSymbolTableRecord
100
AcDbTextStyleTableRecord
2
STANDARD
70
0
0
ENDTAB
0
TABLE
2
VIEW
5
6
100
AcDbSymbolTable
70
0
0
ENDTAB
0
TABLE
2
UCS
5
7
100
AcDbSymbolTable
70
0
0
ENDTAB
0
TABLE
2
APPID
5
9
100
AcDbSymbolTable
70
2
0
APPID
5
12
100
AcDbSymbolTableRecord
100
AcDbRegAppTableRecord
2
ACAD
70
0
0
ENDTAB
0
TABLE
2
DIMSTYLE
5
A
100
AcDbSymbolTable
70
1
0
ENDTAB
0
TABLE
2
BLOCK_RECORD
5
1
100
AcDbSymbolTable
70
1
0
BLOCK_RECORD
5
1F
100
AcDbSymbolTableRecord
100
AcDbBlockTableRecord
2
*MODEL_SPACE
0
BLOCK_RECORD
5
1B
100
AcDbSymbolTableRecord
100
AcDbBlockTableRecord
2
*PAPER_SPACE
0
ENDTAB
0
ENDSEC
0
SECTION
2
BLOCKS
0
BLOCK
5
20
100
AcDbEntity
100
AcDbBlockBegin
2
*MODEL_SPACE
0
ENDBLK
5
21
100
AcDbEntity
100
AcDbBlockEnd
0
BLOCK
5
1C
100
AcDbEntity
100
AcDbBlockBegin
2
*PAPER_SPACE
0
ENDBLK
5
1D
100
AcDbEntity
100
AcDbBlockEnd
0
ENDSEC
0
SECTION
2
ENTITIES
0
LWPOLYLINE
5
100
100
AcDbEntity
8
0
100
AcDbPolyline
90
24
70
1
43
0.0
10
12.262499999999999
20
21.619686790553217
10
-12.262499999999994
20
21.619686790553217
42
0.41421356237309592
10
-13.762499999999999
20
20.119686790553217
10
-13.762500000000021
20
4.0696867905532113
42
-0.4142135623730932
10
-15.262500000000019
20
2.5696867905532121
10
-17.025000000000009
20
2.569686790553209
42
0.41421356237309465
10
-18.525000000000006
20
1.069686790553209
10
-18.525000000000006
20
-13.480313209446786
42
0.41421356237309503
10
-17.025000000000006
20
-14.980313209446788
10
-10.500000000000009
20
-14.980313209446784
42
-0.41421356237309548
10
-9.0000000000000053
20
-16.480313209446788
10
-9.0000000000000053
20
-18.69281320944679
42
0.41421356237309465
10
-7.5000000000000044
20
-20.192813209446786
10
7.5000000000000009
20
-20.192813209446786
42
0.41421356237309531
10
9.0000000000000018
20
-18.69281320944679
10
9.0000000000000036
20
-16.480313209446791
42
-0.41421356237309337
10
10.500000000000004
20
-14.980313209446795
10
17.025000000000006
20
-14.980313209446784
42
0.41421356237309503
10
18.525000000000006
20
-13.480313209446786
10
18.525000000000006
20
1.0696867905532073
42
0.41421356237309531
10
17.025000000000002
20
2.5696867905532073
10
15.262500000000001
20
2.5696867905532015
42
-0.41421356237309465
10
13.762499999999996
20
4.069686790553205
10
13.762499999999999
20
20.119686790553217
42
0.41421356237309503
0
CIRCLE
5
101
100
AcDbEntity
8
0
100
AcDbCircle
10
3.8727430663522292e-15
20
9.6196867906121053
30
0
40
1.2499999999999998
210
-1.4753592891712482e-31
220
4.1633363423443383e-17
230
1
0
CIRCLE
5
102
100
AcDbEntity
8
0
100
AcDbCircle
10
3.2162243213564645e-15
20
-8.1928132093879018
30
1.1102230246251565e-15
40
1.2499999999999998
210
-1.4753592891712482e-31
220
4.1633363423443383e-17
230
1
0
LINE
5
103
100
AcDbEntity
8
0
100
AcDbLine
10
-90.487499936999697
20
40.54831679054508
30
-2.2204460492503131e-15
11
-102.39374999976991
21
40.547814290172035
31
-2.2204206382618955e-15
0
ARC
5
104
100
AcDbEntity
8
0
100
AcDbCircle
10
-102.3937499999997
20
38.563686790553106
30
-1.1102230246251567e-15
40
1.9841299999999862
210
-1.6296368536816567e-22
220
4.1633363733317271e-17
230
1
100
AcDbArc
50
89.999999993364369
51
180.00721838409197
0
ARC
5
105
100
AcDbEntity
8
0
100
AcDbCircle
10
-106.36274999999969
20
23.482686790553089
30
-1.1102230246251565e-15
40
1.9848700157439982
210
3.8237303642885849e-21
220
5.5511152030142566e-17
230
1
100
AcDbArc
50
270.0072165657208
51
359.9855621701484
0
ARC
5
106
100
AcDbEntity
8
0
100
AcDbCircle
10
-107.15574999999971
20
19.513686790553084
30
-1.1102230246251561e-15
40
1.9841300630000049
210
1.5324234847426893e-21
220
4.1633363946694741e-17
230
1
100
AcDbArc
50
90.014438589003348
51
180.00721656572611
0
ARC
5
107
100
AcDbEntity
8
0
100
AcDbCircle
10
-111.12474999999974
20
4.4326867905530962
30
-6.5481618109166019e-32
40
1.9848700157440029
210
-3.1659358958259833e-21
220
2.775557729622422e-17
230
1
100
AcDbArc
50
269.99278343428006
51
359.9855530945718
0
ARC
5
108
100
AcDbEntity
8
0
100
AcDbCircle
10
-111.91874999999973
20
0.46368679055310558
30
-6.9718663986817938e-31
40
1.9841299999999822
210
-1.8570295602763516e-21
220
4.1633363519891027e-17
230
1
100
AcDbArc
50
89.999999999013468
51
180.00721838409197
0
ARC
5
109
100
AcDbEntity
8
0
100
AcDbCircle
10
-111.91874999999969
20
-13.824313209446888
30
1.1102230246251561e-15
40
1.984370015748026
210
-6.210823144095024e-32
220
2.7755575615628963e-17
230
1
100
AcDbArc
50
179.99278165115095
51
269.9999999999996
0
ARC
5
110
100
AcDbEntity
8
0
100
AcDbCircle
10
-100.0127499999997
20
-13.824313209446906
30
1.1102230246251565e-15
40
1.9841200157499976
210
-1.8002691983834242e-21
220
2.7755575608943687e-17
230
1
100
AcDbArc
50
-89.992780741091849
51
0.0072133489712824621
0
ARC
5
111
100
AcDbEntity
8
0
100
AcDbCircle
10
-88.105749999999702
20
-32.874313209446896
30
2.2204460492503131e-15
40
1.9848700157440109
210
2.1816609399482628e-22
220
2.7755576441951849e-17
230
1
100
AcDbArc
50
179.99278347210142
51
269.98556141303749
0
ARC
5
112
100
AcDbEntity
8
0
100
AcDbCircle
10
-11.1127499999997
20
-36.842313209446907
30
2.2204460492503135e-15
40
1.9846300629840019
210
-1.5256718915101438e-21
220
4.163336394694293e-17
230
1
100
AcDbArc
50
-0.014434876588172304
51
89.99277414274124
0
ARC
5
113
100
AcDbEntity
8
0
100
AcDbCircle
10
-7.1437499999997023
20
-37.636313209446904
30
2.2204460492503135e-15
40
1.9843700157479991
210
-3.1054341415390475e-31
220
2.7755575615628655e-17
230
1
100
AcDbArc
50
180.00721834521369
51
270.00000000000006
0
ARC
5
114
100
AcDbEntity
8
0
100
AcDbCircle
10
7.1442500000003015
20
-37.636313209446904
30
2.2204460492503135e-15
40
1.9846200629840016
210
1.09506018332314e-22
220
2.775557582220782e-17
230
1
100
AcDbArc
50
269.98556512363911
51
359.99277983328454
0
ARC
5
115
100
AcDbEntity
8
0
100
AcDbCircle
10
11.112250000000291
20
-36.842313209446893
30
2.2204460492503123e-15
40
1.983880015751992
210
-3.3340107012293936e-22
220
4.1633364662879204e-17
230
1
100
AcDbArc
50
89.992779833052907
51
180.01444705323755
0
ARC
5
116
100
AcDbEntity
8
0
100
AcDbCircle
10
88.106250000000301
20
-32.874313209446903
30
2.2204460492503135e-15
40
1.9841200000250003
210
1.585440940837781e-21
220
2.7755576035636468e-17
230
1
100
AcDbArc
50
-90.000000000009862
51
0.0072183479402237538
0
ARC
5
117
100
AcDbEntity
8
0
100
AcDbCircle
10
92.295250000000252
20
-17.792313209446867
30
-9.668168320823924e-31
40
2.2041075291369414
210
4.8419026560769904e-22
220
2.7755576438586217e-17
230
1
100
AcDbArc
50
121.11533231474098
51
180.0129887141664
0
ARC
5
118
100
AcDbEntity
8
0
100
AcDbCircle
10
90.168250000000313
20
-13.824313209446897
30
-1.7333369499485123e-31
40
2.3036286593115816
210
2.5880503564503428e-17
220
-1.2880482328280954e-17
230
1
100
AcDbArc
50
-64.602953378700803
51
0.0062180294829385927
0
ARC
5
119
100
AcDbEntity
8
0
100
AcDbCircle
10
100.01225000000031
20
-13.824313209446908
30
2.1570415377137042e-31
40
1.9841200157500491
210
3.4972112844501784e-21
220
2.7755575794721108e-17
230
1
100
AcDbArc
50
179.9927807064677
51
270.00721929359219
0
LINE
5
120
100
AcDbEntity
8
0
100
AcDbLine
10
100.0125000000003
20
-15.808433209446848
30
5.5070393127632007e-17
11
111.918750001993
21
-15.808435709828125
31
1.1102231569740545e-15
0
LINE
5
121
100
AcDbEntity
8
0
100
AcDbLine
10
113.90337004724644
20
-13.824063179196898
30
-3.3612301294088996e-21
11
113.90312749959605
21
0.46343678946257905
31
-5.5511151231257827e-16
0
LINE
5
122
100
AcDbEntity
8
0
100
AcDbLine
10
111.91875006300032
20
2.4475667433131223
30
-8.2595597684309713e-17
11
111.12499998777339
21
2.4478117905433514
31
-1.1102336125369972e-15
0
LINE
5
123
100
AcDbEntity
8
0
100
AcDbLine
10
109.1406300000003
20
4.4321867905530912
30
4.0009373556974495e-22
11
109.14062749961921
21
19.513436789553943
31
-5.5511151231257827e-16
0
LINE
5
124
100
AcDbEntity
8
0
100
AcDbLine
10
107.15625000000031
20
21.4980668063011
30
-1.1928394389910122e-15
11
106.36250001494199
21
21.497811790537703
31
-1.1102103191309477e-15
0
LINE
5
125
100
AcDbEntity
8
0
100
AcDbLine
10
104.37813000000031
20
23.48218679055309
30
-1.1102226228592942e-15
11
104.37812749961921
21
38.563436789553691
31
-1.6653345369377348e-15
0
LINE
5
126
100
AcDbEntity
8
0
100
AcDbLine
10
102.39375006300031
20
40.547566743313112
30
-1.1928186223094662e-15
11
90.487500000886314
21
40.547814290171978
31
-1.1102336125369972e-15
0
ARC
5
127
100
AcDbEntity
8
0
100
AcDbCircle
10
85.72501000000031
20
38.563436790553084
30
-2.2204460492503131e-15
40
2.7781300000000009
210
2.0685865638859568e-26
220
4.1633363423443321e-17
230
1
100
AcDbArc
50
-180
51
0
0
ARC
5
128
100
AcDbEntity
8
0
100
AcDbCircle
10
80.962250000000296
20
38.563686790553064
30
-2.2204460492503123e-15
40
1.9846300157460286
210
5.2444452140522061e-21
220
4.1633363093343847e-17
230
1
100
AcDbArc
50
-0.0072174384312825588
51
89.992780742789748
0
LINE
5
129
100
AcDbEntity
8
0
100
AcDbLine
10
80.962500063000306
20
40.548316790545144
30
-2.3030728719569403e-15
11
-80.962499998985336
21
40.547814290171942
31
-2.220429108591368e-15
0
ARC
5
130
100
AcDbEntity
8
0
100
AcDbCircle
10
-90.487749999999721
20
38.563686790553064
30
-1.1102230246251561e-15
40
1.9846300157460286
210
1.635981350657268e-22
220
4.1633363733314559e-17
230
1
100
AcDbArc
50
-0.0072174384312825588
51
89.992780742789336
0
ARC
5
131
100
AcDbEntity
8
0
100
AcDbCircle
10
-85.724999999999696
20
38.563436790553098
30
-1.1102230246251567e-15
40
2.7781200000000084
210
3.6296701243841831e-21
220
4.1633363423443383e-17
230
1
100
AcDbArc
50
-180
51
0
0
ARC
5
132
100
AcDbEntity
8
0
100
AcDbCircle
10
-80.962749999999716
20
38.563686790553099
30
-5.2770480476210262e-31
40
1.984130015749983
210
1.5849828333330362e-21
220
2.775557603566274e-17
230
1
100
AcDbArc
50
89.992780704402307
51
180.00721929358278
0
ARC
5
133
100
AcDbEntity
8
0
100
AcDbCircle
10
90.487458744246325
20
38.563495545484997
30
-1.3162350332360967e-15
40
1.9843187451158764
210
-5.5948352059565391e-16
220
-1.0380305021076768e-16
230
1
100
AcDbArc
50
89.998808744132361
51
180.00169650624093
0
ARC
5
134
100
AcDbEntity
8
0
100
AcDbCircle
10
102.39370880428181
20
38.563148027395108
30
-1.5100187409705599e-15
40
1.984418716346974
210
7.8301297791721291e-17
220
-2.3120494813178296e-16
230
1
100
AcDbArc
50
0.0083373800527662811
51
89.998808744133129
0
ARC
5
135
100
AcDbEntity
8
0
100
AcDbCircle
10
106.36186268188476
20
23.481544474029509
30
-1.1585477590492596e-15
40
1.983732785872891
210
2.4372629266465722e-17
220
3.6812114445313843e-17
230
1
100
AcDbArc
50
179.9814480927991
51
270.01840797067604
0
ARC
5
136
100
AcDbEntity
8
0
100
AcDbCircle
10
107.1559971377236
20
19.513436460514072
30
-3.3361159873717166e-16
40
1.9846303618956456
210
1.1160756953938266e-16
220
4.3292677688498299e-16
230
1
100
AcDbArc
50
9.5072209630461516e-06
51
89.992699929633787
0
ARC
5
137
100
AcDbEntity
8
0
100
AcDbCircle
10
111.12561279342893
20
4.4327945824304695
30
-2.606586705133311e-15
40
1.9849828864800503
210
1.3128576420255641e-15
220
9.6624454337527477e-16
230
1
100
AcDbArc
50
180.01754368269883
51
269.9823115964773
0
ARC
5
138
100
AcDbEntity
8
0
100
AcDbCircle
10
111.91896385092809
20
0.46340310587677097
30
-1.2393120981293868e-15
40
1.9841636489538725
210
-3.4482082582161397e-16
220
-5.8301150023569577e-16
230
1
100
AcDbArc
50
0.00097266516281021111
51
90.006173455502335
0
ARC
5
139
100
AcDbEntity
8
0
100
AcDbCircle
10
111.91903118353969
20
-13.824096865757182
30
2.2444364050174816e-16
40
1.9843388639927031
210
1.1310163258615296e-16
220
4.4636918590132678e-16
230
1
100
AcDbArc
50
-90.008118833052251
51
0.00097266516281021111
0
ARC
5
140
100
AcDbEntity
8
0
100
AcDbCircle
10
95.250004303121699
20
-13.823761711612917
30
-6.4819666000447437e-21
40
2.7781257132387243
210
1.5782253309944807e-21
220
3.6041611672474928e-17
230
1
100
AcDbArc
50
-0.0062180603725322968
51
180.00621802948294
0
LINE
5
141
100
AcDbEntity
8
0
100
AcDbLine
10
90.09114252749896
20
-17.792812871423653
30
1.4935613571763932e-20
11
90.090369984279377
21
-32.874063242196897
31
2.2204359655602453e-15
0
LINE
5
142
100
AcDbEntity
8
0
100
AcDbLine
10
88.10624999999996
20
-34.858433209471904
30
2.2755164427748346e-15
11
11.112500000000301
21
-34.858433209446865
31
2.1378504498462685e-15
0
LINE
5
143
100
AcDbEntity
8
0
100
AcDbLine
10
9.128870047226469
20
-37.636563302696906
30
2.2204527734046376e-15
11
9.1283700473147906
21
-36.842813442101871
31
2.220466214191154e-15
0
LINE
5
144
100
AcDbEntity
8
0
100
AcDbLine
10
-7.1437499999997005
20
-39.620683225194902
30
2.2755233812717934e-15
11
7.1437500025280096
21
-39.620933209447188
31
2.2755303201933443e-15
0
LINE
5
145
100
AcDbEntity
8
0
100
AcDbLine
10
-9.1281199999998002
20
-37.636563208100441
30
2.2204529881068449e-15
11
-9.1281199999997291
21
-36.842813209446895
31
2.2204698938264925e-15
0
LINE
5
146
100
AcDbEntity
8
0
100
AcDbLine
10
-11.112499708379088
20
-34.857683162245664
30
2.1378192245770087e-15
11
-88.106250188988696
21
-34.859183162166872
31
2.27553725905949e-15
0
ARC
5
147
100
AcDbEntity
8
0
100
AcDbCircle
10
-90.094749999999664
20
-13.82431320944689
30
-8.3200173597528589e-31
40
2.3771200131460373
210
1.4049811789718224e-17
220
3.9800602850103788e-17
230
1
100
AcDbArc
50
179.99397424414954
51
241.09439129789013
0
LINE
5
148
100
AcDbEntity
8
0
100
AcDbLine
10
-90.090619999999561
20
-17.859269575394151
30
1.1357541457557982e-15
11
-90.090619999999774
21
-32.874063210757136
31
2.2204395434239044e-15
0
ARC
5
149
100
AcDbEntity
8
0
100
AcDbCircle
10
-92.322680958826396
20
-17.859269575394123
30
6.1933758038030448e-16
40
2.2320609588268425
210
-2.3136311010381524e-16
220
4.0055974881584468e-16
230
1
100
AcDbArc
50
0
51
61.094391297890191
0
ARC
5
150
100
AcDbEntity
8
0
100
AcDbCircle
10
-95.250249999999625
20
-13.823713626463014
30
5.7182673282604525e-16
40
2.7783800219928172
210
1.9378766374475259e-16
220
-6.5292594529091071e-17
230
1
100
AcDbArc
50
-0.0072091036540547094
51
180.00721334887024
0
LINE
5
151
100
AcDbEntity
8
0
100
AcDbLine
10
-100.01250000120079
20
-15.808433209446999
30
1.1652934177524416e-15
11
-111.9187499999997
21
-15.808683225194912
31
1.1653003566466374e-15
0
LINE
5
152
100
AcDbEntity
8
0
100
AcDbLine
10
-113.9031199999998
20
-13.82406321066637
30
1.1102160857650997e-15
11
-113.90287998425353
21
0.46343682079136694
31
6.7224939265584508e-21
0
LINE
5
153
100
AcDbEntity
8
0
100
AcDbLine
10
-111.91874999996557
20
2.4478167905530879
30
-8.2606005560721276e-17
11
-111.1249999999997
21
2.4478167905531971
31
5.509121191646973e-17
0
LINE
5
154
100
AcDbEntity
8
0
100
AcDbLine
10
-109.13988004735242
20
4.4321863133908881
30
2.0175003592225663e-20
11
-109.13988004726149
21
19.513436883752092
31
-1.1102095796368765e-15
0
LINE
5
155
100
AcDbEntity
8
0
100
AcDbLine
10
-107.15625000259064
20
21.497816790552534
30
-1.1928290302664729e-15
11
-106.3624999999997
21
21.497816790553195
31
-1.0000406052510259e-15
0
LINE
5
156
100
AcDbEntity
8
0
100
AcDbLine
10
-104.37788004727311
20
23.482186627791478
30
-1.1102028496215643e-15
11
-104.37787998425352
21
38.563436820791082
31
-1.1102129408842669e-15
0
ARC
5
157
100
AcDbEntity
8
0
100
AcDbCircle
10
-13.096749999999702
20
20.703686790553085
30
4.622231866529366e-32
40
1.5878800045340002
210
-1.9936713494756406e-22
220
4.1633364663736954e-17
230
1
100
AcDbArc
50
90.004510434184965
51
179.98628614163857
0
LINE
5
158
100
AcDbEntity
8
0
100
AcDbLine
10
13.096880174760301
20
22.29081679295609
30
-1.1102230246251565e-15
11
-13.096875000776905
21
22.291564289978769
31
-1.1102653762725193e-15
0
ARC
5
159
100
AcDbEntity
8
0
100
AcDbCircle
10
13.097250000000303
20
20.703686790553085
30
7.7037197775489434e-33
40
1.5871300454909991
210
-2.924938258468362e-21
220
4.1633363872151835e-17
230
1
100
AcDbArc
50
0.013537679853401973
51
90.013350780965595
0
ARC
5
160
100
AcDbEntity
8
0
100
AcDbCircle
10
16.669250000000307
20
5.2256867905530955
30
-2.1570415377137042e-31
40
1.9848700157441115
210
5.2438401563089706e-21
220
4.1633364044000974e-17
230
1
100
AcDbArc
50
179.99278343427389
51
269.98555755033243
0
ARC
5
161
100
AcDbEntity
8
0
100
AcDbCircle
10
17.462250000000303
20
1.6536867905530905
30
-1.1102230246251563e-15
40
1.5877500454730009
210
-5.7944846451936066e-21
220
2.7755576871932849e-17
230
1
100
AcDbArc
50
0.013532304783320098
51
89.9909792022153
0
LINE
5
162
100
AcDbEntity
8
0
100
AcDbLine
10
19.049500000010305
20
-13.824063288166906
30
0
11
19.050000001188941
21
1.6540617905533737
31
-1.110224232773489e-15
0
ARC
5
163
100
AcDbEntity
8
0
100
AcDbCircle
10
17.462250000000306
20
-13.824313209446906
30
1.1102230246251567e-15
40
1.5872500196879977
210
-3.1672712129523194e-21
220
4.1633363440831202e-17
230
1
100
AcDbArc
50
-89.990975621509108
51
0.0090215368337594731
0
LINE
5
164
100
AcDbEntity
8
0
100
AcDbLine
10
11.906250000000302
20
-15.411563209446905
30
1.1102230246251565e-15
11
17.462500000000304
21
-15.411563209446763
31
1.176305581538428e-15
0
LINE
5
165
100
AcDbEntity
8
0
100
AcDbLine
10
9.9217500053233021
20
-19.380313209446903
30
0
11
9.9218749999664428
21
-17.39593826259884
31
-6.9388939039072284e-17
0
ARC
5
166
100
AcDbEntity
8
0
100
AcDbCircle
10
8.3342500000003064
20
-19.380313209446903
30
1.1102230246251569e-15
40
1.587500005322998
210
2.122077633742846e-31
220
4.1633363423443161e-17
230
1
100
AcDbArc
50
-89.995488521307649
51
0
0
LINE
5
167
100
AcDbEntity
8
0
100
AcDbLine
10
-8.3343700909706993
20
-20.967433163976903
30
0
11
8.3343750000003336
21
-20.967813209848639
31
1.1763159890765988e-15
0
LINE
5
168
100
AcDbEntity
8
0
100
AcDbLine
10
-9.9218699999997
20
-16.999063209446902
30
0
11
-9.9218725003807489
21
-19.380313209435528
31
1.0408340855860843e-16
0
LINE
5
169
100
AcDbEntity
8
0
100
AcDbLine
10
-17.4624999999997
20
-15.411563209446903
30
0
11
-11.509375031978173
21
-15.411563209414979
31
-1.5146129380243427e-27
0
ARC
5
170
100
AcDbEntity
8
0
100
AcDbCircle
10
-17.462749999999701
20
-13.824313209446903
30
-4.622231866529366e-32
40
1.5872500196879999
210
2.4046183102734975e-21
220
2.775557633864689e-17
230
1
100
AcDbArc
50
179.99097562151564
51
270.00902437849106
0
LINE
5
171
100
AcDbEntity
8
0
100
AcDbLine
10
-19.050629974174701
20
1.6540669413740929
30
0
11
-19.04999999999956
21
-13.824063209446901
31
-3.1221636717721317e-21
0
LINE
5
172
100
AcDbEntity
8
0
100
AcDbLine
10
-16.668749999999704
20
3.2415667905530925
30
1.1014078493060526e-16
11
-17.462499998719188
21
3.2415642901717763
31
6.6174449004242214e-23
0
LINE
5
173
100
AcDbEntity
8
0
100
AcDbLine
10
-14.684629959049378
20
20.704066852775085
30
-1.6139840161502818e-20
11
-14.684375000015891
21
5.2259368219687659
31
-5.5511151231257827e-16
0
LINE
5
174
100
AcDbEntity
8
0
100
AcDbLine
10
14.684380001189057
20
20.704061793013182
30
-1.0970356612376175e-20
11
14.684380000000301
21
5.2259367905530922
31
0
0
LINE
5
175
100
AcDbEntity
8
0
100
AcDbLine
10
16.668749677197493
20
3.2408168378668503
30
8.2636814713765769e-17
11
17.462499979530303
21
3.2414368163470919
31
0
0
ARC
5
176
100
AcDbEntity
8
0
100
AcDbCircle
10
11.906375055645398
20
-17.396063265122514
30
-2.5223067294060498e-16
40
1.9845000596158722
210
9.2091665064296125e-17
220
-6.8654177009803469e-16
230
1
100
AcDbArc
50
90.003610562085072
51
179.99639097165189
0
ARC
5
177
100
AcDbEntity
8
0
100
AcDbCircle
10
-8.3343338952336659
20
-19.379894504026719
30
-2.3373728549116726e-16
40
1.587538660362815
210
2.1275643183840386e-16
220
1.4722764900896512e-16
230
1
100
AcDbArc
50
180.01511147642873
51
269.99869366143935
0
ARC
5
178
100
AcDbEntity
8
0
100
AcDbCircle
10
-11.509375031969661
20
-16.999068241392912
30
-3.7181000491689647e-27
40
1.5875050319779338
210
-2.3420984436934788e-27
220
-1.3880189774385471e-27
230
1
100
AcDbArc
50
0.00018161112096296955
51
90.000000000307239
0
ARC
5
179
100
AcDbEntity
8
0
100
AcDbCircle
10
-16.668712345094939
20
5.2259041355440772
30
-4.3156959574828698e-16
40
1.9843373453482567
210
6.2254028399567429e-17
220
2.7299190728673321e-16
230
1
100
AcDbArc
50
-90.001087248156793
51
0.00094378797304888037
0
ARC
5
180
100
AcDbEntity
8
0
100
AcDbCircle
10
-17.463197083620386
20
1.6541315513570849
30
-2.0393260662938751e-23
40
1.5874328918691563
210
1.2848911305057703e-23
220
-5.453879357048782e-23
230
1
100
AcDbArc
50
89.974839866120249
51
180.00233199093591
0
ENDSEC
0
SECTION
2
OBJECTS
0
DICTIONARY
5
C
100
AcDbDictionary
3
ACAD_GROUP
350
D
3
ACAD_MLINESTYLE
350
17
0
DICTIONARY
5
D
100
AcDbDictionary
0
DICTIONARY
5
1A
330
C
100
AcDbDictionary
0
DICTIONARY
5
17
100
AcDbDictionary
0
ENDSEC
0
EOF
