0
SECTION
2
HEADER
9
$INSUNITS
70
4
9
$ACADVER
1
AC1014
9
$HANDSEED
5
FFFF
0
ENDSEC
0
SECTION
2
TABLES
0
TABLE
2
VPORT
5
8
100
AcDbSymbolTable
0
ENDTAB
0
TABLE
2
LTYPE
5
5
100
AcDbSymbolTable
0
LTYPE
5
14
100
AcDbSymbolTableRecord
100
AcDbLinetypeTableRecord
2
BYBLOCK
70
0
0
LTYPE
5
15
100
AcDbSymbolTableRecord
100
AcDbLinetypeTableRecord
2
BYLAYER
70
0
0
LTYPE
5
16
100
AcDbSymbolTableRecord
100
AcDbLinetypeTableRecord
2
DASHED
70
0
3
Dashed __ __ __ __ __ __ __ __ __ __ __ __ __ _
72
65
73
2
40
0.75
49
0.5
74
0
49
-0.25
74
0
0
ENDTAB
0
TABLE
2
LAYER
5
2
100
AcDbSymbolTable
70
2
0
LAYER
5
50
100
AcDbSymbolTableRecord
100
AcDbLayerTableRecord
2
0
70
0
62
7
6
CONTINUOUS
0
ENDTAB
0
TABLE
2
STYLE
5
3
100
AcDbSymbolTable
70
1
0
STYLE
5
11
100
AcDbSymbolTableRecord
100
AcDbTextStyleTableRecord
2
STANDARD
70
0
0
ENDTAB
0
TABLE
2
VIEW
5
6
100
AcDbSymbolTable
70
0
0
ENDTAB
0
TABLE
2
UCS
5
7
100
AcDbSymbolTable
70
0
0
ENDTAB
0
TABLE
2
APPID
5
9
100
AcDbSymbolTable
70
2
0
APPID
5
12
100
AcDbSymbolTableRecord
100
AcDbRegAppTableRecord
2
ACAD
70
0
0
ENDTAB
0
TABLE
2
DIMSTYLE
5
A
100
AcDbSymbolTable
70
1
0
ENDTAB
0
TABLE
2
BLOCK_RECORD
5
1
100
AcDbSymbolTable
70
1
0
BLOCK_RECORD
5
1F
100
AcDbSymbolTableRecord
100
AcDbBlockTableRecord
2
*MODEL_SPACE
0
BLOCK_RECORD
5
1B
100
AcDbSymbolTableRecord
100
AcDbBlockTableRecord
2
*PAPER_SPACE
0
ENDTAB
0
ENDSEC
0
SECTION
2
BLOCKS
0
BLOCK
5
20
100
AcDbEntity
100
AcDbBlockBegin
2
*MODEL_SPACE
0
ENDBLK
5
21
100
AcDbEntity
100
AcDbBlockEnd
0
BLOCK
5
1C
100
AcDbEntity
100
AcDbBlockBegin
2
*PAPER_SPACE
0
ENDBLK
5
1D
100
AcDbEntity
100
AcDbBlockEnd
0
ENDSEC
0
SECTION
2
ENTITIES
0
LWPOLYLINE
5
100
100
AcDbEntity
8
0
100
AcDbPolyline
90
65
70
1
43
0.0
10
-90.487509937000283
20
40.548316790545094
10
-102.3937599997705
20
40.547814290172049
42
0.41425046291438927
10
-104.37788748387302
20
38.563436821105796
10
-104.37789004727365
20
23.482186627792423
42
-0.41410287049527117
10
-106.36251000000024
20
21.497816790553308
10
-107.15626000259118
20
21.497816790552609
42
0.41417664422567202
10
-109.13989004726203
20
19.513436883752149
10
-109.13989004735298
20
4.4321863133925374
42
-0.41417660171372439
10
-111.12501000000026
20
2.4478167905533255
10
-111.91875999996611
20
2.4478167905532011
42
0.41425046288526229
10
-113.90288998425407
20
0.4634368207925732
10
-113.90313000000033
20
-13.824063210668406
42
0.41425046270004984
10
-111.91876000000023
20
-15.80868322519477
10
-100.01251000120135
20
-15.808433209446807
42
0.4142135321617868
10
-98.028639999974331
20
-13.824063415305623
42
-1.0001258675634406
10
-92.471880000000112
20
-13.824063209450607
42
0.27310206705864648
10
-91.24378393773199
20
-15.90528498902918
42
-0.27307381393610464
10
-90.090630000000118
20
-17.859269575394027
10
-90.090630000000331
20
-32.874063210757001
42
0.41417664404272853
10
-88.106260188989282
20
-34.859183162166694
10
-15.874345004858711
20
-34.857775932795285
42
0.41420785620970935
10
-15.478135000974437
20
-34.461558209833015
10
-15.478135000974397
20
-33.667808209833019
42
-0.99999999999999989
10
-11.50938500097446
20
-33.667808209833019
10
-11.50938500097446
20
-34.461558209833015
42
0.41421927248463464
10
-11.113252321981724
20
-34.85768317671311
10
-11.112509708379841
20
-34.857683162245507
42
-0.41425041500689247
10
-9.1281300000004943
20
-36.842813209445382
10
-9.1281300000005476
20
-37.636563208100746
42
0.41417666302725398
10
-7.1437600000004569
20
-39.620683225194576
10
7.1437400025272186
20
-39.620933209446832
42
0.4142504440966408
10
9.1288600472256238
20
-37.636563302694348
10
9.1283600473138815
20
-36.842813442101502
42
-0.41432432847947753
10
11.112489999999406
20
-34.858433209446574
42
0.41421609859502267
10
11.509364999025495
20
-34.461558209833015
10
11.509364999025495
20
-33.667808209833026
42
-0.99999999999999989
10
15.478114999025509
20
-33.667808209833026
10
15.478114999025509
20
-34.461558209833015
42
0.41421356237312124
10
15.874989998640494
20
-34.858433209448144
10
88.106239999998934
20
-34.858433209471627
42
0.41425046269570998
10
90.090359984278308
20
-32.874063242196002
10
90.091132527497876
20
-17.79281287142215
42
-0.26280057301512616
10
91.156239999999428
20
-15.905313209446984
42
0.2896241478203509
10
92.471868606241799
20
-13.824063207949997
42
-1.0001085312475118
10
98.028119999999319
20
-13.824063209450546
42
0.41428737364933227
10
100.01248999999927
20
-15.808433209446658
10
111.91874000199192
20
-15.808435709827901
42
0.41426003843156489
10
113.90336004724534
20
-13.824063179196644
10
113.90311749959497
20
0.46343678946278999
42
0.41424014880735055
10
111.91874006299923
20
2.4475667433132831
10
111.1249899877723
20
2.4478117905435095
42
-0.41403346914008526
10
109.14061999999919
20
4.4321867905532386
10
109.14061749961814
20
19.513436789554106
42
0.41417619670456934
10
107.1562399999992
20
21.498066806301228
10
106.36249001494086
20
21.497811790537781
42
-0.41440251208203821
10
104.37811999999916
20
23.482186790553232
10
104.3781174996181
20
38.563436789553791
42
0.41416485329174296
10
102.39374006299919
20
40.547566743313219
10
90.487490000885202
20
40.547814290172084
42
0.41422832454987385
10
88.503129999999288
20
38.563436790553205
42
-0.99999999999999989
10
82.946869999999322
20
38.563436790553205
42
0.41421355307550067
10
80.962490062999279
20
40.548316790545236
10
-80.962509998985936
20
40.547814290171978
42
0.4142873734741333
10
-82.946890000000337
20
38.563436790553716
42
-0.99999999999999989
10
-88.503130000000283
20
38.563436790552508
42
0.41421355307558722
0
LWPOLYLINE
5
101
100
AcDbEntity
8
0
100
AcDbPolyline
90
24
70
1
43
0.0
10
13.096870174759488
20
22.290816792956196
10
-13.096885000974471
20
22.29156679016701
42
0.41412040375036135
10
-14.684639959050131
20
20.704066852775096
10
-14.684385000016654
20
5.2259368219688795
42
-0.41422394496962667
10
-16.668760000000461
20
3.2415667905532608
10
-17.462509998719945
20
3.2415642901719544
42
0.41435410775351433
10
-19.050639974175493
20
1.654066941374257
10
-19.050010000000338
20
-13.824063209446891
42
0.41430582974479124
10
-17.462510000000449
20
-15.411563209446753
10
-11.509385031978937
20
-15.411563209414702
42
-0.41421263398554886
10
-9.9218800000004812
20
-16.999063209446721
10
-9.9218825003815212
20
-19.380313209435315
42
0.41412963779700257
10
-8.3343800909714858
20
-20.967433163976743
10
8.3343649999995542
20
-20.967813209848437
42
0.41419050010302239
10
9.9217400053224516
20
-19.380313209446747
10
9.9218649999656385
20
-17.395938262598655
42
-0.41417665666175785
10
11.906239999999467
20
-15.411563209446753
10
17.462489999999423
20
-15.411563209446593
42
0.4142135478470112
10
19.049490000009438
20
-13.824063288166709
10
19.049990001188071
20
1.6540617905535715
42
0.41409827671613764
10
17.462489979529472
20
3.2414368163475515
10
16.668739677196676
20
3.2408168378668463
42
-0.41417662449068315
10
14.684369999999525
20
5.2259367905534049
10
14.684370001188263
20
20.70406179301278
42
0.41421260695547713
0
LINE
5
102
100
AcDbEntity
8
0
100
AcDbLine
10
-12.262500000000001
20
21.369686790553217
30
5.5511151231257827e-16
11
12.262500000000001
21
21.369686790553214
31
5.5511151231257847e-16
0
ARC
5
103
100
AcDbEntity
8
0
100
AcDbCircle
10
-12.262500000000003
20
19.869686790553224
30
2.7755575615628909e-16
40
1.4999999999999947
210
-1.8233113364060931e-31
220
-1.8503717077086012e-16
230
1
100
AcDbArc
50
89.999999999999929
51
180
0
LINE
5
104
100
AcDbEntity
8
0
100
AcDbLine
10
-13.762499999999998
20
3.8996867905532073
30
0
11
-13.762500000000003
21
19.869686790553228
31
2.7755575615628923e-16
0
ARC
5
105
100
AcDbEntity
8
0
100
AcDbCircle
10
-15.262500000000001
20
3.8996867905532069
30
0
40
1.5000000000000002
210
-2.3486258485571662e-32
220
-2.775557561562892e-17
230
1
100
AcDbArc
50
-90.000000000000099
51
0
0
LINE
5
106
100
AcDbEntity
8
0
100
AcDbLine
10
-17.025000000000002
20
2.3996867905532078
30
-2.7755575615628914e-16
11
-15.262500000000003
21
2.3996867905532064
31
-4.1633363423443383e-17
0
ARC
5
107
100
AcDbEntity
8
0
100
AcDbCircle
10
-17.025000000000006
20
0.89968679055320344
30
-8.0889057664263906e-32
40
1.500000000000004
210
3.0724719836213268e-31
220
1.8503717077085886e-16
230
1
100
AcDbArc
50
89.999999999999872
51
180
0
LINE
5
108
100
AcDbEntity
8
0
100
AcDbLine
10
-18.525000000000002
20
-13.480313209446795
30
-5.5511151231257827e-16
11
-18.525000000000009
21
0.89968679055320733
31
1.4806824093314333e-32
0
SPLINE
5
109
100
AcDbEntity
8
0
100
AcDbSpline
70
0
71
3
72
14
73
10
74
0
42
0.000000001
43
0.0000000001
44
0.0000000001
40
0
40
0
40
0
40
0
40
0.059417766288909546
40
0.059417766288909546
40
0.11955838610820982
40
0.11955838610820982
40
0.17737648590299196
40
0.17737648590299196
40
0.23637428368478219
40
0.23637428368478219
40
0.23637428368478219
40
0.23637428368478219
10
-17.025000000000009
20
-14.980313209446791
30
-5.5511151231257827e-16
10
-17.223059220963041
20
-14.980313209446791
30
-5.5511151231257827e-16
10
-17.419171316571227
20
-14.941085754438308
30
-5.5511151231257827e-16
10
-17.787035704151624
20
-14.787787606290152
30
-5.5511151231257827e-16
10
-17.954757493374647
20
-14.674356222204906
30
-5.5511151231257827e-16
10
-18.230259902114661
20
-14.393818690886222
30
-5.5511151231257827e-16
10
-18.337540693534599
20
-14.231565912657258
30
-5.5511151231257827e-16
10
-18.486325109521097
20
-13.87172579836295
30
-5.5511151231257827e-16
10
-18.525000000000006
20
-13.676972535386104
30
-5.5511151231257827e-16
10
-18.525000000000006
20
-13.480313209446802
30
-5.5511151231257827e-16
0
LINE
5
110
100
AcDbEntity
8
0
100
AcDbLine
10
-10.500000000000004
20
-14.980313209446798
30
-5.5511151231257827e-16
11
-17.025000000000009
21
-14.980313209446791
31
-5.5511151231257827e-16
0
ARC
5
111
100
AcDbEntity
8
0
100
AcDbCircle
10
-10.500000000000004
20
-16.480313209446798
30
0
40
1.5000000000000013
210
-3.0814879110195763e-33
220
-1.3877787807814457e-17
230
1
100
AcDbArc
50
0
51
90
0
LINE
5
112
100
AcDbEntity
8
0
100
AcDbLine
10
-9.0000000000000018
20
-18.69281320944679
30
-8.3266726846886741e-16
11
-9.0000000000000018
21
-16.480313209446798
31
4.6222318665293688e-33
0
ARC
5
113
100
AcDbEntity
8
0
100
AcDbCircle
10
-7.5
20
-18.69281320944679
30
-8.3266726846886701e-16
40
1.5000000000000024
210
-2.0543252740130469e-31
220
-2.7755575615629012e-17
230
1
100
AcDbArc
50
180
51
269.99999999999994
0
LINE
5
114
100
AcDbEntity
8
0
100
AcDbLine
10
7.5000000000000044
20
-20.192813209446797
30
-5.5511151231257827e-16
11
-7.5000000000000009
21
-20.19281320944679
31
-8.7430063189231058e-16
0
ARC
5
115
100
AcDbEntity
8
0
100
AcDbCircle
10
7.5000000000000044
20
-18.69281320944679
30
-8.326672684688675e-16
40
1.5000000000000058
210
-1.2011482662460322e-31
220
1.8503717077085879e-16
230
1
100
AcDbArc
50
270
51
360
0
LINE
5
116
100
AcDbEntity
8
0
100
AcDbLine
10
9.0000000000000053
20
-16.480313209446791
30
-5.5511151231257827e-16
11
9.0000000000000053
21
-18.692813209446793
31
-8.3266726846886741e-16
0
ARC
5
117
100
AcDbEntity
8
0
100
AcDbCircle
10
10.500000000000009
20
-16.480313209446795
30
-5.5511151231257827e-16
40
1.5000000000000013
210
3.1507289938087915e-33
220
-1.3877787807814437e-17
230
1
100
AcDbArc
50
90
51
180
0
LINE
5
118
100
AcDbEntity
8
0
100
AcDbLine
10
10.500000000000009
20
-14.980313209446795
30
-5.3429483060085659e-16
11
17.024999999999984
21
-14.980313209446813
31
-5.5511151231257886e-16
0
SPLINE
5
119
100
AcDbEntity
8
0
100
AcDbSpline
70
0
71
3
72
14
73
10
74
0
42
0.000000001
43
0.0000000001
44
0.0000000001
40
-0.23637428368478292
40
-0.23637428368478292
40
-0.23637428368478292
40
-0.23637428368478292
40
-0.17737648590299177
40
-0.17737648590299177
40
-0.11955838610820946
40
-0.11955838610820946
40
-0.059417766288909095
40
-0.059417766288909095
40
0
40
0
40
0
40
0
10
17.025000000000006
20
-14.980313209446809
30
-5.5511151231257827e-16
10
17.22165932593931
20
-14.980313209446809
30
-5.5511151231257827e-16
10
17.416412588916163
20
-14.941638318967904
30
-5.5511151231257827e-16
10
17.776252703210471
20
-14.79285390298141
30
-5.5511151231257827e-16
10
17.938505481439435
20
-14.685573111561466
30
-5.5511151231257827e-16
10
18.219043012758117
20
-14.410070702821452
30
-5.5511151231257827e-16
10
18.332474396843374
20
-14.242348913598429
30
-5.5511151231257827e-16
10
18.485772544991523
20
-13.874484526018037
30
-5.5511151231257827e-16
10
18.525000000000006
20
-13.678372430409848
30
-5.5511151231257827e-16
10
18.525000000000006
20
-13.480313209446816
30
-5.5511151231257827e-16
0
LINE
5
120
100
AcDbEntity
8
0
100
AcDbLine
10
18.525000000000006
20
0.89968679055320966
30
0
11
18.525000000000006
21
-13.480313209446816
31
-5.5511151231257827e-16
0
ARC
5
121
100
AcDbEntity
8
0
100
AcDbCircle
10
17.025000000000006
20
0.89968679055320799
30
-6.9333477997940491e-32
40
1.4999999999999991
210
-1.540743955509787e-32
220
-2.7755575615628938e-17
230
1
100
AcDbArc
50
0
51
89.999999999999872
0
LINE
5
122
100
AcDbEntity
8
0
100
AcDbLine
10
15.262500000000017
20
2.3996867905532131
30
0
11
17.025000000000009
21
2.3996867905532095
31
4.1633363423443376e-17
0
ARC
5
123
100
AcDbEntity
8
0
100
AcDbCircle
10
15.262500000000019
20
3.8996867905532135
30
0
40
1.5000000000000013
210
-1.5291122687287223e-32
220
-1.3877787807814457e-17
230
1
100
AcDbArc
50
180
51
269.99999999999989
0
LINE
5
124
100
AcDbEntity
8
0
100
AcDbLine
10
13.762499999999998
20
19.869686790553221
30
0
11
13.762500000000017
21
3.8996867905532122
31
-3.8344123586028745e-32
0
ARC
5
125
100
AcDbEntity
8
0
100
AcDbCircle
10
12.262499999999992
20
19.869686790553214
30
-4.2370458776519189e-31
40
1.5000000000000058
210
-1.5921020873601053e-31
220
-2.7755575615629e-17
230
1
100
AcDbArc
50
0
51
89.999999999999673
0
CIRCLE
5
126
100
AcDbEntity
8
0
100
AcDbCircle
10
-4.4479243362704391e-15
20
9.6196867906121071
30
0
40
1.25
210
6.5206348408169225e-34
220
-2.7755575615628907e-17
230
1
0
CIRCLE
5
127
100
AcDbEntity
8
0
100
AcDbCircle
10
-3.533586134780532e-15
20
-8.1928132093879054
30
0
40
1.25
210
6.5206348408169225e-34
220
-2.7755575615628907e-17
230
1
0
ENDSEC
0
SECTION
2
OBJECTS
0
DICTIONARY
5
C
100
AcDbDictionary
3
ACAD_GROUP
350
D
3
ACAD_MLINESTYLE
350
17
0
DICTIONARY
5
D
100
AcDbDictionary
0
DICTIONARY
5
1A
330
C
100
AcDbDictionary
0
DICTIONARY
5
17
100
AcDbDictionary
0
ENDSEC
0
EOF
