0
SECTION
2
HEADER
9
$INSUNITS
70
4
9
$ACADVER
1
AC1014
9
$HANDSEED
5
FFFF
0
ENDSEC
0
SECTION
2
TABLES
0
TABLE
2
VPORT
5
8
100
AcDbSymbolTable
0
ENDTAB
0
TABLE
2
LTYPE
5
5
100
AcDbSymbolTable
0
LTYPE
5
14
100
AcDbSymbolTableRecord
100
AcDbLinetypeTableRecord
2
BYBLOCK
70
0
0
LTYPE
5
15
100
AcDbSymbolTableRecord
100
AcDbLinetypeTableRecord
2
BYLAYER
70
0
0
LTYPE
5
16
100
AcDbSymbolTableRecord
100
AcDbLinetypeTableRecord
2
DASHED
70
0
3
Dashed __ __ __ __ __ __ __ __ __ __ __ __ __ _
72
65
73
2
40
0.75
49
0.5
74
0
49
-0.25
74
0
0
ENDTAB
0
TABLE
2
LAYER
5
2
100
AcDbSymbolTable
70
2
0
LAYER
5
50
100
AcDbSymbolTableRecord
100
AcDbLayerTableRecord
2
0
70
0
62
7
6
CONTINUOUS
0
ENDTAB
0
TABLE
2
STYLE
5
3
100
AcDbSymbolTable
70
1
0
STYLE
5
11
100
AcDbSymbolTableRecord
100
AcDbTextStyleTableRecord
2
STANDARD
70
0
0
ENDTAB
0
TABLE
2
VIEW
5
6
100
AcDbSymbolTable
70
0
0
ENDTAB
0
TABLE
2
UCS
5
7
100
AcDbSymbolTable
70
0
0
ENDTAB
0
TABLE
2
APPID
5
9
100
AcDbSymbolTable
70
2
0
APPID
5
12
100
AcDbSymbolTableRecord
100
AcDbRegAppTableRecord
2
ACAD
70
0
0
ENDTAB
0
TABLE
2
DIMSTYLE
5
A
100
AcDbSymbolTable
70
1
0
ENDTAB
0
TABLE
2
BLOCK_RECORD
5
1
100
AcDbSymbolTable
70
1
0
BLOCK_RECORD
5
1F
100
AcDbSymbolTableRecord
100
AcDbBlockTableRecord
2
*MODEL_SPACE
0
BLOCK_RECORD
5
1B
100
AcDbSymbolTableRecord
100
AcDbBlockTableRecord
2
*PAPER_SPACE
0
ENDTAB
0
ENDSEC
0
SECTION
2
BLOCKS
0
BLOCK
5
20
100
AcDbEntity
100
AcDbBlockBegin
2
*MODEL_SPACE
0
ENDBLK
5
21
100
AcDbEntity
100
AcDbBlockEnd
0
BLOCK
5
1C
100
AcDbEntity
100
AcDbBlockBegin
2
*PAPER_SPACE
0
ENDBLK
5
1D
100
AcDbEntity
100
AcDbBlockEnd
0
ENDSEC
0
SECTION
2
ENTITIES
0
POINT
5
100
100
AcDbEntity
8
0
100
AcDbPoint
10
-144.859375
20
101.203125
30
0
0
POINT
5
101
100
AcDbEntity
8
0
100
AcDbPoint
10
-173.43437499999999
20
157.95625000000001
30
0
0
POINT
5
102
100
AcDbEntity
8
0
100
AcDbPoint
10
-169.46562499999999
20
157.95625000000001
30
0
0
POINT
5
103
100
AcDbEntity
8
0
100
AcDbPoint
10
-169.46562499999999
20
157.16249999999999
30
0
0
POINT
5
104
100
AcDbEntity
8
0
100
AcDbPoint
10
-173.43437499999999
20
157.16249999999999
30
0
0
POINT
5
105
100
AcDbEntity
8
0
100
AcDbPoint
10
-142.47812500000003
20
157.95625000000001
30
0
0
POINT
5
106
100
AcDbEntity
8
0
100
AcDbPoint
10
-142.47812500000003
20
157.16249999999999
30
0
0
POINT
5
107
100
AcDbEntity
8
0
100
AcDbPoint
10
-146.44687500000001
20
157.95625000000001
30
0
0
POINT
5
108
100
AcDbEntity
8
0
100
AcDbPoint
10
-146.44687500000001
20
157.16249999999999
30
0
0
LINE
5
109
100
AcDbEntity
8
0
100
AcDbLine
10
-67.468750063974213
20
82.946374999621938
30
-2.2204460492503131e-15
11
-55.562500001204015
21
82.946877499994983
31
-2.2204460492503131e-15
0
ARC
5
110
100
AcDbEntity
8
0
100
AcDbCircle
10
-55.562500000974246
20
84.93100499961389
30
-1.1102230246251565e-15
40
1.9841274996189107
210
-6.4798981806960071e-26
220
-5.5955225903496425e-16
230
1
100
AcDbArc
50
-90.000000006635048
51
0.0072183840919981699
0
ARC
5
111
100
AcDbEntity
8
0
100
AcDbCircle
10
-51.593500000974274
20
100.01200499961386
30
-1.1102230246251565e-15
40
1.9848700157439982
210
0
220
0
230
1
100
AcDbArc
50
90.007216565720782
51
179.98556217014837
0
ARC
5
112
100
AcDbEntity
8
0
100
AcDbCircle
10
-50.800500000974239
20
103.98100499961387
30
-1.1102230246251565e-15
40
1.9841300629999916
210
-0
220
0
230
1
100
AcDbArc
50
-89.985561410996851
51
0.0072165657261174208
0
ARC
5
113
100
AcDbEntity
8
0
100
AcDbCircle
10
-46.831500000974238
20
119.06200499961385
30
0
40
1.9848700157439807
210
0
220
-0
230
1
100
AcDbArc
50
89.992783434279858
51
179.98555309459707
0
ARC
5
114
100
AcDbEntity
8
0
100
AcDbCircle
10
-46.037500000974269
20
123.03100499961381
30
0
40
1.9841299999999862
210
0
220
0
230
1
100
AcDbArc
50
-90.000000000986134
51
0.007218384041506991
0
ARC
5
115
100
AcDbEntity
8
0
100
AcDbCircle
10
-46.037500000974312
20
137.31900499961375
30
1.1102230246251565e-15
40
1.984370015748026
210
-0
220
0
230
1
100
AcDbArc
50
-0.0072183487985992573
51
89.999999999999389
0
ARC
5
116
100
AcDbEntity
8
0
100
AcDbCircle
10
-57.943500000974254
20
137.31900499961375
30
1.1102230246251565e-15
40
1.9841200157499863
210
0
220
0
230
1
100
AcDbArc
50
90.007219258908194
51
180.00721334897125
0
ARC
5
117
100
AcDbEntity
8
0
100
AcDbCircle
10
-69.85050000097425
20
156.36900499961371
30
2.2204460492503131e-15
40
1.984870015744002
210
-0
220
0
230
1
100
AcDbArc
50
-0.007216527898577017
51
89.98556141303709
0
ARC
5
118
100
AcDbEntity
8
0
100
AcDbCircle
10
-146.84350000097402
20
160.33700499961367
30
2.2204460492503131e-15
40
1.9846300629839806
210
0
220
0
230
1
100
AcDbArc
50
179.98556512343708
51
269.9927741427415
0
ARC
5
119
100
AcDbEntity
8
0
100
AcDbCircle
10
-150.81250000097401
20
161.13100499961365
30
2.2204460492503131e-15
40
1.9843700157479924
210
0
220
-0
230
1
100
AcDbArc
50
0.007218345213685938
51
90
0
ARC
5
120
100
AcDbEntity
8
0
100
AcDbCircle
10
-165.10050000097397
20
161.13100499961359
30
2.2204460492503131e-15
40
1.9846200629839885
210
0
220
-0
230
1
100
AcDbArc
50
89.985565123639574
51
179.99277983333511
0
ARC
5
121
100
AcDbEntity
8
0
100
AcDbCircle
10
-169.06850000097393
20
160.33700499961361
30
2.2204460492503131e-15
40
1.983880015751992
210
0
220
0
230
1
100
AcDbArc
50
-90.007220166946638
51
0.01444705323752611
0
ARC
5
122
100
AcDbEntity
8
0
100
AcDbCircle
10
-246.06250000097367
20
156.36900499961359
30
2.2204460492503131e-15
40
1.984120000024987
210
0
220
-0
230
1
100
AcDbArc
50
89.999999999990976
51
180.00721834794021
0
ARC
5
123
100
AcDbEntity
8
0
100
AcDbCircle
10
-250.25150000097358
20
141.2870049996136
30
0
40
2.204107529136921
210
-0
220
0
230
1
100
AcDbArc
50
-58.884667685259672
51
0.012988714138336676
0
ARC
5
124
100
AcDbEntity
8
0
100
AcDbCircle
10
-248.12450000097368
20
137.31900499961364
30
0
40
2.3036286593115691
210
0
220
0
230
1
100
AcDbArc
50
115.39704662129898
51
180.00621802948294
0
ARC
5
125
100
AcDbEntity
8
0
100
AcDbCircle
10
-257.96850000097368
20
137.31900499961367
30
0
40
1.9841200157499954
210
-0
220
0
230
1
100
AcDbArc
50
-0.0072192934818109695
51
90.007219293592186
0
LINE
5
126
100
AcDbEntity
8
0
100
AcDbLine
10
-257.96875000097367
20
139.30312499961363
30
0
11
-269.87500000296632
21
139.30312749999487
31
1.1102230246251565e-15
0
LINE
5
127
100
AcDbEntity
8
0
100
AcDbLine
10
-271.85962004821977
20
137.31875496936362
30
0
11
-271.85937750056939
21
123.03125500070419
31
-5.5511151231257827e-16
0
LINE
5
128
100
AcDbEntity
8
0
100
AcDbLine
10
-269.87500006397363
20
121.04712504685367
30
0
11
-269.08124998874672
21
121.04687999962344
31
-1.1102230246251565e-15
0
LINE
5
129
100
AcDbEntity
8
0
100
AcDbLine
10
-267.09688000097361
20
119.06250499961372
30
0
11
-267.09687750059254
21
103.9812550006129
31
-5.5511151231257827e-16
0
LINE
5
130
100
AcDbEntity
8
0
100
AcDbLine
10
-265.11250000097363
20
101.99662498386574
30
-1.1102230246251565e-15
11
-264.31875001591533
21
101.99687999962913
31
-1.1102230246251565e-15
0
LINE
5
131
100
AcDbEntity
8
0
100
AcDbLine
10
-262.33438000097362
20
100.01250499961375
30
-1.1102230246251565e-15
11
-262.3343775005925
21
84.93125500061322
31
-1.6653345369377348e-15
0
LINE
5
132
100
AcDbEntity
8
0
100
AcDbLine
10
-260.35000006397365
20
82.947125046853785
30
-1.1102230246251565e-15
11
-248.44375000185963
21
82.946877499994912
31
-1.1102230246251565e-15
0
ARC
5
133
100
AcDbEntity
8
0
100
AcDbCircle
10
-243.68126000097368
20
84.931254999613799
30
-2.2204460492503131e-15
40
2.7781299999999831
210
-0
220
0
230
1
100
AcDbArc
50
0
51
180
0
ARC
5
134
100
AcDbEntity
8
0
100
AcDbCircle
10
-238.91850000097372
20
84.931004999613862
30
-2.2204460492503131e-15
40
1.9846300157460108
210
0
220
0
230
1
100
AcDbArc
50
179.99278256156873
51
269.99278074278976
0
LINE
5
135
100
AcDbEntity
8
0
100
AcDbLine
10
-238.91875006397373
20
82.946374999621781
30
-2.2204460492503131e-15
11
-76.993750001988545
21
82.946877499995082
31
-2.2204460492503131e-15
0
ARC
5
136
100
AcDbEntity
8
0
100
AcDbCircle
10
-67.468500000974203
20
84.931004999613975
30
-1.1102230246251565e-15
40
1.9846300157460197
210
0
220
0
230
1
100
AcDbArc
50
179.99278256156873
51
269.99278074278976
0
ARC
5
137
100
AcDbEntity
8
0
100
AcDbCircle
10
-72.231250000974185
20
84.931254999613927
30
-1.1102230246251565e-15
40
2.7781199999999728
210
0
220
-0
230
1
100
AcDbArc
50
0
51
180
0
ARC
5
138
100
AcDbEntity
8
0
100
AcDbCircle
10
-76.993500000974194
20
84.931004999613933
30
0
40
1.9841275153689808
210
-1.4100770253226403e-19
220
-1.1191045003029204e-15
230
1
100
AcDbArc
50
-90.0072192955963
51
0.0072192571831480555
0
ARC
5
139
100
AcDbEntity
8
0
100
AcDbCircle
10
-248.44370874521962
20
84.9311962446819
30
-1.3877787807814457e-15
40
1.9843187451158675
210
2.9081796011170056e-21
220
1.3987458253844766e-16
230
1
100
AcDbArc
50
-90.001191255868108
51
0.001696506455769817
0
ARC
5
140
100
AcDbEntity
8
0
100
AcDbCircle
10
-260.34995880525508
20
84.931543762771781
30
-1.3877787807814457e-15
40
1.9844187163469562
210
-1.3986753447310453e-16
220
-2.0352787072592487e-20
230
1
100
AcDbArc
50
180.00833738000904
51
269.99880874413105
0
ARC
5
141
100
AcDbEntity
8
0
100
AcDbCircle
10
-264.3181126828581
20
100.01314731613733
30
-1.1102230246251565e-15
40
1.9837327858729088
210
-0
220
0
230
1
100
AcDbArc
50
-0.018551907200903529
51
90.01840797067608
0
ARC
5
142
100
AcDbEntity
8
0
100
AcDbCircle
10
-265.11224713869689
20
103.98125532965278
30
-2.7755575615628914e-16
40
1.9846303618956456
210
-1.3985262015802998e-16
220
-2.3186730004061828e-23
230
1
100
AcDbArc
50
180.00000950722094
51
269.99269992963292
0
ARC
5
143
100
AcDbEntity
8
0
100
AcDbCircle
10
-269.08186279440224
20
119.06189720773634
30
-2.4980018054066022e-15
40
1.9849828864800325
210
-1.2584499873123511e-15
220
-3.8533113884271176e-19
230
1
100
AcDbArc
50
0.01754368269883276
51
89.982311596477743
0
ARC
5
144
100
AcDbEntity
8
0
100
AcDbCircle
10
-269.87521385190138
20
123.03128868429002
30
-1.1102230246251565e-15
40
1.9841636489538903
210
2.7977103225596343e-16
220
4.7494527872469336e-21
230
1
100
AcDbArc
50
180.00097266516283
51
270.00617345550148
0
ARC
5
145
100
AcDbEntity
8
0
100
AcDbCircle
10
-269.87528118451303
20
137.31878865592392
30
2.7755575615628914e-16
40
1.984338863992712
210
-5.9460236486108143e-20
220
-4.1961948899891376e-16
230
1
100
AcDbArc
50
89.991881166946953
51
180.00097266516283
0
ARC
5
146
100
AcDbEntity
8
0
100
AcDbCircle
10
-253.2062543040951
20
137.31845350177966
30
0
40
2.7781257132387251
210
0
220
0
230
1
100
AcDbArc
50
-180.00621806043114
51
0.0062180294243244089
0
LINE
5
147
100
AcDbEntity
8
0
100
AcDbLine
10
-248.0473925284723
20
141.28750466159019
30
0
11
-248.04661998525276
21
156.36875503236297
31
2.2204460492503131e-15
0
LINE
5
148
100
AcDbEntity
8
0
100
AcDbLine
10
-246.06250000097336
20
158.3531249996386
30
2.2204460492503131e-15
11
-173.83124999961495
21
158.35312499961509
31
2.2204460492503131e-15
0
LINE
5
149
100
AcDbEntity
8
0
100
AcDbLine
10
-167.08512004820011
20
161.13125509286311
30
2.2204460492503131e-15
11
-167.08462004828843
21
160.33750523226854
31
2.2204460492503131e-15
0
LINE
5
150
100
AcDbEntity
8
0
100
AcDbLine
10
-150.81250000097401
20
163.11537501536165
30
2.2204460492503131e-15
11
-165.10000000350169
21
163.11562499961386
31
2.2204460492503131e-15
0
LINE
5
151
100
AcDbEntity
8
0
100
AcDbLine
10
-148.82813000097391
20
161.13125499826782
30
2.2204460492503131e-15
11
-148.82813000097397
21
160.33750499961317
31
2.2204460492503131e-15
0
ARC
5
152
100
AcDbEntity
8
0
100
AcDbCircle
10
-67.861500000974274
20
137.31900499961375
30
0
40
2.3771200131460373
210
-0
220
0
230
1
100
AcDbArc
50
-0.0060257557899997235
51
61.094391297889949
0
LINE
5
153
100
AcDbEntity
8
0
100
AcDbLine
10
-67.865630000974392
20
141.35396136556099
30
1.1102230246251565e-15
11
-67.865630000974178
21
156.36875500092398
31
2.2204460492503131e-15
0
ARC
5
154
100
AcDbEntity
8
0
100
AcDbCircle
10
-65.633569042147528
20
141.35396136556096
30
5.5511151231257827e-16
40
2.2320609588268603
210
2.4869908239618018e-16
220
-2.7519111312476252e-30
230
1
100
AcDbArc
50
180
51
241.09439129788979
0
ARC
5
155
100
AcDbEntity
8
0
100
AcDbCircle
10
-62.706000000974328
20
137.31840541662987
30
5.5511151231257827e-16
40
2.7783800219927905
210
-1.9979682531705993e-16
220
2.513895530337589e-20
230
1
100
AcDbArc
50
-180.00720910370464
51
0.0072133488702296163
0
LINE
5
156
100
AcDbEntity
8
0
100
AcDbLine
10
-57.943749999773161
20
139.30312499961386
30
1.1102230246251565e-15
11
-46.037500000974291
21
139.30337501536178
31
1.1102230246251565e-15
0
LINE
5
157
100
AcDbEntity
8
0
100
AcDbLine
10
-44.053130000974207
20
137.3187550008337
30
1.1102230246251565e-15
11
-44.053370016720457
21
123.03125496937619
31
0
0
LINE
5
158
100
AcDbEntity
8
0
100
AcDbLine
10
-46.037500001008418
20
121.04687499961383
30
0
11
-46.831250000974265
21
121.04687499961372
31
0
0
LINE
5
159
100
AcDbEntity
8
0
100
AcDbLine
10
-48.81636995362156
20
119.06250547677541
30
0
11
-48.816369953712467
21
103.98125490641492
31
-1.1102230246251565e-15
0
LINE
5
160
100
AcDbEntity
8
0
100
AcDbLine
10
-50.799999998383321
20
101.99687499961443
30
-1.1102230246251565e-15
11
-51.593750000974268
21
101.99687499961377
31
-1.1102230246251565e-15
0
LINE
5
161
100
AcDbEntity
8
0
100
AcDbLine
10
-53.57836995370085
20
100.01250516237464
30
-1.1102230246251565e-15
11
-53.57837001672042
21
84.931254969376297
31
-1.1102230246251565e-15
0
LWPOLYLINE
5
162
100
AcDbEntity
8
0
100
AcDbPolyline
90
24
70
1
43
0.0
10
-144.85937499999997
20
101.20312499999997
42
0.41412040375036296
10
-143.27162004192434
20
102.7906249373919
10
-143.27187500095781
20
118.26875496819811
42
-0.41422394496962139
10
-141.28750000097401
20
120.25312499961376
10
-140.49375000225453
20
120.25312749999509
42
0.41435410775352094
10
-138.905620026799
20
121.84062484879276
10
-138.90625000097415
20
137.31875499961393
42
0.41430582974480112
10
-140.49375000097399
20
138.90625499961371
10
-146.44687496899553
20
138.90625499958173
42
-0.41421263398555458
10
-148.03438000097398
20
140.49375499961369
10
-148.03437750059294
20
142.87500499960231
42
0.4141296377970009
10
-149.62187991000297
20
144.46212495414369
10
-166.29062500097399
20
144.46250500001543
42
0.41419050010300934
10
-167.87800000629693
20
142.87500499961371
10
-167.87812500094009
20
140.89063005276563
42
-0.41417665666175063
10
-169.86250000097391
20
138.90625499961371
10
-175.41875000097392
20
138.90625499961357
42
0.4142135478470006
10
-177.00575000098388
20
137.31875507833371
10
-177.00625000216252
20
121.84062999961343
42
0.41409827671612776
10
-175.41874998050392
20
120.25325497381945
10
-174.62499967817112
20
120.25387495230012
42
-0.41417662449065956
10
-172.64063000097394
20
118.26875499961359
10
-172.64063000216268
20
102.79062999715423
42
0.41421260695545908
10
-171.05313017573394
20
101.20387499721082
0
ARC
5
163
100
AcDbEntity
8
0
100
AcDbCircle
10
-142.08190727696257
20
157.95625000000001
30
3.5959370323531718e-16
40
0.39621772303746583
210
1.0705181421139684e-17
220
-4.6965396940541357e-15
230
1
100
AcDbArc
50
90.001116242089736
51
180
0
ARC
5
164
100
AcDbEntity
8
0
100
AcDbCircle
10
-146.84299996164674
20
157.95625000530853
30
1.9897216267311438e-15
40
0.39612496164671995
210
5.0229645056519232e-15
220
-8.6218790641239323e-16
230
1
100
AcDbArc
50
0
51
90.001116242088628
0
LINE
5
165
100
AcDbEntity
8
0
100
AcDbLine
10
-146.44687500000001
20
157.95625000000001
30
0
11
-146.44687500000001
21
157.16249999999999
31
0
0
ARC
5
166
100
AcDbEntity
8
0
100
AcDbCircle
10
-144.46250000000003
20
157.16249999999999
30
0
40
1.9843749999999893
210
0
220
0
230
1
100
AcDbArc
50
-180
51
0
0
LINE
5
167
100
AcDbEntity
8
0
100
AcDbLine
10
-142.47812500000003
20
157.16249999999999
30
0
11
-142.47812500000003
21
157.95625000000001
31
0
0
ARC
5
168
100
AcDbEntity
8
0
100
AcDbCircle
10
-173.83124999961501
20
157.95625000000004
30
1.3986094824086765e-15
40
0.39687499961502226
210
3.5240553921645412e-15
220
-1.6032994047285644e-15
230
1
100
AcDbArc
50
0
51
89.999999999991786
0
ARC
5
169
100
AcDbEntity
8
0
100
AcDbCircle
10
-169.06875171898184
20
157.95625171859538
30
1.4527612814120548e-15
40
0.3968732810181308
210
-4.7787490043211055e-15
220
-1.9343322026319733e-15
230
1
100
AcDbArc
50
89.999999999983586
51
180.00024810903074
0
LINE
5
170
100
AcDbEntity
8
0
100
AcDbLine
10
-169.46562499999999
20
157.95625000000001
30
0
11
-169.46562499999999
21
157.16249999999999
31
0
0
ARC
5
171
100
AcDbEntity
8
0
100
AcDbCircle
10
-171.44999999999999
20
157.16249999999999
30
0
40
1.9843750000000071
210
0
220
0
230
1
100
AcDbArc
50
-180
51
0
0
LINE
5
172
100
AcDbEntity
8
0
100
AcDbLine
10
-173.43437499999999
20
157.16249999999999
30
0
11
-173.43437499999999
21
157.95625000000001
31
0
0
LINE
5
173
100
AcDbEntity
8
0
100
AcDbLine
10
-146.84375029259462
20
158.35237495241242
30
2.2204460492503131e-15
11
-146.84300767899273
21
158.35237496688006
31
2.2204460492503131e-15
0
LINE
5
174
100
AcDbEntity
8
0
100
AcDbLine
10
-142.08191499611576
20
158.35246772296227
30
2.2204460492503131e-15
11
-69.849999811985242
21
158.35387495233368
31
2.2204460492503131e-15
0
ENDSEC
0
SECTION
2
OBJECTS
0
DICTIONARY
5
C
100
AcDbDictionary
3
ACAD_GROUP
350
D
3
ACAD_MLINESTYLE
350
17
0
DICTIONARY
5
D
100
AcDbDictionary
0
DICTIONARY
5
1A
330
C
100
AcDbDictionary
0
DICTIONARY
5
17
100
AcDbDictionary
0
ENDSEC
0
EOF
