0
SECTION
2
HEADER
9
$INSUNITS
70
4
9
$ACADVER
1
AC1014
9
$HANDSEED
5
FFFF
0
ENDSEC
0
SECTION
2
TABLES
0
TABLE
2
VPORT
5
8
100
AcDbSymbolTable
0
ENDTAB
0
TABLE
2
LTYPE
5
5
100
AcDbSymbolTable
0
LTYPE
5
14
100
AcDbSymbolTableRecord
100
AcDbLinetypeTableRecord
2
BYBLOCK
70
0
0
LTYPE
5
15
100
AcDbSymbolTableRecord
100
AcDbLinetypeTableRecord
2
BYLAYER
70
0
0
LTYPE
5
16
100
AcDbSymbolTableRecord
100
AcDbLinetypeTableRecord
2
DASHED
70
0
3
Dashed __ __ __ __ __ __ __ __ __ __ __ __ __ _
72
65
73
2
40
0.75
49
0.5
74
0
49
-0.25
74
0
0
ENDTAB
0
TABLE
2
LAYER
5
2
100
AcDbSymbolTable
70
2
0
LAYER
5
50
100
AcDbSymbolTableRecord
100
AcDbLayerTableRecord
2
0
70
0
62
7
6
CONTINUOUS
0
ENDTAB
0
TABLE
2
STYLE
5
3
100
AcDbSymbolTable
70
1
0
STYLE
5
11
100
AcDbSymbolTableRecord
100
AcDbTextStyleTableRecord
2
STANDARD
70
0
0
ENDTAB
0
TABLE
2
VIEW
5
6
100
AcDbSymbolTable
70
0
0
ENDTAB
0
TABLE
2
UCS
5
7
100
AcDbSymbolTable
70
0
0
ENDTAB
0
TABLE
2
APPID
5
9
100
AcDbSymbolTable
70
2
0
APPID
5
12
100
AcDbSymbolTableRecord
100
AcDbRegAppTableRecord
2
ACAD
70
0
0
ENDTAB
0
TABLE
2
DIMSTYLE
5
A
100
AcDbSymbolTable
70
1
0
ENDTAB
0
TABLE
2
BLOCK_RECORD
5
1
100
AcDbSymbolTable
70
1
0
BLOCK_RECORD
5
1F
100
AcDbSymbolTableRecord
100
AcDbBlockTableRecord
2
*MODEL_SPACE
0
BLOCK_RECORD
5
1B
100
AcDbSymbolTableRecord
100
AcDbBlockTableRecord
2
*PAPER_SPACE
0
ENDTAB
0
ENDSEC
0
SECTION
2
BLOCKS
0
BLOCK
5
20
100
AcDbEntity
100
AcDbBlockBegin
2
*MODEL_SPACE
0
ENDBLK
5
21
100
AcDbEntity
100
AcDbBlockEnd
0
BLOCK
5
1C
100
AcDbEntity
100
AcDbBlockBegin
2
*PAPER_SPACE
0
ENDBLK
5
1D
100
AcDbEntity
100
AcDbBlockEnd
0
ENDSEC
0
SECTION
2
ENTITIES
0
LWPOLYLINE
5
100
100
AcDbEntity
8
0
100
AcDbPolyline
90
8
70
1
43
0.0
10
-85.08124999999977
20
-18.876767621578317
42
0.41421356237309503
10
-85.58124999999977
20
-19.376767621578317
10
-85.581249999999756
20
-32.376767621578317
42
0.41421356237309503
10
-85.08124999999977
20
-32.87676762157831
10
-72.081249999999756
20
-32.876767621578317
42
0.41421356237309503
10
-71.581249999999756
20
-32.376767621578317
10
-71.581249999999756
20
-19.376767621578317
42
0.41421356237309503
10
-72.081249999999756
20
-18.876767621578317
0
LWPOLYLINE
5
101
100
AcDbEntity
8
0
100
AcDbPolyline
90
8
70
1
43
0.0
10
-61.26874999999977
20
-18.87676762157832
42
0.41421356237309503
10
-61.76874999999977
20
-19.37676762157832
10
-61.76874999999977
20
-32.376767621578324
42
0.41421356237309503
10
-61.26874999999977
20
-32.876767621578324
10
-48.268749999999763
20
-32.876767621578324
42
0.41421356237309503
10
-47.768749999999763
20
-32.376767621578324
10
-47.768749999999763
20
-19.37676762157832
42
0.41421356237309503
10
-48.268749999999763
20
-18.87676762157832
0
LWPOLYLINE
5
102
100
AcDbEntity
8
0
100
AcDbPolyline
90
40
70
1
43
0.0
10
-90.087499999999707
20
-33.001767621578153
10
-90.087499999999764
20
-17.951767621578178
42
0.4142135623730957
10
-92.087499999999721
20
-15.951767621578181
10
-111.89999999999969
20
-15.951767621578167
42
-0.41421356237309825
10
-113.89999999999965
20
-13.951767621578188
10
-113.89999999999971
20
0.29823237842176542
42
-0.41421356237309986
10
-111.89999999999969
20
2.2982323784217682
10
-111.13749999999969
20
2.2982323784217726
42
0.41421356237309592
10
-109.1374999999997
20
4.29823237842177
10
-109.1374999999997
20
19.348232378421727
42
-0.41421356237309959
10
-107.13749999999969
20
21.348232378421734
10
-106.37499999999973
20
21.348232378421752
42
0.41421356237310997
10
-104.37499999999972
20
23.348232378421731
10
-104.37499999999972
20
38.398232378421739
42
-0.41421356237309309
10
-102.37499999999974
20
40.398232378421739
10
102.3749999999997
20
40.398232378421753
42
-0.41421356237310608
10
104.37499999999972
20
38.398232378421774
10
104.37499999999972
20
23.348232378421841
42
0.41421356237309631
10
106.37499999999972
20
21.348232378421841
10
107.13749999999969
20
21.348232378421823
42
-0.41421356237309598
10
109.13749999999966
20
19.348232378421841
10
109.13749999999968
20
4.2982323784218668
42
0.41421356237310203
10
111.13749999999968
20
2.2982323784218615
10
111.89999999999971
20
2.2982323784218601
42
-0.41421356237310347
10
113.89999999999972
20
0.29823237842186284
10
113.89999999999971
20
-13.951767621578089
42
-0.41421356237308982
10
111.89999999999971
20
-15.951767621578089
10
92.087499999999721
20
-15.951767621578099
42
0.41421356237309209
10
90.087499999999707
20
-17.951767621578092
10
90.087499999999778
20
-33.001767621578047
42
-0.41421356237309959
10
88.087499999999736
20
-35.001767621578054
10
11.124999999999998
20
-35.001767621578061
42
0.41421356237309664
10
9.1249999999999893
20
-37.001767621578068
10
9.1249999999999964
20
-37.764267621578078
42
-0.41421356237309598
10
7.1249999999999964
20
-39.764267621578071
10
-7.1249999999999432
20
-39.764267621578078
42
-0.41421356237309748
10
-9.1249999999999432
20
-37.764267621578071
10
-9.1249999999999449
20
-37.001767621578153
42
0.4142135623730937
10
-11.124999999999945
20
-35.001767621578153
10
-88.08749999999975
20
-35.001767621578132
42
-0.41421356237309825
0
LWPOLYLINE
5
103
100
AcDbEntity
8
0
100
AcDbPolyline
90
8
70
1
43
0.0
10
-44.599999999999802
20
-32.876767621578324
10
-16.049999999996018
20
-32.876767621578324
42
0.41421356237309503
10
-15.549999999996018
20
-32.376767621578331
10
-15.54999999999607
20
-19.376767621578299
42
0.4142135623730937
10
-16.049999999996068
20
-18.876767621578303
10
-44.599999999999859
20
-18.87676762157832
42
0.4142135623730937
10
-45.099999999999866
20
-19.376767621578299
10
-45.099999999999795
20
-32.376767621578331
42
0.41421356237310281
0
LWPOLYLINE
5
104
100
AcDbEntity
8
0
100
AcDbPolyline
90
8
70
1
43
0.0
10
85.081250000000225
20
-32.876767621578317
42
0.41421356237309503
10
85.581250000000239
20
-32.376767621578317
10
85.58125000000021
20
-19.37676762157832
42
0.41421356237309503
10
85.081250000000225
20
-18.87676762157832
10
72.081250000000225
20
-18.87676762157832
42
0.41421356237309503
10
71.581250000000225
20
-19.37676762157832
10
71.581250000000225
20
-32.376767621578324
42
0.41421356237309503
10
72.081250000000225
20
-32.876767621578324
0
LWPOLYLINE
5
105
100
AcDbEntity
8
0
100
AcDbPolyline
90
8
70
1
43
0.0
10
16.050000000003777
20
-32.876767621578317
10
44.599999999999788
20
-32.876767621578317
42
0.41421356237309503
10
45.099999999999781
20
-32.376767621578331
10
45.099999999999739
20
-19.376767621578306
42
0.41421356237308721
10
44.59999999999976
20
-18.876767621578313
10
16.049999999998683
20
-18.876767621578317
42
0.41421356237320561
10
15.549999999998679
20
-19.376767621578498
10
15.550000000003777
20
-32.376767621578523
42
0.41421356237298579
0
LWPOLYLINE
5
106
100
AcDbEntity
8
0
100
AcDbPolyline
90
8
70
1
43
0.0
10
7.0000000000000266
20
-37.139267621578064
10
7.0000000000000266
20
-24.139267621578067
42
0.41421356237309503
10
6.5000000000000258
20
-23.639267621578064
10
-6.4999999999999725
20
-23.639267621578064
42
0.4142135623730957
10
-6.9999999999999742
20
-24.139267621578067
10
-6.9999999999999734
20
-37.139267621578071
42
0.41421356237309503
10
-6.4999999999999725
20
-37.639267621578071
10
6.5000000000000258
20
-37.639267621578064
42
0.41421356237309503
0
CIRCLE
5
107
100
AcDbEntity
8
0
100
AcDbCircle
10
-85.725010000000296
20
38.41698237842175
30
0
40
1.1499999999999999
210
0
220
-0
230
1
0
CIRCLE
5
108
100
AcDbEntity
8
0
100
AcDbCircle
10
-95.250000000000426
20
-13.970517621578292
30
0
40
1.1499999999999999
210
0
220
-0
230
1
0
CIRCLE
5
109
100
AcDbEntity
8
0
100
AcDbCircle
10
85.724999999999923
20
38.416982378421764
30
0
40
1.1499999999999999
210
0
220
-0
230
1
0
CIRCLE
5
110
100
AcDbEntity
8
0
100
AcDbCircle
10
95.249999999999844
20
-13.970517621578278
30
0
40
1.1499999999999999
210
0
220
-0
230
1
0
LWPOLYLINE
5
111
100
AcDbEntity
8
0
100
AcDbPolyline
90
8
70
1
43
0.0
10
35.07499999999991
20
-13.826767621578146
42
0.41421356237309503
10
35.57499999999991
20
-13.326767621578146
10
35.57499999999991
20
-0.32676762157814565
42
0.41421356237309503
10
35.07499999999991
20
0.17323237842185479
10
22.07499999999991
20
0.17323237842185479
42
0.41421356237309503
10
21.57499999999991
20
-0.32676762157814565
10
21.574999999999914
20
-13.326767621578146
42
0.41421356237309503
10
22.07499999999991
20
-13.826767621578146
0
LWPOLYLINE
5
112
100
AcDbEntity
8
0
100
AcDbPolyline
90
8
70
1
43
0.0
10
54.124999999999908
20
0.17323237842185923
10
41.124999999999915
20
0.17323237842185923
42
0.41421356237309503
10
40.624999999999922
20
-0.32676762157814121
10
40.624999999999915
20
-13.326767621578142
42
0.41421356237309503
10
41.124999999999915
20
-13.826767621578142
10
54.124999999999908
20
-13.826767621578142
42
0.41421356237309503
10
54.624999999999908
20
-13.326767621578142
10
54.624999999999915
20
-0.32676762157814121
42
0.41421356237309503
0
LWPOLYLINE
5
113
100
AcDbEntity
8
0
100
AcDbPolyline
90
8
70
1
43
0.0
10
78.724999999999909
20
-13.326767621578135
42
0.41421356237309503
10
79.224999999999909
20
-13.826767621578135
10
92.224999999999909
20
-13.826767621578135
42
0.41421356237309503
10
92.724999999999923
20
-13.326767621578135
10
92.724999999999923
20
-0.32676762157813455
42
0.41421356237309503
10
92.224999999999909
20
0.1732323784218659
10
79.224999999999909
20
0.1732323784218659
42
0.41421356237309503
10
78.724999999999909
20
-0.32676762157813455
0
LWPOLYLINE
5
114
100
AcDbEntity
8
0
100
AcDbPolyline
90
8
70
1
43
0.0
10
97.774999999999906
20
-13.326767621578131
42
0.41421356237309503
10
98.27499999999992
20
-13.826767621578131
10
111.27499999999992
20
-13.826767621578131
42
0.41421356237309503
10
111.77499999999993
20
-13.326767621578131
10
111.77499999999992
20
-0.32676762157813011
42
0.41421356237307422
10
111.27499999999992
20
0.173232378421877
10
98.27499999999992
20
0.17323237842187034
42
0.41421356237309503
10
97.774999999999906
20
-0.32676762157813011
0
LWPOLYLINE
5
115
100
AcDbEntity
8
0
100
AcDbPolyline
90
8
70
1
43
0.0
10
50.650000000000261
20
38.273232378421739
42
0.41421356237309503
10
50.150000000000261
20
37.773232378421746
10
50.150000000000276
20
24.773232378421742
42
0.41421356237309503
10
50.650000000000261
20
24.273232378421742
10
63.650000000000269
20
24.273232378421742
42
0.41421356237309503
10
64.150000000000261
20
24.773232378421742
10
64.150000000000276
20
37.773232378421746
42
0.41421356237309503
10
63.650000000000269
20
38.273232378421739
0
LWPOLYLINE
5
116
100
AcDbEntity
8
0
100
AcDbPolyline
90
8
70
1
43
0.0
10
44.600000000000257
20
38.273232378421739
10
31.60000000000025
20
38.273232378421731
42
0.41421356237309503
10
31.10000000000025
20
37.773232378421739
10
31.100000000000261
20
24.773232378421739
42
0.41421356237309503
10
31.60000000000025
20
24.273232378421739
10
44.600000000000257
20
24.273232378421739
42
0.41421356237309503
10
45.100000000000257
20
24.773232378421739
10
45.10000000000025
20
37.773232378421739
42
0.41421356237309503
0
LWPOLYLINE
5
117
100
AcDbEntity
8
0
100
AcDbPolyline
90
8
70
1
43
0.0
10
88.750000000000284
20
24.273232378421753
10
101.75000000000028
20
24.273232378421753
42
0.41421356237309503
10
102.2500000000003
20
24.773232378421749
10
102.2500000000003
20
37.773232378421753
42
0.41421356237309503
10
101.75000000000028
20
38.273232378421753
10
88.750000000000284
20
38.273232378421753
42
0.41421356237309503
10
88.250000000000284
20
37.773232378421753
10
88.250000000000284
20
24.773232378421749
42
0.41421356237309503
0
LWPOLYLINE
5
118
100
AcDbEntity
8
0
100
AcDbPolyline
90
8
70
1
43
0.0
10
-6.5000000000000089
20
38.27323237842176
42
0.41421356237309503
10
-7.0000000000000098
20
37.77323237842176
10
-7.0000000000000089
20
24.773232378421753
42
0.41421356237309503
10
-6.5000000000000089
20
24.273232378421756
10
6.4999999999999893
20
24.273232378421756
42
0.4142135623730957
10
6.9999999999999911
20
24.773232378421753
10
6.9999999999999911
20
37.77323237842176
42
0.41421356237309503
10
6.4999999999999902
20
38.27323237842176
0
LWPOLYLINE
5
119
100
AcDbEntity
8
0
100
AcDbPolyline
90
8
70
1
43
0.0
10
-31.099999999999753
20
37.773232378421717
42
0.41421356237309503
10
-31.599999999999753
20
38.273232378421717
10
-44.599999999999753
20
38.273232378421717
42
0.41421356237309503
10
-45.099999999999753
20
37.773232378421717
10
-45.099999999999753
20
24.773232378421717
42
0.41421356237309503
10
-44.599999999999753
20
24.273232378421721
10
-31.599999999999753
20
24.273232378421717
42
0.41421356237309503
10
-31.099999999999753
20
24.773232378421717
0
LWPOLYLINE
5
120
100
AcDbEntity
8
0
100
AcDbPolyline
90
8
70
1
43
0.0
10
87.962499999999935
20
5.7232323784218151
10
87.962499999999935
20
18.723232378421812
42
0.41421356237309631
10
87.46249999999992
20
19.223232378421816
10
74.462499999999935
20
19.223232378421816
42
0.41421356237309503
10
73.962499999999935
20
18.723232378421816
10
73.962499999999935
20
5.723232378421816
42
0.41421356237309503
10
74.462499999999935
20
5.223232378421816
10
87.46249999999992
20
5.2232323784218151
42
0.41421356237309503
0
LWPOLYLINE
5
121
100
AcDbEntity
8
0
100
AcDbPolyline
90
8
70
1
43
0.0
10
54.91249999999993
20
18.723232378421812
10
54.91249999999993
20
5.7232323784218142
42
0.4142135623730957
10
55.412499999999923
20
5.2232323784218142
10
68.412499999999937
20
5.2232323784218124
42
0.41421356237309503
10
68.912499999999937
20
5.7232323784218124
10
68.912499999999937
20
18.723232378421809
42
0.41421356237309503
10
68.412499999999937
20
19.223232378421812
10
55.412499999999923
20
19.223232378421812
42
0.41421356237309503
0
LWPOLYLINE
5
122
100
AcDbEntity
8
0
100
AcDbPolyline
90
8
70
1
43
0.0
10
12.550000000000257
20
24.273232378421735
10
25.550000000000264
20
24.273232378421735
42
0.41421356237309503
10
26.05000000000026
20
24.773232378421731
10
26.050000000000253
20
37.773232378421739
42
0.41421356237309503
10
25.550000000000264
20
38.273232378421731
10
12.550000000000257
20
38.273232378421731
42
0.41421356237309503
10
12.050000000000257
20
37.773232378421739
10
12.050000000000267
20
24.773232378421731
42
0.41421356237309503
0
LWPOLYLINE
5
123
100
AcDbEntity
8
0
100
AcDbPolyline
90
8
70
1
43
0.0
10
-41.124999999999673
20
0.17323237842181705
10
-54.124999999999666
20
0.17323237842181705
42
0.41421356237309503
10
-54.624999999999666
20
-0.3267676215781834
10
-54.624999999999666
20
-13.326767621578185
42
0.41421356237309503
10
-54.124999999999666
20
-13.826767621578185
10
-41.124999999999673
20
-13.826767621578185
42
0.41421356237309503
10
-40.624999999999673
20
-13.326767621578185
10
-40.624999999999659
20
-0.3267676215781834
42
0.41421356237309503
0
LWPOLYLINE
5
124
100
AcDbEntity
8
0
100
AcDbPolyline
90
8
70
1
43
0.0
10
82.700000000000273
20
38.273232378421753
10
69.700000000000273
20
38.273232378421739
42
0.41421356237309503
10
69.200000000000273
20
37.773232378421746
10
69.200000000000273
20
24.773232378421746
42
0.41421356237309503
10
69.700000000000273
20
24.273232378421746
10
82.700000000000273
20
24.273232378421746
42
0.41421356237309503
10
83.200000000000287
20
24.773232378421746
10
83.200000000000287
20
37.773232378421746
42
0.41421356237309503
0
LWPOLYLINE
5
125
100
AcDbEntity
8
0
100
AcDbPolyline
90
8
70
1
43
0.0
10
-30.812499999999694
20
18.723232378421784
10
-30.812499999999694
20
5.7232323784217831
42
0.41421356237309437
10
-30.312499999999698
20
5.2232323784217849
10
-17.312499999999691
20
5.2232323784217849
42
0.41421356237309503
10
-16.812499999999691
20
5.7232323784217858
10
-16.812499999999702
20
18.723232378421784
42
0.41421356237309503
10
-17.312499999999691
20
19.223232378421788
10
-30.312499999999698
20
19.223232378421788
42
0.41421356237309503
0
LWPOLYLINE
5
126
100
AcDbEntity
8
0
100
AcDbPolyline
90
8
70
1
43
0.0
10
-102.24999999999977
20
24.773232378421703
42
0.41421356237309503
10
-101.74999999999976
20
24.273232378421703
10
-88.749999999999744
20
24.273232378421707
42
0.41421356237309503
10
-88.249999999999744
20
24.773232378421707
10
-88.249999999999744
20
37.773232378421703
42
0.41421356237309503
10
-88.749999999999744
20
38.27323237842171
10
-101.74999999999976
20
38.27323237842171
42
0.41421356237309503
10
-102.24999999999977
20
37.773232378421703
0
LWPOLYLINE
5
127
100
AcDbEntity
8
0
100
AcDbPolyline
90
8
70
1
43
0.0
10
-92.224999999999667
20
-13.826767621578192
10
-79.224999999999682
20
-13.826767621578192
42
0.41421356237309503
10
-78.724999999999682
20
-13.32676762157819
10
-78.724999999999667
20
-0.32676762157819006
42
0.41421356237309503
10
-79.224999999999682
20
0.17323237842181038
10
-92.224999999999667
20
0.17323237842181038
42
0.41421356237309503
10
-92.724999999999667
20
-0.32676762157819006
10
-92.724999999999667
20
-13.32676762157819
42
0.41421356237309503
0
LWPOLYLINE
5
128
100
AcDbEntity
8
0
100
AcDbPolyline
90
8
70
1
43
0.0
10
60.174999999999912
20
-13.82676762157814
10
73.174999999999926
20
-13.826767621578139
42
0.41421356237309503
10
73.674999999999912
20
-13.326767621578139
10
73.674999999999912
20
-0.32676762157813899
42
0.41421356237309503
10
73.174999999999926
20
0.17323237842186145
10
60.174999999999912
20
0.17323237842186145
42
0.41421356237309503
10
59.674999999999912
20
-0.32676762157813899
10
59.674999999999912
20
-13.326767621578139
42
0.41421356237309503
0
LWPOLYLINE
5
129
100
AcDbEntity
8
0
100
AcDbPolyline
90
8
70
1
43
0.0
10
-74.462499999999707
20
5.2232323784217716
42
0.41421356237309503
10
-73.962499999999707
20
5.7232323784217716
10
-73.962499999999693
20
18.723232378421773
42
0.41421356237309503
10
-74.462499999999707
20
19.223232378421773
10
-87.462499999999693
20
19.223232378421773
42
0.41421356237307549
10
-87.962499999999693
20
18.723232378421773
10
-87.962499999999707
20
5.7232323784217716
42
0.41421356237309503
10
-87.462499999999693
20
5.2232323784217716
0
LWPOLYLINE
5
130
100
AcDbEntity
8
0
100
AcDbPolyline
90
8
70
1
43
0.0
10
-35.862499999999706
20
5.7232323784217805
10
-35.862499999999699
20
18.72323237842178
42
0.41421356237309503
10
-36.362499999999699
20
19.22323237842178
10
-49.362499999999699
20
19.22323237842178
42
0.41421356237309503
10
-49.862499999999699
20
18.72323237842178
10
-49.862499999999699
20
5.7232323784217787
42
0.41421356237309437
10
-49.362499999999699
20
5.2232323784217805
10
-36.362499999999699
20
5.2232323784217805
42
0.41421356237309503
0
LWPOLYLINE
5
131
100
AcDbEntity
8
0
100
AcDbPolyline
90
8
70
1
43
0.0
10
93.012499999999932
20
18.72323237842182
10
93.012499999999932
20
5.7232323784218213
42
0.4142135623730957
10
93.512499999999932
20
5.2232323784218204
10
106.51249999999993
20
5.2232323784218178
42
0.41421356237309503
10
107.01249999999995
20
5.7232323784218186
10
107.01249999999993
20
18.72323237842182
42
0.41421356237309503
10
106.51249999999993
20
19.22323237842182
10
93.512499999999932
20
19.22323237842182
42
0.41421356237309503
0
LWPOLYLINE
5
132
100
AcDbEntity
8
0
100
AcDbPolyline
90
8
70
1
43
0.0
10
-93.512499999999704
20
5.2232323784217671
42
0.41421356237309503
10
-93.01249999999969
20
5.723232378421768
10
-93.01249999999969
20
18.72323237842177
42
0.41421356237309503
10
-93.512499999999704
20
19.22323237842177
10
-106.5124999999997
20
19.22323237842177
42
0.41421356237307549
10
-107.0124999999997
20
18.72323237842177
10
-107.01249999999972
20
5.723232378421768
42
0.41421356237309503
10
-106.5124999999997
20
5.2232323784217671
0
LWPOLYLINE
5
133
100
AcDbEntity
8
0
100
AcDbPolyline
90
8
70
1
43
0.0
10
16.812499999999925
20
18.723232378421805
10
16.812499999999925
20
5.7232323784218071
42
0.4142135623730957
10
17.312499999999925
20
5.2232323784218071
10
30.312499999999925
20
5.2232323784218062
42
0.41421356237309503
10
30.812499999999922
20
5.7232323784218062
10
30.812499999999929
20
18.723232378421805
42
0.41421356237309631
10
30.312499999999925
20
19.223232378421805
10
17.312499999999925
20
19.223232378421805
42
0.41421356237309503
0
LWPOLYLINE
5
134
100
AcDbEntity
8
0
100
AcDbPolyline
90
8
70
1
43
0.0
10
-50.64999999999975
20
24.273232378421717
42
0.41421356237309503
10
-50.14999999999975
20
24.773232378421714
10
-50.14999999999975
20
37.77323237842171
42
0.41421356237309503
10
-50.64999999999975
20
38.273232378421717
10
-63.64999999999975
20
38.273232378421717
42
0.41421356237309503
10
-64.14999999999975
20
37.77323237842171
10
-64.14999999999975
20
24.773232378421714
42
0.41421356237309503
10
-63.64999999999975
20
24.273232378421717
0
LWPOLYLINE
5
135
100
AcDbEntity
8
0
100
AcDbPolyline
90
8
70
1
43
0.0
10
-12.549999999999741
20
38.273232378421724
10
-25.549999999999748
20
38.273232378421724
42
0.41421356237309503
10
-26.049999999999748
20
37.773232378421724
10
-26.049999999999748
20
24.773232378421724
42
0.41421356237309503
10
-25.549999999999748
20
24.273232378421724
10
-12.549999999999741
20
24.273232378421721
42
0.41421356237309503
10
-12.049999999999741
20
24.773232378421724
10
-12.049999999999752
20
37.773232378421724
42
0.41421356237309503
0
LWPOLYLINE
5
136
100
AcDbEntity
8
0
100
AcDbPolyline
90
8
70
1
43
0.0
10
-55.412499999999696
20
5.223232378421776
42
0.41421356237309503
10
-54.912499999999696
20
5.7232323784217769
10
-54.912499999999696
20
18.723232378421777
42
0.41421356237309503
10
-55.412499999999696
20
19.223232378421777
10
-68.41249999999971
20
19.223232378421777
42
0.41421356237309503
10
-68.912499999999696
20
18.723232378421773
10
-68.912499999999696
20
5.7232323784217769
42
0.41421356237309503
10
-68.41249999999971
20
5.223232378421776
0
LWPOLYLINE
5
137
100
AcDbEntity
8
0
100
AcDbPolyline
90
8
70
1
43
0.0
10
-35.074999999999662
20
0.17323237842182149
42
0.41421356237309503
10
-35.574999999999662
20
-0.32676762157817896
10
-35.574999999999662
20
-13.326767621578179
42
0.41421356237309503
10
-35.074999999999662
20
-13.826767621578179
10
-22.074999999999658
20
-13.826767621578179
42
0.41421356237309503
10
-21.574999999999662
20
-13.326767621578179
10
-21.574999999999669
20
-0.32676762157817896
42
0.41421356237309503
10
-22.074999999999658
20
0.17323237842182149
0
LWPOLYLINE
5
138
100
AcDbEntity
8
0
100
AcDbPolyline
90
8
70
1
43
0.0
10
35.862499999999926
20
18.723232378421809
10
35.862499999999926
20
5.7232323784218098
42
0.41421356237309503
10
36.362499999999926
20
5.2232323784218089
10
49.362499999999926
20
5.2232323784218089
42
0.41421356237309503
10
49.862499999999919
20
5.7232323784218098
10
49.862499999999926
20
18.723232378421809
42
0.41421356237309503
10
49.362499999999926
20
19.223232378421812
10
36.362499999999926
20
19.223232378421812
42
0.41421356237309503
0
LWPOLYLINE
5
139
100
AcDbEntity
8
0
100
AcDbPolyline
90
8
70
1
43
0.0
10
-97.774999999999665
20
-0.32676762157819456
42
0.41421356237309509
10
-98.274999999999665
20
0.17323237842180594
10
-111.27499999999968
20
0.17323237842180594
42
0.41421356237309503
10
-111.77499999999968
20
-0.3267676215781945
10
-111.77499999999968
20
-13.326767621578195
42
0.41421356237309503
10
-111.27499999999968
20
-13.826767621578195
10
-98.274999999999665
20
-13.826767621578195
42
0.41421356237309503
10
-97.774999999999665
20
-13.326767621578195
0
LWPOLYLINE
5
140
100
AcDbEntity
8
0
100
AcDbPolyline
90
8
70
1
43
0.0
10
-73.17499999999967
20
-13.826767621578188
10
-60.174999999999663
20
-13.826767621578187
42
0.41421356237309503
10
-59.674999999999663
20
-13.326767621578188
10
-59.674999999999663
20
-0.32676762157818784
42
0.41421356237309503
10
-60.174999999999663
20
0.17323237842181261
10
-73.17499999999967
20
0.17323237842181261
42
0.41421356237309503
10
-73.67499999999967
20
-0.32676762157818784
10
-73.67499999999967
20
-13.326767621578188
42
0.41421356237309503
0
LWPOLYLINE
5
141
100
AcDbEntity
8
0
100
AcDbPolyline
90
8
70
1
43
0.0
10
-69.199999999999761
20
37.77323237842171
42
0.41421356237309503
10
-69.699999999999761
20
38.27323237842171
10
-82.699999999999747
20
38.27323237842171
42
0.41421356237309503
10
-83.199999999999761
20
37.77323237842171
10
-83.199999999999761
20
24.77323237842171
42
0.41421356237309503
10
-82.699999999999747
20
24.27323237842171
10
-69.699999999999761
20
24.273232378421707
42
0.41421356237309503
10
-69.199999999999761
20
24.77323237842171
0
LWPOLYLINE
5
142
100
AcDbEntity
8
0
100
AcDbPolyline
90
8
70
1
43
0.0
10
61.268750000000253
20
-18.87676762157831
10
48.268750000000253
20
-18.876767621578306
42
0.41421356237309503
10
47.768750000000253
20
-19.37676762157831
10
47.768750000000246
20
-32.37676762157831
42
0.41421356237309503
10
48.268750000000239
20
-32.876767621578303
10
61.268750000000253
20
-32.87676762157831
42
0.41421356237309503
10
61.768750000000246
20
-32.37676762157831
10
61.768750000000246
20
-19.37676762157831
42
0.41421356237309503
0
LWPOLYLINE
5
143
100
AcDbEntity
8
0
100
AcDbPolyline
90
24
70
1
43
0.0
10
-17.074999999999989
20
-15.576767621578107
10
-11.936999999999919
20
-15.576767621578107
42
-0.4142135623730947
10
-9.9369999999999177
20
-17.57676762157811
10
-9.9369999999999141
20
-19.139267621578092
42
0.4142135623730962
10
-7.9369999999999141
20
-21.139267621578096
10
7.9369999999999328
20
-21.139267621578096
42
0.41421356237309176
10
9.9369999999999319
20
-19.139267621578085
10
9.9369999999999337
20
-17.576767621578117
42
-0.41421356237309437
10
11.936999999999943
20
-15.576767621578117
10
17.074999999999953
20
-15.576767621578135
42
0.41421356237309764
10
19.07499999999996
20
-13.576767621578135
10
19.07499999999995
20
1.0982323784217907
42
0.41421356237309648
10
17.074999999999942
20
3.0982323784217907
10
16.68749999999994
20
3.0982323784217924
42
-0.41421356237309598
10
14.687499999999929
20
5.0982323784217876
10
14.687499999999929
20
20.148232378421767
42
0.4142135623730947
10
12.687499999999929
20
22.14823237842176
10
-12.687499999999952
20
22.14823237842176
42
0.41421356237309731
10
-14.68749999999995
20
20.148232378421767
10
-14.687499999999947
20
5.0982323784218142
42
-0.41421356237309687
10
-16.68749999999995
20
3.098232378421808
10
-17.074999999999992
20
3.0982323784218089
42
0.41421356237309576
10
-19.074999999999992
20
1.0982323784218035
10
-19.074999999999985
20
-13.576767621578107
42
0.41421356237309342
0
ENDSEC
0
SECTION
2
OBJECTS
0
DICTIONARY
5
C
100
AcDbDictionary
3
ACAD_GROUP
350
D
3
ACAD_MLINESTYLE
350
17
0
DICTIONARY
5
D
100
AcDbDictionary
0
DICTIONARY
5
1A
330
C
100
AcDbDictionary
0
DICTIONARY
5
17
100
AcDbDictionary
0
ENDSEC
0
EOF
