0
SECTION
2
HEADER
9
$INSUNITS
70
4
9
$ACADVER
1
AC1014
9
$HANDSEED
5
FFFF
0
ENDSEC
0
SECTION
2
TABLES
0
TABLE
2
VPORT
5
8
100
AcDbSymbolTable
0
ENDTAB
0
TABLE
2
LTYPE
5
5
100
AcDbSymbolTable
0
LTYPE
5
14
100
AcDbSymbolTableRecord
100
AcDbLinetypeTableRecord
2
BYBLOCK
70
0
0
LTYPE
5
15
100
AcDbSymbolTableRecord
100
AcDbLinetypeTableRecord
2
BYLAYER
70
0
0
LTYPE
5
16
100
AcDbSymbolTableRecord
100
AcDbLinetypeTableRecord
2
DASHED
70
0
3
Dashed __ __ __ __ __ __ __ __ __ __ __ __ __ _
72
65
73
2
40
0.75
49
0.5
74
0
49
-0.25
74
0
0
ENDTAB
0
TABLE
2
LAYER
5
2
100
AcDbSymbolTable
70
2
0
LAYER
5
50
100
AcDbSymbolTableRecord
100
AcDbLayerTableRecord
2
0
70
0
62
7
6
CONTINUOUS
0
ENDTAB
0
TABLE
2
STYLE
5
3
100
AcDbSymbolTable
70
1
0
STYLE
5
11
100
AcDbSymbolTableRecord
100
AcDbTextStyleTableRecord
2
STANDARD
70
0
0
ENDTAB
0
TABLE
2
VIEW
5
6
100
AcDbSymbolTable
70
0
0
ENDTAB
0
TABLE
2
UCS
5
7
100
AcDbSymbolTable
70
0
0
ENDTAB
0
TABLE
2
APPID
5
9
100
AcDbSymbolTable
70
2
0
APPID
5
12
100
AcDbSymbolTableRecord
100
AcDbRegAppTableRecord
2
ACAD
70
0
0
ENDTAB
0
TABLE
2
DIMSTYLE
5
A
100
AcDbSymbolTable
70
1
0
ENDTAB
0
TABLE
2
BLOCK_RECORD
5
1
100
AcDbSymbolTable
70
1
0
BLOCK_RECORD
5
1F
100
AcDbSymbolTableRecord
100
AcDbBlockTableRecord
2
*MODEL_SPACE
0
BLOCK_RECORD
5
1B
100
AcDbSymbolTableRecord
100
AcDbBlockTableRecord
2
*PAPER_SPACE
0
ENDTAB
0
ENDSEC
0
SECTION
2
BLOCKS
0
BLOCK
5
20
100
AcDbEntity
100
AcDbBlockBegin
2
*MODEL_SPACE
0
ENDBLK
5
21
100
AcDbEntity
100
AcDbBlockEnd
0
BLOCK
5
1C
100
AcDbEntity
100
AcDbBlockBegin
2
*PAPER_SPACE
0
ENDBLK
5
1D
100
AcDbEntity
100
AcDbBlockEnd
0
ENDSEC
0
SECTION
2
ENTITIES
0
LWPOLYLINE
5
100
100
AcDbEntity
8
0
100
AcDbPolyline
90
8
70
1
43
0.0
10
32.69375000000025
20
32.87676762157831
42
-0.41421356237309503
10
33.19375000000025
20
32.376767621578324
10
33.19375000000025
20
19.37676762157832
42
-0.41421356237308721
10
32.69375000000025
20
18.876767621578324
10
19.693750000000247
20
18.876767621578317
42
-0.41421356237308854
10
19.193750000000247
20
19.37676762157832
10
19.19375000000025
20
32.376767621578324
42
-0.41421356237309764
10
19.693750000000247
20
32.87676762157831
0
LWPOLYLINE
5
101
100
AcDbEntity
8
0
100
AcDbPolyline
90
8
70
1
43
0.0
10
-48.268749999999763
20
18.87676762157832
10
-61.26874999999977
20
18.87676762157832
42
-0.41421356237308204
10
-61.768749999999777
20
19.37676762157832
10
-61.76874999999977
20
32.376767621578324
42
-0.41421356237309764
10
-61.26874999999977
20
32.876767621578324
10
-48.268749999999763
20
32.876767621578324
42
-0.41421356237308982
10
-47.768749999999763
20
32.376767621578324
10
-47.768749999999763
20
19.37676762157832
42
-0.41421356237309631
0
LWPOLYLINE
5
102
100
AcDbEntity
8
0
100
AcDbPolyline
90
8
70
1
43
0.0
10
72.081250000000225
20
18.87676762157832
42
-0.41421356237309115
10
71.581250000000239
20
19.37676762157832
10
71.581250000000239
20
32.376767621578324
42
-0.41421356237309764
10
72.081250000000225
20
32.876767621578324
10
85.081250000000225
20
32.87676762157831
42
-0.41421356237307161
10
85.58125000000021
20
32.376767621578324
10
85.581250000000196
20
19.37676762157832
42
-0.41421356237307422
10
85.081250000000225
20
18.87676762157832
0
LWPOLYLINE
5
103
100
AcDbEntity
8
0
100
AcDbPolyline
90
8
70
1
43
0.0
10
61.268750000000253
20
32.87676762157831
42
-0.41421356237310281
10
61.768750000000239
20
32.37676762157831
10
61.768750000000246
20
19.37676762157831
42
-0.41421356237309631
10
61.268750000000253
20
18.87676762157831
10
48.268750000000253
20
18.876767621578306
42
-0.41421356237308332
10
47.768750000000246
20
19.37676762157831
10
47.768750000000246
20
32.37676762157831
42
-0.41421356237309243
10
48.268750000000239
20
32.876767621578303
0
LWPOLYLINE
5
104
100
AcDbEntity
8
0
100
AcDbPolyline
90
8
70
1
43
0.0
10
-32.693749999999746
20
32.876767621578324
10
-19.693749999999746
20
32.876767621578324
42
-0.41421356237309115
10
-19.193749999999749
20
32.376767621578324
10
-19.193749999999746
20
19.37676762157832
42
-0.4142135623730937
10
-19.693749999999746
20
18.87676762157832
10
-32.693749999999746
20
18.87676762157832
42
-0.41421356237309503
10
-33.193749999999746
20
19.37676762157832
10
-33.193749999999731
20
32.376767621578324
42
-0.41421356237309764
0
LWPOLYLINE
5
105
100
AcDbEntity
8
0
100
AcDbPolyline
90
8
70
1
43
0.0
10
-85.581249999999741
20
19.37676762157832
10
-85.581249999999741
20
32.376767621578324
42
-0.41421356237307944
10
-85.08124999999977
20
32.87676762157831
10
-72.081249999999727
20
32.876767621578324
42
-0.4142135623730846
10
-71.581249999999756
20
32.376767621578324
10
-71.581249999999756
20
19.37676762157832
42
-0.41421356237308854
10
-72.081249999999727
20
18.876767621578324
10
-85.08124999999977
20
18.876767621578324
42
-0.41421356237307161
0
LWPOLYLINE
5
106
100
AcDbEntity
8
0
100
AcDbPolyline
90
40
70
1
43
0.0
10
-11.124999999999943
20
35.001767621578153
10
-88.08749999999975
20
35.001767621578132
42
0.4142135623731022
10
-90.087499999999707
20
33.001767621578153
10
-90.087499999999764
20
17.951767621578178
42
-0.4142135623730957
10
-92.087499999999721
20
15.951767621578181
10
-111.89999999999969
20
15.951767621578171
42
0.41421356237310186
10
-113.89999999999966
20
13.951767621578188
10
-113.89999999999972
20
-0.29823237842176553
42
0.41421356237309798
10
-111.89999999999969
20
-2.298232378421778
10
-111.13749999999969
20
-2.2982323784217726
42
-0.41421356237309581
10
-109.1374999999997
20
-4.29823237842177
10
-109.1374999999997
20
-19.348232378421727
42
0.41421356237309959
10
-107.13749999999969
20
-21.348232378421734
10
-106.37499999999973
20
-21.348232378421756
42
-0.41421356237311063
10
-104.37499999999972
20
-23.348232378421731
10
-104.37499999999972
20
-38.398232378421739
42
0.41421356237308526
10
-102.37499999999977
20
-40.398232378421753
10
102.3749999999997
20
-40.398232378421753
42
0.41421356237310997
10
104.37499999999972
20
-38.398232378421774
10
104.37499999999972
20
-23.348232378421841
42
-0.41421356237309309
10
106.37499999999973
20
-21.348232378421848
10
107.13749999999969
20
-21.348232378421823
42
0.41421356237309404
10
109.13749999999966
20
-19.348232378421841
10
109.1374999999997
20
-4.2982323784218677
42
-0.41421356237309653
10
111.13749999999969
20
-2.298232378421865
10
111.89999999999971
20
-2.2982323784218601
42
0.41421356237311052
10
113.89999999999974
20
-0.29823237842186284
10
113.89999999999972
20
13.951767621578089
42
0.41421356237308982
10
111.89999999999971
20
15.951767621578099
10
92.087499999999721
20
15.951767621578101
42
-0.41421356237309798
10
90.087499999999665
20
17.951767621578092
10
90.087499999999793
20
33.001767621578047
42
0.41421356237310086
10
88.087499999999736
20
35.001767621578054
10
11.124999999999998
20
35.001767621578061
42
-0.41421356237309664
10
9.1249999999999893
20
37.001767621578068
10
9.1249999999999964
20
37.764267621578078
42
0.41421356237309503
10
7.1249999999999964
20
39.764267621578071
10
-7.1249999999999432
20
39.764267621578078
42
0.41421356237309503
10
-9.1249999999999432
20
37.764267621578078
10
-9.1249999999999449
20
37.001767621578153
42
-0.41421356237309243
0
CIRCLE
5
107
100
AcDbEntity
8
0
100
AcDbCircle
10
-85.725010000000296
20
-38.41698237842175
30
0
40
1.1499999999999999
210
0
220
0
230
1
0
CIRCLE
5
108
100
AcDbEntity
8
0
100
AcDbCircle
10
-95.250000000000426
20
13.970517621578294
30
0
40
1.1499999999999999
210
0
220
0
230
1
0
CIRCLE
5
109
100
AcDbEntity
8
0
100
AcDbCircle
10
85.724999999999923
20
-38.416982378421757
30
0
40
1.1499999999999999
210
0
220
0
230
1
0
CIRCLE
5
110
100
AcDbEntity
8
0
100
AcDbCircle
10
95.249999999999844
20
13.970517621578278
30
0
40
1.1499999999999999
210
0
220
0
230
1
0
LWPOLYLINE
5
111
100
AcDbEntity
8
0
100
AcDbPolyline
90
8
70
1
43
0.0
10
35.574999999999903
20
0.32676762157814565
10
35.574999999999903
20
13.326767621578146
42
0.41421356237309631
10
35.074999999999918
20
13.826767621578146
10
22.07499999999991
20
13.826767621578146
42
0.41421356237309243
10
21.574999999999918
20
13.326767621578146
10
21.574999999999914
20
0.32676762157814565
42
0.41421356237309587
10
22.07499999999991
20
-0.17323237842185402
10
35.074999999999918
20
-0.17323237842185479
42
0.41421356237309465
0
LWPOLYLINE
5
112
100
AcDbEntity
8
0
100
AcDbPolyline
90
8
70
1
43
0.0
10
54.124999999999908
20
13.826767621578142
42
-0.41421356237310802
10
54.624999999999915
20
13.326767621578144
10
54.624999999999915
20
0.32676762157814132
42
-0.41421356237308266
10
54.124999999999908
20
-0.17323237842186234
10
41.124999999999929
20
-0.17323237842186007
42
-0.4142135623731048
10
40.624999999999929
20
0.32676762157814121
10
40.624999999999922
20
13.326767621578144
42
-0.41421356237308721
10
41.124999999999929
20
13.826767621578142
0
LWPOLYLINE
5
113
100
AcDbEntity
8
0
100
AcDbPolyline
90
8
70
1
43
0.0
10
78.724999999999923
20
13.326767621578135
10
78.724999999999923
20
0.32676762157813455
42
0.41421356237309631
10
79.224999999999923
20
-0.1732323784218659
10
92.224999999999937
20
-0.1732323784218659
42
0.41421356237304185
10
92.724999999999923
20
0.32676762157813449
10
92.724999999999923
20
13.326767621578135
42
0.41421356237305862
10
92.224999999999937
20
13.826767621578135
10
79.224999999999923
20
13.826767621578135
42
0.41421356237309764
0
LWPOLYLINE
5
114
100
AcDbEntity
8
0
100
AcDbPolyline
90
8
70
1
43
0.0
10
98.274999999999935
20
-0.17323237842187034
10
111.27499999999992
20
-0.17323237842187034
42
0.41421356237307183
10
111.77499999999993
20
0.32676762157813011
10
111.77499999999993
20
13.326767621578135
42
0.41421356237306772
10
111.27499999999992
20
13.826767621578133
10
98.274999999999935
20
13.826767621578133
42
0.41421356237309631
10
97.774999999999906
20
13.326767621578135
10
97.774999999999906
20
0.32676762157813011
42
0.41421356237305978
0
LWPOLYLINE
5
115
100
AcDbEntity
8
0
100
AcDbPolyline
90
8
70
1
43
0.0
10
64.150000000000261
20
-24.773232378421746
42
0.41421356237308204
10
63.650000000000269
20
-24.273232378421753
10
50.650000000000261
20
-24.273232378421746
42
0.41421356237309503
10
50.150000000000283
20
-24.773232378421746
10
50.150000000000254
20
-37.773232378421753
42
0.41421356237310802
10
50.650000000000261
20
-38.273232378421746
10
63.650000000000261
20
-38.273232378421739
42
0.41421356237310025
10
64.150000000000276
20
-37.773232378421753
0
LWPOLYLINE
5
116
100
AcDbEntity
8
0
100
AcDbPolyline
90
8
70
1
43
0.0
10
31.60000000000025
20
-24.273232378421739
10
44.600000000000257
20
-24.273232378421735
42
-0.41421356237308982
10
45.100000000000257
20
-24.773232378421739
10
45.100000000000257
20
-37.773232378421739
42
-0.41421356237309503
10
44.600000000000257
20
-38.273232378421739
10
31.60000000000025
20
-38.273232378421724
42
-0.41421356237309764
10
31.100000000000243
20
-37.773232378421739
10
31.100000000000247
20
-24.773232378421739
42
-0.41421356237309764
0
LWPOLYLINE
5
117
100
AcDbEntity
8
0
100
AcDbPolyline
90
8
70
1
43
0.0
10
88.250000000000298
20
-37.773232378421753
10
88.250000000000298
20
-24.773232378421749
42
-0.41421356237308982
10
88.750000000000298
20
-24.273232378421756
10
101.75000000000028
20
-24.27323237842176
42
-0.41421356237310542
10
102.2500000000003
20
-24.773232378421749
10
102.2500000000003
20
-37.773232378421753
42
-0.41421356237309243
10
101.75000000000028
20
-38.273232378421753
10
88.750000000000298
20
-38.273232378421739
42
-0.4142135623730846
0
LWPOLYLINE
5
118
100
AcDbEntity
8
0
100
AcDbPolyline
90
8
70
1
43
0.0
10
-6.500000000000008
20
-38.27323237842176
10
6.4999999999999902
20
-38.27323237842176
42
0.41421356237309698
10
6.999999999999992
20
-37.77323237842176
10
6.999999999999992
20
-24.77323237842176
42
0.41421356237309631
10
6.4999999999999893
20
-24.273232378421756
10
-6.5000000000000089
20
-24.27323237842176
42
0.41421356237309503
10
-7.0000000000000071
20
-24.77323237842176
10
-7.0000000000000107
20
-37.77323237842176
42
0.41421356237309243
0
LWPOLYLINE
5
119
100
AcDbEntity
8
0
100
AcDbPolyline
90
8
70
1
43
0.0
10
-44.599999999999753
20
-24.273232378421721
42
0.41421356237310281
10
-45.099999999999753
20
-24.773232378421717
10
-45.09999999999976
20
-37.773232378421717
42
0.41421356237310281
10
-44.599999999999753
20
-38.273232378421717
10
-31.599999999999753
20
-38.273232378421717
42
0.41421356237309764
10
-31.099999999999753
20
-37.773232378421717
10
-31.099999999999753
20
-24.773232378421717
42
0.41421356237309503
10
-31.599999999999753
20
-24.273232378421721
0
LWPOLYLINE
5
120
100
AcDbEntity
8
0
100
AcDbPolyline
90
8
70
1
43
0.0
10
73.962499999999935
20
-5.7232323784218178
42
-0.41421356237308915
10
74.462499999999935
20
-5.2232323784218115
10
87.46249999999992
20
-5.2232323784218266
42
-0.41421356237311585
10
87.962499999999949
20
-5.7232323784218151
10
87.962499999999949
20
-18.723232378421809
42
-0.41421356237308721
10
87.46249999999992
20
-19.223232378421816
10
74.462499999999935
20
-19.223232378421812
42
-0.41421356237310414
10
73.962499999999935
20
-18.723232378421816
0
LWPOLYLINE
5
121
100
AcDbEntity
8
0
100
AcDbPolyline
90
8
70
1
43
0.0
10
55.412499999999923
20
-19.223232378421812
42
-0.41421356237307944
10
54.912499999999937
20
-18.723232378421809
10
54.912499999999937
20
-5.7232323784218142
42
-0.41421356237308071
10
55.412499999999923
20
-5.2232323784218142
10
68.412499999999937
20
-5.2232323784218124
42
-0.41421356237307488
10
68.912499999999937
20
-5.7232323784218133
10
68.912499999999937
20
-18.723232378421812
42
-0.41421356237310281
10
68.412499999999937
20
-19.223232378421812
0
LWPOLYLINE
5
122
100
AcDbEntity
8
0
100
AcDbPolyline
90
8
70
1
43
0.0
10
25.550000000000267
20
-24.273232378421735
42
-0.41421356237309503
10
26.050000000000267
20
-24.773232378421731
10
26.050000000000267
20
-37.773232378421739
42
-0.4142135623730846
10
25.550000000000267
20
-38.273232378421731
10
12.550000000000257
20
-38.273232378421724
42
-0.41421356237308982
10
12.050000000000257
20
-37.773232378421739
10
12.050000000000258
20
-24.773232378421731
42
-0.41421356237309631
10
12.550000000000257
20
-24.273232378421735
0
LWPOLYLINE
5
123
100
AcDbEntity
8
0
100
AcDbPolyline
90
8
70
1
43
0.0
10
-40.624999999999673
20
13.326767621578187
10
-40.624999999999673
20
0.3267676215781834
42
-0.41421356237310186
10
-41.12499999999968
20
-0.17323237842181705
10
-54.124999999999673
20
-0.17323237842181344
42
-0.41421356237312418
10
-54.624999999999673
20
0.3267676215781834
10
-54.624999999999673
20
13.326767621578187
42
-0.41421356237309631
10
-54.124999999999673
20
13.826767621578187
10
-41.12499999999968
20
13.826767621578187
42
-0.41421356237308982
0
LWPOLYLINE
5
124
100
AcDbEntity
8
0
100
AcDbPolyline
90
8
70
1
43
0.0
10
83.200000000000301
20
-37.773232378421753
42
-0.41421356237309503
10
82.700000000000273
20
-38.273232378421739
10
69.700000000000273
20
-38.273232378421753
42
-0.41421356237308982
10
69.200000000000287
20
-37.773232378421753
10
69.200000000000287
20
-24.773232378421746
42
-0.41421356237309503
10
69.700000000000273
20
-24.273232378421746
10
82.700000000000273
20
-24.27323237842176
42
-0.41421356237311324
10
83.200000000000301
20
-24.773232378421746
0
LWPOLYLINE
5
125
100
AcDbEntity
8
0
100
AcDbPolyline
90
8
70
1
43
0.0
10
-30.812499999999691
20
-18.723232378421788
10
-30.812499999999691
20
-5.7232323784217831
42
-0.41421356237309698
10
-30.312499999999698
20
-5.2232323784217858
10
-17.312499999999691
20
-5.2232323784217849
42
-0.41421356237309243
10
-16.812499999999694
20
-5.7232323784217867
10
-16.812499999999694
20
-18.723232378421788
42
-0.41421356237309892
10
-17.312499999999691
20
-19.223232378421788
10
-30.312499999999698
20
-19.223232378421788
42
-0.4142135623730937
0
LWPOLYLINE
5
126
100
AcDbEntity
8
0
100
AcDbPolyline
90
8
70
1
43
0.0
10
-88.24999999999973
20
-37.773232378421696
10
-88.24999999999973
20
-24.773232378421714
42
0.41421356237308721
10
-88.74999999999973
20
-24.273232378421721
10
-101.74999999999977
20
-24.273232378421703
42
0.41421356237313145
10
-102.24999999999979
20
-24.773232378421707
10
-102.24999999999979
20
-37.773232378421696
42
0.41421356237308204
10
-101.74999999999977
20
-38.273232378421717
10
-88.74999999999973
20
-38.27323237842171
42
0.41421356237307422
0
LWPOLYLINE
5
127
100
AcDbEntity
8
0
100
AcDbPolyline
90
8
70
1
43
0.0
10
-78.724999999999682
20
13.32676762157819
10
-78.724999999999682
20
0.32676762157819006
42
-0.4142135623730952
10
-79.224999999999682
20
-0.17323237842181036
10
-92.224999999999667
20
-0.17323237842181705
42
-0.41421356237308832
10
-92.724999999999653
20
0.32676762157819012
10
-92.724999999999653
20
13.32676762157819
42
-0.41421356237306123
10
-92.224999999999667
20
13.826767621578194
10
-79.224999999999682
20
13.826767621578194
42
-0.41421356237308721
0
LWPOLYLINE
5
128
100
AcDbEntity
8
0
100
AcDbPolyline
90
8
70
1
43
0.0
10
73.174999999999926
20
-0.17323237842186143
10
60.174999999999912
20
-0.17323237842186234
42
-0.41421356237311002
10
59.674999999999905
20
0.32676762157813893
10
59.674999999999905
20
13.326767621578142
42
-0.41421356237311063
10
60.174999999999912
20
13.826767621578142
10
73.174999999999926
20
13.826767621578142
42
-0.41421356237308204
10
73.674999999999898
20
13.326767621578142
10
73.674999999999898
20
0.32676762157813904
42
-0.41421356237310719
0
LWPOLYLINE
5
129
100
AcDbEntity
8
0
100
AcDbPolyline
90
8
70
1
43
0.0
10
-87.962499999999707
20
-18.723232378421773
42
0.41421356237307549
10
-87.462499999999693
20
-19.223232378421784
10
-74.462499999999707
20
-19.223232378421777
42
0.41421356237309631
10
-73.962499999999707
20
-18.723232378421773
10
-73.962499999999707
20
-5.7232323784217716
42
0.41421356237309698
10
-74.462499999999707
20
-5.2232323784217707
10
-87.462499999999693
20
-5.2232323784217716
42
0.41421356237305601
10
-87.962499999999707
20
-5.7232323784217716
0
LWPOLYLINE
5
130
100
AcDbEntity
8
0
100
AcDbPolyline
90
8
70
1
43
0.0
10
-49.362499999999713
20
-19.223232378421777
42
-0.41421356237310414
10
-49.862499999999706
20
-18.72323237842178
10
-49.862499999999706
20
-5.7232323784217787
42
-0.41421356237309631
10
-49.362499999999713
20
-5.2232323784217787
10
-36.362499999999692
20
-5.2232323784217822
42
-0.41421356237310608
10
-35.862499999999706
20
-5.7232323784217805
10
-35.862499999999706
20
-18.72323237842178
42
-0.41421356237308854
10
-36.362499999999692
20
-19.22323237842178
0
LWPOLYLINE
5
131
100
AcDbEntity
8
0
100
AcDbPolyline
90
8
70
1
43
0.0
10
-6.9999999999999707
20
37.139267621578071
10
-6.9999999999999751
20
24.139267621578071
42
0.4142135623730957
10
-6.4999999999999725
20
23.639267621578067
10
6.5000000000000258
20
23.639267621578067
42
0.41421356237309631
10
7.0000000000000302
20
24.139267621578071
10
7.0000000000000275
20
37.139267621578064
42
0.41421356237309048
10
6.5000000000000258
20
37.639267621578071
10
-6.4999999999999725
20
37.639267621578071
42
0.41421356237309503
0
LWPOLYLINE
5
132
100
AcDbEntity
8
0
100
AcDbPolyline
90
8
70
1
43
0.0
10
93.012499999999903
20
-5.7232323784218213
42
-0.41421356237307422
10
93.512499999999918
20
-5.2232323784218142
10
106.51249999999992
20
-5.2232323784218284
42
-0.41421356237310153
10
107.01249999999996
20
-5.7232323784218186
10
107.01249999999996
20
-18.72323237842182
42
-0.41421356237308982
10
106.51249999999992
20
-19.22323237842182
10
93.512499999999918
20
-19.223232378421812
42
-0.41421356237311452
10
93.012499999999932
20
-18.72323237842182
0
LWPOLYLINE
5
133
100
AcDbEntity
8
0
100
AcDbPolyline
90
8
70
1
43
0.0
10
-93.512499999999704
20
-5.2232323784217618
10
-106.51249999999969
20
-5.2232323784217671
42
0.41421356237307294
10
-107.01249999999973
20
-5.7232323784217689
10
-107.01249999999973
20
-18.723232378421773
42
0.41421356237308982
10
-106.51249999999969
20
-19.22323237842177
10
-93.512499999999704
20
-19.22323237842177
42
0.41421356237305601
10
-93.01249999999969
20
-18.72323237842177
10
-93.01249999999969
20
-5.7232323784217689
42
0.41421356237305929
0
LWPOLYLINE
5
134
100
AcDbEntity
8
0
100
AcDbPolyline
90
8
70
1
43
0.0
10
17.312499999999925
20
-5.2232323784218071
10
30.312499999999929
20
-5.2232323784218089
42
-0.41421356237309503
10
30.812499999999929
20
-5.7232323784218062
10
30.812499999999932
20
-18.723232378421805
42
-0.41421356237308721
10
30.312499999999929
20
-19.223232378421805
10
17.312499999999925
20
-19.223232378421812
42
-0.41421356237309115
10
16.812499999999925
20
-18.723232378421805
10
16.812499999999929
20
-5.7232323784218071
42
-0.41421356237309437
0
LWPOLYLINE
5
135
100
AcDbEntity
8
0
100
AcDbPolyline
90
8
70
1
43
0.0
10
-50.149999999999757
20
-37.77323237842171
10
-50.149999999999757
20
-24.773232378421717
42
0.41421356237309503
10
-50.649999999999757
20
-24.273232378421717
10
-63.64999999999975
20
-24.273232378421721
42
0.41421356237312362
10
-64.149999999999764
20
-24.773232378421717
10
-64.14999999999975
20
-37.77323237842171
42
0.41421356237309503
10
-63.64999999999975
20
-38.273232378421731
10
-50.649999999999757
20
-38.273232378421717
42
0.41421356237309243
0
LWPOLYLINE
5
136
100
AcDbEntity
8
0
100
AcDbPolyline
90
8
70
1
43
0.0
10
-26.049999999999756
20
-24.773232378421728
42
-0.41421356237310802
10
-25.549999999999752
20
-24.273232378421731
10
-12.549999999999741
20
-24.273232378421721
42
-0.41421356237309243
10
-12.049999999999741
20
-24.773232378421728
10
-12.049999999999745
20
-37.773232378421724
42
-0.41421356237309764
10
-12.549999999999741
20
-38.273232378421724
10
-25.549999999999752
20
-38.273232378421724
42
-0.41421356237309243
10
-26.049999999999756
20
-37.773232378421724
0
LWPOLYLINE
5
137
100
AcDbEntity
8
0
100
AcDbPolyline
90
8
70
1
43
0.0
10
-68.91249999999971
20
-5.7232323784217778
10
-68.91249999999971
20
-18.723232378421777
42
0.41421356237310281
10
-68.41249999999971
20
-19.22323237842177
10
-55.412499999999703
20
-19.223232378421777
42
0.41421356237307422
10
-54.91249999999971
20
-18.723232378421773
10
-54.91249999999971
20
-5.7232323784217778
42
0.41421356237309631
10
-55.412499999999703
20
-5.2232323784217769
10
-68.41249999999971
20
-5.223232378421776
42
0.41421356237307549
0
LWPOLYLINE
5
138
100
AcDbEntity
8
0
100
AcDbPolyline
90
8
70
1
43
0.0
10
-22.074999999999658
20
-0.17323237842182149
42
0.41421356237309265
10
-21.574999999999665
20
0.32676762157817896
10
-21.574999999999665
20
13.326767621578181
42
0.41421356237310025
10
-22.074999999999658
20
13.826767621578185
10
-35.074999999999669
20
13.826767621578181
42
0.41421356237308854
10
-35.574999999999676
20
13.326767621578181
10
-35.574999999999676
20
0.32676762157817896
42
0.41421356237309359
10
-35.074999999999669
20
-0.17323237842182121
0
LWPOLYLINE
5
139
100
AcDbEntity
8
0
100
AcDbPolyline
90
8
70
1
43
0.0
10
49.36249999999994
20
-19.223232378421812
10
36.362499999999926
20
-19.223232378421812
42
-0.41421356237308854
10
35.862499999999926
20
-18.723232378421809
10
35.862499999999926
20
-5.7232323784218098
42
-0.41421356237310347
10
36.362499999999926
20
-5.2232323784218107
10
49.36249999999994
20
-5.2232323784218089
42
-0.41421356237308005
10
49.862499999999926
20
-5.7232323784218098
10
49.862499999999926
20
-18.723232378421809
42
-0.41421356237310414
0
LWPOLYLINE
5
140
100
AcDbEntity
8
0
100
AcDbPolyline
90
8
70
1
43
0.0
10
-111.27499999999969
20
-0.17323237842180594
10
-98.27499999999965
20
-0.17323237842180594
42
0.41421356237304163
10
-97.774999999999665
20
0.3267676215781945
10
-97.774999999999665
20
13.326767621578197
42
0.4142135623730625
10
-98.27499999999965
20
13.826767621578202
10
-111.27499999999969
20
13.826767621578195
42
0.41421356237308854
10
-111.77499999999969
20
13.326767621578197
10
-111.77499999999969
20
0.3267676215781945
42
0.41421356237308982
0
LWPOLYLINE
5
141
100
AcDbEntity
8
0
100
AcDbPolyline
90
8
70
1
43
0.0
10
-73.17499999999967
20
13.826767621578188
10
-60.174999999999663
20
13.826767621578188
42
-0.41421356237308204
10
-59.674999999999656
20
13.326767621578188
10
-59.674999999999656
20
0.32676762157818784
42
-0.41421356237308266
10
-60.174999999999663
20
-0.17323237842181258
10
-73.17499999999967
20
-0.17323237842181344
42
-0.41421356237311013
10
-73.67499999999967
20
0.32676762157818789
10
-73.67499999999967
20
13.326767621578188
42
-0.41421356237308204
0
LWPOLYLINE
5
142
100
AcDbEntity
8
0
100
AcDbPolyline
90
8
70
1
43
0.0
10
-82.699999999999733
20
-38.27323237842171
10
-69.699999999999761
20
-38.27323237842171
42
0.41421356237309503
10
-69.199999999999761
20
-37.77323237842171
10
-69.199999999999761
20
-24.773232378421714
42
0.41421356237309503
10
-69.699999999999761
20
-24.273232378421717
10
-82.699999999999733
20
-24.273232378421717
42
0.41421356237312884
10
-83.199999999999775
20
-24.773232378421714
10
-83.199999999999775
20
-37.77323237842171
42
0.41421356237308982
0
LWPOLYLINE
5
143
100
AcDbEntity
8
0
100
AcDbPolyline
90
24
70
1
43
0.0
10
19.07499999999996
20
13.576767621578137
10
19.07499999999995
20
-1.0982323784217907
42
-0.41421356237309637
10
17.074999999999942
20
-3.0982323784217902
10
16.68749999999994
20
-3.0982323784217924
42
0.41421356237309664
10
14.687499999999929
20
-5.0982323784217876
10
14.687499999999929
20
-20.148232378421767
42
-0.41421356237309631
10
12.687499999999929
20
-22.14823237842176
10
-12.687499999999952
20
-22.14823237842176
42
-0.41421356237309825
10
-14.68749999999995
20
-20.148232378421767
10
-14.687499999999947
20
-5.0982323784218142
42
0.41421356237309587
10
-16.68749999999995
20
-3.0982323784218089
10
-17.074999999999992
20
-3.0982323784218089
42
-0.41421356237309453
10
-19.074999999999992
20
-1.0982323784218035
10
-19.074999999999985
20
13.576767621578107
42
-0.41421356237309404
10
-17.074999999999989
20
15.576767621578107
10
-11.936999999999919
20
15.576767621578107
42
0.4142135623730947
10
-9.9369999999999177
20
17.57676762157811
10
-9.9369999999999141
20
19.139267621578085
42
-0.41421356237309404
10
-7.9369999999999141
20
21.139267621578096
10
7.9369999999999319
20
21.139267621578096
42
-0.41421356237309404
10
9.9369999999999354
20
19.139267621578085
10
9.9369999999999337
20
17.576767621578117
42
0.41421356237309437
10
11.936999999999944
20
15.576767621578115
10
17.074999999999953
20
15.576767621578135
42
-0.41421356237309698
0
CIRCLE
5
144
100
AcDbEntity
8
0
100
AcDbCircle
10
9.5249999999999684
20
-31.27298237842173
30
0
40
0.80000000000000016
210
0
220
0
230
1
0
CIRCLE
5
145
100
AcDbEntity
8
0
100
AcDbCircle
10
71.4375
20
-12.222982378421801
30
0
40
0.80000000000000016
210
0
220
0
230
1
0
CIRCLE
5
146
100
AcDbEntity
8
0
100
AcDbCircle
10
33.33749999999992
20
-12.222982378421792
30
0
40
0.80000000000000016
210
0
220
0
230
1
0
CIRCLE
5
147
100
AcDbEntity
8
0
100
AcDbCircle
10
-33.337500000000091
20
-12.222982378421694
30
0
40
0.80000000000000016
210
0
220
0
230
1
0
CIRCLE
5
148
100
AcDbEntity
8
0
100
AcDbCircle
10
-9.5250000000000394
20
-31.272982378421727
30
0
40
0.80000000000000016
210
0
220
0
230
1
0
CIRCLE
5
149
100
AcDbEntity
8
0
100
AcDbCircle
10
-47.625000000000128
20
-31.272982378421752
30
0
40
0.80000000000000016
210
0
220
0
230
1
0
CIRCLE
5
150
100
AcDbEntity
8
0
100
AcDbCircle
10
-85.725000000000193
20
-31.272982378421752
30
0
40
0.80000000000000016
210
0
220
0
230
1
0
CIRCLE
5
151
100
AcDbEntity
8
0
100
AcDbCircle
10
-71.437500000000199
20
-12.222982378421641
30
0
40
0.80000000000000016
210
0
220
0
230
1
0
CIRCLE
5
152
100
AcDbEntity
8
0
100
AcDbCircle
10
-57.15000000000007
20
6.8270176215783174
30
0
40
0.80000000000000016
210
0
220
0
230
1
0
CIRCLE
5
153
100
AcDbEntity
8
0
100
AcDbCircle
10
-95.250000000000185
20
6.8270176215783174
30
0
40
0.80000000000000016
210
0
220
0
230
1
0
CIRCLE
5
154
100
AcDbEntity
8
0
100
AcDbCircle
10
-69.056250000000063
20
25.877017621578311
30
0
40
0.80000000000000016
210
0
220
0
230
1
0
CIRCLE
5
155
100
AcDbEntity
8
0
100
AcDbCircle
10
-16.668750000000095
20
25.877017621578151
30
0
40
0.80000000000000016
210
0
220
0
230
1
0
CIRCLE
5
156
100
AcDbEntity
8
0
100
AcDbCircle
10
16.668749999999946
20
25.87701762157824
30
0
40
0.80000000000000016
210
0
220
0
230
1
0
CIRCLE
5
157
100
AcDbEntity
8
0
100
AcDbCircle
10
69.056249999999977
20
25.877017621578382
30
0
40
0.80000000000000016
210
0
220
0
230
1
0
CIRCLE
5
158
100
AcDbEntity
8
0
100
AcDbCircle
10
57.149999999999956
20
6.8270176215782463
30
0
40
0.80000000000000016
210
0
220
0
230
1
0
CIRCLE
5
159
100
AcDbEntity
8
0
100
AcDbCircle
10
95.250000000000028
20
6.8270176215783884
30
0
40
0.80000000000000016
210
0
220
0
230
1
0
CIRCLE
5
160
100
AcDbEntity
8
0
100
AcDbCircle
10
47.624999999999957
20
-31.272982378421723
30
0
40
0.80000000000000016
210
0
220
0
230
1
0
CIRCLE
5
161
100
AcDbEntity
8
0
100
AcDbCircle
10
85.724999999999937
20
-31.272982378421762
30
0
40
0.80000000000000016
210
0
220
0
230
1
0
ENDSEC
0
SECTION
2
OBJECTS
0
DICTIONARY
5
C
100
AcDbDictionary
3
ACAD_GROUP
350
D
3
ACAD_MLINESTYLE
350
17
0
DICTIONARY
5
D
100
AcDbDictionary
0
DICTIONARY
5
1A
330
C
100
AcDbDictionary
0
DICTIONARY
5
17
100
AcDbDictionary
0
ENDSEC
0
EOF
