0
SECTION
2
HEADER
9
$INSUNITS
70
4
9
$ACADVER
1
AC1014
9
$HANDSEED
5
FFFF
0
ENDSEC
0
SECTION
2
TABLES
0
TABLE
2
VPORT
5
8
100
AcDbSymbolTable
0
ENDTAB
0
TABLE
2
LTYPE
5
5
100
AcDbSymbolTable
0
LTYPE
5
14
100
AcDbSymbolTableRecord
100
AcDbLinetypeTableRecord
2
BYBLOCK
70
0
0
LTYPE
5
15
100
AcDbSymbolTableRecord
100
AcDbLinetypeTableRecord
2
BYLAYER
70
0
0
ENDTAB
0
TABLE
2
LAYER
5
2
100
AcDbSymbolTable
70
2
0
LAYER
5
50
100
AcDbSymbolTableRecord
100
AcDbLayerTableRecord
2
0
70
0
6
CONTINUOUS
0
ENDTAB
0
TABLE
2
STYLE
5
3
100
AcDbSymbolTable
70
1
0
STYLE
5
11
100
AcDbSymbolTableRecord
100
AcDbTextStyleTableRecord
2
STANDARD
70
0
0
ENDTAB
0
TABLE
2
VIEW
5
6
100
AcDbSymbolTable
70
0
0
ENDTAB
0
TABLE
2
UCS
5
7
100
AcDbSymbolTable
70
0
0
ENDTAB
0
TABLE
2
APPID
5
9
100
AcDbSymbolTable
70
2
0
APPID
5
12
100
AcDbSymbolTableRecord
100
AcDbRegAppTableRecord
2
ACAD
70
0
0
ENDTAB
0
TABLE
2
DIMSTYLE
5
A
100
AcDbSymbolTable
70
1
0
ENDTAB
0
TABLE
2
BLOCK_RECORD
5
1
100
AcDbSymbolTable
70
1
0
BLOCK_RECORD
5
1F
100
AcDbSymbolTableRecord
100
AcDbBlockTableRecord
2
*MODEL_SPACE
0
BLOCK_RECORD
5
1B
100
AcDbSymbolTableRecord
100
AcDbBlockTableRecord
2
*PAPER_SPACE
0
ENDTAB
0
ENDSEC
0
SECTION
2
BLOCKS
0
BLOCK
5
20
100
AcDbEntity
100
AcDbBlockBegin
2
*MODEL_SPACE
0
ENDBLK
5
21
100
AcDbEntity
100
AcDbBlockEnd
0
BLOCK
5
1C
100
AcDbEntity
100
AcDbBlockBegin
2
*PAPER_SPACE
0
ENDBLK
5
1D
100
AcDbEntity
100
AcDbBlockEnd
0
ENDSEC
0
SECTION
2
ENTITIES
0
LWPOLYLINE
5
100
100
AcDbEntity
8
0
100
AcDbPolyline
90
23
70
1
43
0.0
10
-61.149999999999821
20
-18.876767621578153
42
0.41421356237311063
10
-60.649999999999793
20
-18.376767621578146
42
-0.41421356237309631
10
-60.149999999999821
20
-17.876767621578175
10
-54.149999999999842
20
-17.876767621578193
42
-0.41421356237309631
10
-53.649999999999849
20
-18.376767621578185
42
0.4142135623730781
10
-53.149999999999849
20
-18.876767621578153
10
-51.656749999999846
20
-18.876767621578153
42
0.41421356237307944
10
-51.156749999999853
20
-18.376767621578182
42
-0.41421356237309764
10
-50.656749999999853
20
-17.876767621578178
10
-37.512999999999906
20
-17.876767621578153
42
-0.41421356237309243
10
-37.012999999999899
20
-18.376767621578164
42
0.41421356237307422
10
-36.512999999999906
20
-18.876767621578129
10
-27.780749999999934
20
-18.876767621578129
42
0.41421356237307944
10
-27.28074999999993
20
-18.376767621578157
42
-0.41421356237309243
10
-26.780749999999927
20
-17.87676762157815
10
-13.636999999999961
20
-17.876767621578114
42
-0.41421356237310025
10
-13.136999999999954
20
-18.376767621578121
10
-13.136999999999919
20
-32.376767621578097
42
-0.41421356237309243
10
-13.636999999999926
20
-32.876767621578097
10
-87.462499999999721
20
-32.876767621578161
42
-0.41421356237310025
10
-87.962499999999721
20
-32.376767621578146
10
-87.96249999999975
20
-19.376767621578193
42
-0.41421356237309243
10
-87.462499999999736
20
-18.876767621578175
0
LWPOLYLINE
5
101
100
AcDbEntity
8
0
100
AcDbPolyline
90
8
70
1
43
0.0
10
-55.412499999999845
20
5.223232378421816
10
-68.412499999999795
20
5.2232323784217973
42
-0.41421356237309698
10
-68.912499999999795
20
5.7232323784217805
10
-68.91249999999981
20
18.723232378421766
42
-0.41421356237310936
10
-68.412499999999824
20
19.223232378421763
10
-55.412499999999866
20
19.223232378421788
42
-0.41421356237309503
10
-54.912499999999866
20
18.723232378421791
10
-54.912499999999859
20
5.7232323784218053
42
-0.41421356237309437
0
LWPOLYLINE
5
102
100
AcDbEntity
8
0
100
AcDbPolyline
90
8
70
1
43
0.0
10
6.4999999999999858
20
-37.639267621578071
10
-6.4999999999999325
20
-37.639267621578071
42
-0.41421356237309309
10
-6.9999999999999396
20
-37.139267621578057
10
-6.9999999999999227
20
-24.139267621578078
42
-0.41421356237308526
10
-6.4999999999999325
20
-23.639267621578099
10
6.4999999999999858
20
-23.639267621578082
42
-0.41421356237309048
10
6.9999999999999929
20
-24.139267621578089
10
6.9999999999999938
20
-37.139267621578064
42
-0.41421356237308787
0
LWPOLYLINE
5
103
100
AcDbEntity
8
0
100
AcDbPolyline
90
8
70
1
43
0.0
10
-35.074999999999918
20
0.17323237842181674
10
-22.074999999999942
20
0.17323237842179728
42
-0.41421356237309925
10
-21.574999999999971
20
-0.32676762157817263
10
-21.574999999999953
20
-13.326767621578149
42
-0.41421356237308982
10
-22.074999999999942
20
-13.826767621578135
10
-35.074999999999896
20
-13.826767621578156
42
-0.41421356237309115
10
-35.574999999999903
20
-13.326767621578146
10
-35.574999999999903
20
-0.32676762157817013
42
-0.41421356237308887
0
LWPOLYLINE
5
104
100
AcDbEntity
8
0
100
AcDbPolyline
90
8
70
1
43
0.0
10
92.22499999999971
20
-13.826767621578085
10
79.224999999999824
20
-13.826767621578098
42
-0.41421356237311452
10
78.724999999999795
20
-13.326767621578092
10
78.724999999999753
20
-0.3267676215781346
42
-0.41421356237310181
10
79.224999999999767
20
0.17323237842187
10
92.22499999999971
20
0.17323237842184597
42
-0.41421356237308626
10
92.724999999999667
20
-0.32676762157812839
10
92.724999999999724
20
-13.326767621578096
42
-0.41421356237310936
0
LWPOLYLINE
5
105
100
AcDbEntity
8
0
100
AcDbPolyline
90
8
70
1
43
0.0
10
-30.312499999999947
20
19.223232378421766
10
-17.312499999999957
20
19.223232378421788
42
-0.41421356237310025
10
-16.81249999999995
20
18.72323237842178
10
-16.812499999999968
20
5.7232323784217964
42
-0.41421356237309437
10
-17.312499999999957
20
5.2232323784218089
10
-30.312499999999929
20
5.2232323784218213
42
-0.41421356237309048
10
-30.812499999999918
20
5.7232323784218124
10
-30.812499999999936
20
18.72323237842178
42
-0.41421356237308854
0
LWPOLYLINE
5
106
100
AcDbEntity
8
0
100
AcDbPolyline
90
8
70
1
43
0.0
10
74.46249999999975
20
19.223232378421834
10
87.462499999999721
20
19.223232378421844
42
-0.41421356237306511
10
87.962499999999707
20
18.723232378421834
10
87.962499999999707
20
5.7232323784218675
42
-0.41421356237307294
10
87.462499999999693
20
5.2232323784218613
10
74.46249999999975
20
5.2232323784218604
42
-0.41421356237311391
10
73.962499999999721
20
5.7232323784218639
10
73.962499999999721
20
18.72323237842183
42
-0.41421356237311585
0
LWPOLYLINE
5
107
100
AcDbEntity
8
0
100
AcDbPolyline
90
8
70
1
43
0.0
10
-54.124999999999844
20
0.17323237842180778
10
-41.124999999999908
20
0.17323237842183078
42
-0.41421356237309814
10
-40.624999999999901
20
-0.32676762157818168
10
-40.624999999999922
20
-13.326767621578156
42
-0.41421356237309503
10
-41.124999999999908
20
-13.826767621578146
10
-54.124999999999837
20
-13.826767621578187
42
-0.41421356237309764
10
-54.624999999999851
20
-13.326767621578156
10
-54.624999999999837
20
-0.32676762157818123
42
-0.4142135623730952
0
LWPOLYLINE
5
108
100
AcDbEntity
8
0
100
AcDbPolyline
90
8
70
1
43
0.0
10
111.27499999999972
20
-13.826767621578103
10
98.274999999999693
20
-13.826767621578099
42
-0.41421356237306384
10
97.774999999999693
20
-13.326767621578092
10
97.774999999999665
20
-0.32676762157812578
42
-0.41421356237307205
10
98.274999999999665
20
0.17323237842187872
10
111.27499999999966
20
0.17323237842187783
42
-0.4142135623730841
10
111.77499999999968
20
-0.32676762157812839
10
111.77499999999969
20
-13.326767621578114
42
-0.41421356237308854
0
LWPOLYLINE
5
109
100
AcDbEntity
8
0
100
AcDbPolyline
90
8
70
1
43
0.0
10
-36.362499999999912
20
5.2232323784218027
10
-49.362499999999855
20
5.2232323784218
42
-0.41421356237309764
10
-49.862499999999869
20
5.7232323784218124
10
-49.862499999999876
20
18.723232378421798
42
-0.41421356237308332
10
-49.362499999999883
20
19.223232378421784
10
-36.362499999999912
20
19.223232378421788
42
-0.41421356237309243
10
-35.862499999999912
20
18.723232378421777
10
-35.862499999999912
20
5.7232323784218098
42
-0.41421356237308915
0
LWPOLYLINE
5
110
100
AcDbEntity
8
0
100
AcDbPolyline
90
8
70
1
43
0.0
10
88.749999999999687
20
38.27323237842176
10
101.74999999999966
20
38.273232378421753
42
-0.41421356237312101
10
102.24999999999967
20
37.77323237842176
10
102.24999999999969
20
24.773232378421788
42
-0.41421356237309764
10
101.7499999999997
20
24.273232378421802
10
88.749999999999744
20
24.273232378421778
42
-0.41421356237308204
10
88.24999999999973
20
24.773232378421781
10
88.249999999999716
20
37.773232378421774
42
-0.41421356237308204
0
LWPOLYLINE
5
111
100
AcDbEntity
8
0
100
AcDbPolyline
90
8
70
1
43
0.0
10
93.512499999999676
20
19.22323237842183
10
106.51249999999965
20
19.223232378421852
42
-0.41421356237308593
10
107.01249999999968
20
18.723232378421844
10
107.01249999999966
20
5.7232323784218586
42
-0.41421356237309892
10
106.51249999999968
20
5.2232323784218702
10
93.512499999999676
20
5.223232378421903
42
-0.41421356237310736
10
93.01249999999969
20
5.7232323784218773
10
93.012499999999676
20
18.723232378421844
42
-0.41421356237310936
0
LWPOLYLINE
5
112
100
AcDbEntity
8
0
100
AcDbPolyline
90
8
70
1
43
0.0
10
69.699999999999676
20
38.273232378421753
10
82.699999999999704
20
38.273232378421746
42
-0.4142135623730846
10
83.199999999999704
20
37.773232378421774
10
83.199999999999733
20
24.773232378421781
42
-0.41421356237309764
10
82.699999999999761
20
24.27323237842181
10
69.699999999999733
20
24.273232378421774
42
-0.41421356237309243
10
69.199999999999747
20
24.773232378421778
10
69.199999999999733
20
37.773232378421767
42
-0.41421356237308204
0
LWPOLYLINE
5
113
100
AcDbEntity
8
0
100
AcDbPolyline
90
8
70
1
43
0.0
10
50.649999999999778
20
38.27323237842176
10
63.649999999999629
20
38.273232378421781
42
-0.41421356237311846
10
64.149999999999693
20
37.773232378421767
10
64.149999999999721
20
24.773232378421778
42
-0.41421356237310281
10
63.64999999999975
20
24.273232378421806
10
50.649999999999849
20
24.273232378421792
42
-0.41421356237310025
10
50.149999999999849
20
24.773232378421788
10
50.149999999999807
20
37.77323237842176
42
-0.41421356237307161
0
LWPOLYLINE
5
114
100
AcDbEntity
8
0
100
AcDbPolyline
90
8
70
1
43
0.0
10
31.599999999999877
20
38.273232378421731
10
44.599999999999781
20
38.273232378421767
42
-0.41421356237310802
10
45.099999999999824
20
37.77323237842176
10
45.099999999999838
20
24.773232378421788
42
-0.41421356237308204
10
44.599999999999852
20
24.273232378421802
10
31.599999999999895
20
24.273232378421739
42
-0.41421356237308982
10
31.099999999999888
20
24.773232378421746
10
31.099999999999874
20
37.773232378421724
42
-0.41421356237309243
0
LWPOLYLINE
5
115
100
AcDbEntity
8
0
100
AcDbPolyline
90
8
70
1
43
0.0
10
12.549999999999919
20
38.273232378421717
10
25.549999999999873
20
38.273232378421689
42
-0.41421356237310025
10
26.049999999999844
20
37.773232378421717
10
26.04999999999988
20
24.773232378421746
42
-0.4142135623730846
10
25.549999999999891
20
24.273232378421756
10
12.549999999999937
20
24.273232378421735
42
-0.41421356237309503
10
12.04999999999993
20
24.773232378421742
10
12.049999999999912
20
37.77323237842171
42
-0.41421356237309503
0
LWPOLYLINE
5
116
100
AcDbEntity
8
0
100
AcDbPolyline
90
8
70
1
43
0.0
10
-25.549999999999962
20
38.27323237842171
10
-12.549999999999972
20
38.273232378421731
42
-0.41421356237309503
10
-12.049999999999965
20
37.773232378421724
10
-12.049999999999981
20
24.773232378421739
42
-0.41421356237309631
10
-12.549999999999955
20
24.273232378421767
10
-25.549999999999962
20
24.273232378421739
42
-0.4142135623730846
10
-26.049999999999951
20
24.773232378421728
10
-26.049999999999951
20
37.773232378421717
42
-0.41421356237308721
0
LWPOLYLINE
5
117
100
AcDbEntity
8
0
100
AcDbPolyline
90
8
70
1
43
0.0
10
-44.599999999999902
20
38.273232378421717
10
-31.599999999999913
20
38.273232378421724
42
-0.41421356237309243
10
-31.099999999999905
20
37.77323237842171
10
-31.099999999999923
20
24.773232378421742
42
-0.4142135623730846
10
-31.599999999999913
20
24.273232378421753
10
-44.599999999999902
20
24.273232378421753
42
-0.41421356237308204
10
-45.099999999999895
20
24.773232378421739
10
-45.099999999999909
20
37.77323237842171
42
-0.41421356237310281
0
LWPOLYLINE
5
118
100
AcDbEntity
8
0
100
AcDbPolyline
90
8
70
1
43
0.0
10
-63.649999999999842
20
38.273232378421696
10
-50.649999999999892
20
38.273232378421696
42
-0.41421356237308204
10
-50.149999999999899
20
37.77323237842171
10
-50.149999999999899
20
24.773232378421739
42
-0.41421356237308204
10
-50.649999999999892
20
24.273232378421746
10
-63.649999999999842
20
24.273232378421735
42
-0.41421356237308204
10
-64.149999999999835
20
24.773232378421717
10
-64.149999999999849
20
37.773232378421689
42
-0.41421356237310281
0
LWPOLYLINE
5
119
100
AcDbEntity
8
0
100
AcDbPolyline
90
8
70
1
43
0.0
10
-82.69999999999979
20
38.273232378421667
10
-69.699999999999832
20
38.273232378421689
42
-0.41421356237310281
10
-69.199999999999818
20
37.773232378421689
10
-69.199999999999847
20
24.77323237842171
42
-0.41421356237308204
10
-69.699999999999832
20
24.273232378421721
10
-82.69999999999979
20
24.273232378421703
42
-0.41421356237310802
10
-83.19999999999979
20
24.773232378421696
10
-83.199999999999775
20
37.773232378421675
42
-0.41421356237311324
0
LWPOLYLINE
5
120
100
AcDbEntity
8
0
100
AcDbPolyline
90
8
70
1
43
0.0
10
55.412499999999874
20
19.223232378421834
10
68.412499999999767
20
19.223232378421837
42
-0.41421356237309503
10
68.912499999999767
20
18.72323237842183
10
68.912499999999767
20
5.7232323784218631
42
-0.41421356237310281
10
68.412499999999753
20
5.2232323784218568
10
55.412499999999874
20
5.2232323784218604
42
-0.41421356237311391
10
54.912499999999852
20
5.7232323784218639
10
54.912499999999852
20
18.72323237842183
42
-0.41421356237311585
0
LWPOLYLINE
5
121
100
AcDbEntity
8
0
100
AcDbPolyline
90
8
70
1
43
0.0
10
-101.74999999999972
20
38.273232378421667
10
-88.749999999999773
20
38.273232378421682
42
-0.4142135623730846
10
-88.249999999999773
20
37.773232378421675
10
-88.249999999999801
20
24.773232378421689
42
-0.41421356237309764
10
-88.749999999999773
20
24.273232378421717
10
-101.7499999999997
20
24.273232378421696
42
-0.41421356237311846
10
-102.24999999999973
20
24.773232378421689
10
-102.24999999999972
20
37.773232378421675
42
-0.41421356237311324
0
CIRCLE
5
122
100
AcDbEntity
8
0
100
AcDbCircle
10
-85.725010000000296
20
38.416982378421757
30
1.609823385706477e-14
40
1.1500000000000026
210
2.4406086588701949e-33
220
-4.163336342344336e-16
230
1
0
CIRCLE
5
123
100
AcDbEntity
8
0
100
AcDbCircle
10
-95.250000000000426
20
-13.970517621578292
30
-5.8286708792820718e-15
40
1.1500000000000026
210
2.4406086588701949e-33
220
-4.163336342344336e-16
230
1
0
LWPOLYLINE
5
124
100
AcDbEntity
8
0
100
AcDbPolyline
90
24
70
1
43
0.0
10
-9.9369999999999177
20
-17.57676762157811
42
0.4142135623730947
10
-11.936999999999918
20
-15.576767621578107
10
-17.074999999999989
20
-15.576767621578107
42
-0.41421356237309503
10
-19.074999999999985
20
-13.576767621578107
10
-19.074999999999992
20
1.0982323784218038
42
-0.41421356237309548
10
-17.074999999999992
20
3.098232378421808
10
-16.687499999999943
20
3.098232378421808
42
0.41421356237309598
10
-14.687499999999945
20
5.0982323784218124
10
-14.68749999999995
20
20.14823237842176
42
-0.41421356237309503
10
-12.68749999999995
20
22.14823237842176
10
12.687499999999927
20
22.14823237842176
42
-0.41421356237309503
10
14.687499999999927
20
20.148232378421763
10
14.687499999999929
20
5.0982323784217893
42
0.4142135623730962
10
16.68749999999994
20
3.0982323784217911
10
17.074999999999942
20
3.0982323784217902
42
-0.41421356237309637
10
19.07499999999995
20
1.0982323784217902
10
19.074999999999957
20
-13.576767621578131
42
-0.41421356237309631
10
17.07499999999995
20
-15.576767621578135
10
11.936999999999941
20
-15.576767621578117
42
0.41421356237309598
10
9.9369999999999337
20
-17.576767621578117
10
9.9369999999999337
20
-19.139267621578092
42
-0.41421356237309503
10
7.9369999999999319
20
-21.139267621578096
10
-7.9369999999999141
20
-21.139267621578099
42
-0.41421356237309503
10
-9.9369999999999141
20
-19.139267621578099
0
CIRCLE
5
125
100
AcDbEntity
8
0
100
AcDbCircle
10
95.249999999999829
20
-13.970517621578281
30
-5.5511151231257827e-15
40
1.1499999999999848
210
9.9497235493521452e-35
220
-4.0245584642661915e-16
230
1
0
CIRCLE
5
126
100
AcDbEntity
8
0
100
AcDbCircle
10
85.724999999999923
20
38.416982378421764
30
1.4988010832439613e-14
40
1.1499999999999848
210
9.9497235493521452e-35
220
-4.0245584642661915e-16
230
1
0
LWPOLYLINE
5
127
100
AcDbEntity
8
0
100
AcDbPolyline
90
8
70
1
43
0.0
10
-6.499999999999968
20
38.27323237842171
42
0.41421356237309048
10
-6.9999999999999583
20
37.773232378421724
10
-6.9999999999999574
20
24.773232378421739
42
0.41421356237309048
10
-6.4999999999999503
20
24.273232378421731
10
6.4999999999999325
20
24.273232378421767
42
0.41421356237310025
10
6.9999999999999041
20
24.773232378421739
10
6.9999999999999218
20
37.77323237842171
42
0.41421356237309309
10
6.4999999999999147
20
38.273232378421717
0
LWPOLYLINE
5
128
100
AcDbEntity
8
0
100
AcDbPolyline
90
8
70
1
43
0.0
10
-93.512499999999733
20
5.223232378421768
10
-106.51249999999969
20
5.223232378421784
42
-0.4142135623731048
10
-107.0124999999997
20
5.7232323784217716
10
-107.01249999999972
20
18.723232378421738
42
-0.41421356237307161
10
-106.5124999999997
20
19.223232378421741
10
-93.512499999999733
20
19.223232378421752
42
-0.41421356237308721
10
-93.012499999999747
20
18.723232378421738
10
-93.012499999999733
20
5.7232323784217716
42
-0.41421356237307033
0
LWPOLYLINE
5
129
100
AcDbEntity
8
0
100
AcDbPolyline
90
8
70
1
43
0.0
10
-111.27499999999968
20
0.1732323784217723
10
-98.274999999999721
20
0.17323237842175432
42
-0.41421356237310542
10
-97.774999999999721
20
-0.32676762157823497
10
-97.774999999999693
20
-13.326767621578185
42
-0.41421356237307549
10
-98.274999999999707
20
-13.826767621578192
10
-111.27499999999966
20
-13.826767621578192
42
-0.41421356237309503
10
-111.77499999999966
20
-13.326767621578185
10
-111.77499999999968
20
-0.32676762157823458
42
-0.41421356237307339
0
LWPOLYLINE
5
130
100
AcDbEntity
8
0
100
AcDbPolyline
90
8
70
1
43
0.0
10
35.074999999999875
20
-13.826767621578146
10
22.074999999999925
20
-13.826767621578146
42
-0.41421356237309115
10
21.574999999999918
20
-13.326767621578137
10
21.574999999999953
20
-0.32676762157817013
42
-0.41421356237308887
10
22.074999999999942
20
0.17323237842181663
10
35.074999999999854
20
0.17323237842181871
42
-0.41421356237309115
10
35.574999999999868
20
-0.32676762157819056
10
35.574999999999889
20
-13.326767621578139
42
-0.41421356237308982
0
LWPOLYLINE
5
131
100
AcDbEntity
8
0
100
AcDbPolyline
90
8
70
1
43
0.0
10
17.31249999999994
20
19.223232378421784
10
30.312499999999893
20
19.223232378421791
42
-0.41421356237309243
10
30.812499999999901
20
18.72323237842178
10
30.812499999999901
20
5.7232323784218142
42
-0.41421356237309048
10
30.312499999999893
20
5.223232378421808
10
17.31249999999994
20
5.2232323784218062
42
-0.41421356237309698
10
16.812499999999932
20
5.7232323784218124
10
16.812499999999932
20
18.72323237842178
42
-0.41421356237309892
0
LWPOLYLINE
5
132
100
AcDbEntity
8
0
100
AcDbPolyline
90
8
70
1
43
0.0
10
-74.462499999999793
20
5.2232323784217725
10
-87.46249999999975
20
5.2232323784217884
42
-0.4142135623731048
10
-87.96249999999975
20
5.7232323784217769
10
-87.962499999999736
20
18.723232378421745
42
-0.41421356237311324
10
-87.46249999999975
20
19.223232378421727
10
-74.462499999999807
20
19.223232378421748
42
-0.41421356237310414
10
-73.962499999999807
20
18.723232378421745
10
-73.962499999999793
20
5.7232323784217591
42
-0.41421356237309309
0
LWPOLYLINE
5
133
100
AcDbEntity
8
0
100
AcDbPolyline
90
8
70
1
43
0.0
10
-92.224999999999739
20
0.1732323784217723
10
-79.224999999999767
20
0.17323237842177541
42
-0.41421356237309698
10
-78.724999999999767
20
-0.32676762157822609
10
-78.724999999999767
20
-13.326767621578192
42
-0.4142135623730846
10
-79.224999999999767
20
-13.826767621578181
10
-92.224999999999739
20
-13.826767621578197
42
-0.41421356237309892
10
-92.724999999999724
20
-13.326767621578202
10
-92.724999999999739
20
-0.32676762157823458
42
-0.41421356237307339
0
LWPOLYLINE
5
134
100
AcDbEntity
8
0
100
AcDbPolyline
90
8
70
1
43
0.0
10
54.124999999999837
20
-13.82676762157811
10
41.124999999999886
20
-13.826767621578124
42
-0.41421356237310414
10
40.624999999999872
20
-13.326767621578119
10
40.624999999999858
20
-0.32676762157816125
42
-0.41421356237310175
10
41.124999999999865
20
0.17323237842184319
10
54.124999999999837
20
0.17323237842185743
42
-0.41421356237311374
10
54.624999999999858
20
-0.32676762157814615
10
54.624999999999858
20
-13.326767621578103
42
-0.41421356237311324
0
LWPOLYLINE
5
135
100
AcDbEntity
8
0
100
AcDbPolyline
90
8
70
1
43
0.0
10
36.362499999999898
20
19.223232378421805
10
49.362499999999855
20
19.223232378421834
42
-0.41421356237310542
10
49.862499999999855
20
18.723232378421827
10
49.862499999999855
20
5.7232323784218586
42
-0.41421356237310281
10
49.362499999999855
20
5.2232323784218524
10
36.362499999999898
20
5.2232323784217911
42
-0.41421356237308915
10
35.862499999999855
20
5.7232323784218151
10
35.862499999999891
20
18.72323237842178
42
-0.41421356237310936
0
LWPOLYLINE
5
136
100
AcDbEntity
8
0
100
AcDbPolyline
90
8
70
1
43
0.0
10
-73.174999999999784
20
0.17323237842178121
10
-60.174999999999812
20
0.17323237842180858
42
-0.41421356237309553
10
-59.674999999999827
20
-0.32676762157818168
10
-59.674999999999827
20
-13.326767621578156
42
-0.41421356237309503
10
-60.174999999999812
20
-13.826767621578146
10
-73.174999999999784
20
-13.826767621578192
42
-0.41421356237309503
10
-73.674999999999784
20
-13.326767621578192
10
-73.674999999999784
20
-0.32676762157822564
42
-0.41421356237309781
0
LWPOLYLINE
5
137
100
AcDbEntity
8
0
100
AcDbPolyline
90
8
70
1
43
0.0
10
73.174999999999784
20
-13.826767621578085
10
60.174999999999805
20
-13.826767621578107
42
-0.4142135623730937
10
59.674999999999812
20
-13.326767621578101
10
59.674999999999812
20
-0.32676762157814349
42
-0.41421356237310175
10
60.174999999999827
20
0.17323237842186096
10
73.174999999999699
20
0.17323237842186645
42
-0.41421356237311374
10
73.674999999999727
20
-0.3267676215781371
10
73.674999999999756
20
-13.326767621578096
42
-0.41421356237307422
0
LWPOLYLINE
5
138
100
AcDbEntity
8
0
100
AcDbPolyline
90
40
70
1
43
0.0
10
11.124999999999998
20
-35.001767621578061
10
88.087499999999736
20
-35.001767621578054
42
0.41421356237309503
10
90.08749999999975
20
-33.001767621578047
10
90.087499999999721
20
-17.951767621578092
42
-0.41421356237309404
10
92.087499999999721
20
-15.951767621578101
10
111.89999999999971
20
-15.951767621578089
42
0.41421356237309537
10
113.89999999999971
20
-13.951767621578089
10
113.89999999999971
20
0.29823237842186323
42
0.41421356237309581
10
111.89999999999971
20
2.298232378421861
10
111.13749999999966
20
2.298232378421873
42
-0.41421356237309503
10
109.13749999999966
20
4.2982323784218659
10
109.13749999999966
20
19.348232378421837
42
0.41421356237309503
10
107.13749999999968
20
21.348232378421834
10
106.37499999999969
20
21.348232378421848
42
-0.41421356237309503
10
104.3749999999997
20
23.348232378421841
10
104.3749999999997
20
38.398232378421774
42
0.41421356237309959
10
102.37499999999969
20
40.398232378421781
10
-102.37499999999972
20
40.398232378421739
42
0.4142135623730957
10
-104.37499999999972
20
38.398232378421739
10
-104.37499999999972
20
23.348232378421734
42
-0.41421356237309503
10
-106.37499999999972
20
21.348232378421734
10
-107.1374999999997
20
21.348232378421734
42
0.41421356237309631
10
-109.1374999999997
20
19.348232378421731
10
-109.13749999999968
20
4.29823237842177
42
-0.41421356237309515
10
-111.13749999999968
20
2.2982323784217673
10
-111.89999999999969
20
2.2982323784217678
42
0.41421356237309559
10
-113.89999999999969
20
0.29823237842176487
10
-113.89999999999966
20
-13.951767621578188
42
0.4142135623730957
10
-111.89999999999969
20
-15.951767621578185
10
-92.087499999999736
20
-15.951767621578183
42
-0.4142135623730947
10
-90.08749999999975
20
-17.951767621578174
10
-90.087499999999721
20
-33.001767621578153
42
0.41421356237309503
10
-88.08749999999975
20
-35.001767621578146
10
-11.124999999999945
20
-35.001767621578153
42
-0.41421356237309503
10
-9.1249999999999449
20
-37.001767621578161
10
-9.1249999999999432
20
-37.764267621578071
42
0.41421356237309437
10
-7.1249999999999432
20
-39.764267621578071
10
7.1249999999999964
20
-39.764267621578071
42
0.41421356237309503
10
9.1249999999999982
20
-37.764267621578071
10
9.1249999999999929
20
-37.001767621578068
42
-0.41421356237309437
0
LWPOLYLINE
5
139
100
AcDbEntity
8
0
100
AcDbPolyline
90
23
70
1
43
0.0
10
27.28074999999988
20
-18.376767621578111
42
0.41421356237310153
10
27.780749999999877
20
-18.876767621578121
10
36.512999999999877
20
-18.876767621578118
42
0.41421356237310153
10
37.012999999999877
20
-18.376767621578111
42
-0.41421356237309243
10
37.512999999999877
20
-17.876767621578104
10
50.65674999999986
20
-17.876767621578121
42
-0.41421356237309631
10
51.156749999999832
20
-18.376767621578093
42
0.41421356237309243
10
51.656749999999846
20
-18.876767621578104
10
53.149999999999828
20
-18.876767621578104
42
0.41421356237308982
10
53.649999999999821
20
-18.376767621578093
42
-0.41421356237310542
10
54.149999999999835
20
-17.876767621578086
10
60.149999999999828
20
-17.876767621578086
42
-0.41421356237309503
10
60.649999999999821
20
-18.376767621578093
42
0.41421356237309243
10
61.149999999999821
20
-18.876767621578104
10
87.462499999999721
20
-18.87676762157809
42
-0.41421356237308593
10
87.962499999999736
20
-19.3767676215781
10
87.962499999999736
20
-32.376767621578054
42
-0.41421356237307161
10
87.462499999999736
20
-32.876767621578061
10
13.636999999999979
20
-32.876767621578061
42
-0.41421356237309503
10
13.136999999999972
20
-32.376767621578054
10
13.136999999999937
20
-18.376767621578118
42
-0.41421356237309764
10
13.636999999999944
20
-17.876767621578114
10
26.780749999999873
20
-17.8767676215781
42
-0.41421356237309243
0
ENDSEC
0
SECTION
2
OBJECTS
0
DICTIONARY
5
C
100
AcDbDictionary
3
ACAD_GROUP
350
D
3
ACAD_MLINESTYLE
350
17
0
DICTIONARY
5
D
100
AcDbDictionary
0
DICTIONARY
5
1A
330
C
100
AcDbDictionary
0
DICTIONARY
5
17
100
AcDbDictionary
0
ENDSEC
0
EOF
