0
SECTION
2
HEADER
9
$INSUNITS
70
4
9
$ACADVER
1
AC1014
9
$HANDSEED
5
FFFF
0
ENDSEC
0
SECTION
2
TABLES
0
TABLE
2
VPORT
5
8
100
AcDbSymbolTable
0
ENDTAB
0
TABLE
2
LTYPE
5
5
100
AcDbSymbolTable
0
LTYPE
5
14
100
AcDbSymbolTableRecord
100
AcDbLinetypeTableRecord
2
BYBLOCK
70
0
0
LTYPE
5
15
100
AcDbSymbolTableRecord
100
AcDbLinetypeTableRecord
2
BYLAYER
70
0
0
LTYPE
5
16
100
AcDbSymbolTableRecord
100
AcDbLinetypeTableRecord
2
DASHED
70
0
3
Dashed __ __ __ __ __ __ __ __ __ __ __ __ __ _
72
65
73
2
40
0.75
49
0.5
74
0
49
-0.25
74
0
0
ENDTAB
0
TABLE
2
LAYER
5
2
100
AcDbSymbolTable
70
2
0
LAYER
5
50
100
AcDbSymbolTableRecord
100
AcDbLayerTableRecord
2
0
70
0
62
7
6
CONTINUOUS
0
ENDTAB
0
TABLE
2
STYLE
5
3
100
AcDbSymbolTable
70
1
0
STYLE
5
11
100
AcDbSymbolTableRecord
100
AcDbTextStyleTableRecord
2
STANDARD
70
0
0
ENDTAB
0
TABLE
2
VIEW
5
6
100
AcDbSymbolTable
70
0
0
ENDTAB
0
TABLE
2
UCS
5
7
100
AcDbSymbolTable
70
0
0
ENDTAB
0
TABLE
2
APPID
5
9
100
AcDbSymbolTable
70
2
0
APPID
5
12
100
AcDbSymbolTableRecord
100
AcDbRegAppTableRecord
2
ACAD
70
0
0
ENDTAB
0
TABLE
2
DIMSTYLE
5
A
100
AcDbSymbolTable
70
1
0
ENDTAB
0
TABLE
2
BLOCK_RECORD
5
1
100
AcDbSymbolTable
70
1
0
BLOCK_RECORD
5
1F
100
AcDbSymbolTableRecord
100
AcDbBlockTableRecord
2
*MODEL_SPACE
0
BLOCK_RECORD
5
1B
100
AcDbSymbolTableRecord
100
AcDbBlockTableRecord
2
*PAPER_SPACE
0
ENDTAB
0
ENDSEC
0
SECTION
2
BLOCKS
0
BLOCK
5
20
100
AcDbEntity
100
AcDbBlockBegin
2
*MODEL_SPACE
0
ENDBLK
5
21
100
AcDbEntity
100
AcDbBlockEnd
0
BLOCK
5
1C
100
AcDbEntity
100
AcDbBlockBegin
2
*PAPER_SPACE
0
ENDBLK
5
1D
100
AcDbEntity
100
AcDbBlockEnd
0
ENDSEC
0
SECTION
2
ENTITIES
0
ARC
5
100
100
AcDbEntity
8
0
100
AcDbCircle
10
-112.79996527045043
20
0.88121527043554482
30
0
40
1.500034729951546
210
0
220
0
230
1
100
AcDbArc
50
90.001326540360608
51
179.99867345992942
0
ARC
5
101
100
AcDbEntity
8
0
100
AcDbCircle
10
-108.03746527045035
20
19.93121527043553
30
0
40
1.5000347299515422
210
0
220
0
230
1
100
AcDbArc
50
90.001326540363323
51
179.99867345992942
0
ARC
5
102
100
AcDbEntity
8
0
100
AcDbCircle
10
-112.79998575648973
20
-15.168735756415089
30
0
40
1.5000142435778232
210
0
220
0
230
1
100
AcDbArc
50
180.00054406018035
51
269.99945594315261
0
ARC
5
103
100
AcDbEntity
8
0
100
AcDbCircle
10
110.53746511225789
20
3.3812151122850178
30
0
40
0.99996511286596079
210
0
220
0
230
-1
100
AcDbArc
50
179.99800101230042
51
270.0019989901154
0
ARC
5
104
100
AcDbEntity
8
0
100
AcDbCircle
10
108.03749941350341
20
19.93124941358149
30
0
40
1.5000005864965518
210
0
220
-0
230
1
100
AcDbArc
50
2.2394272795856104e-05
51
89.999977597497093
0
LINE
5
105
100
AcDbEntity
8
0
100
AcDbLine
10
109.53749999999516
20
3.3812499999850614
30
0
11
109.53749999999985
21
19.931249999985059
31
0
0
LINE
5
106
100
AcDbEntity
8
0
100
AcDbLine
10
9.4999999999953157
20
-38.981250000014867
30
0
11
9.4999999999923261
21
-36.718750000014907
31
0
0
ARC
5
107
100
AcDbEntity
8
0
100
AcDbCircle
10
103.27499941349977
20
38.981249413495021
30
0
40
1.5000005864930879
210
0
220
-0
230
1
100
AcDbArc
50
2.2394272795856104e-05
51
89.999977597355425
0
ARC
5
108
100
AcDbEntity
8
0
100
AcDbCircle
10
7.9999584415226739
20
-38.981208441542258
30
0
40
1.5000415590483309
210
-0
220
0
230
1
100
AcDbArc
50
270.00158737292332
51
359.99841262744701
0
LINE
5
109
100
AcDbEntity
8
0
100
AcDbLine
10
-90.487499999999699
20
-17.668750000014924
30
0
11
-90.487499999999983
21
-34.218750000014914
31
0
0
LINE
5
110
100
AcDbEntity
8
0
100
AcDbLine
10
108.0374999999998
20
21.431250000077927
30
0
11
105.77499999999986
21
21.431250000060352
31
0
0
LINE
5
111
100
AcDbEntity
8
0
100
AcDbLine
10
103.27499999999986
20
40.481249999987988
30
0
11
-103.27499999999993
21
40.481249999985003
31
0
0
ARC
5
112
100
AcDbEntity
8
0
100
AcDbCircle
10
-88.987485756489249
20
-34.218735756414588
30
0
40
1.5000142435783561
210
0
220
0
230
1
100
AcDbArc
50
180.00054406018035
51
269.99945594313471
0
ARC
5
113
100
AcDbEntity
8
0
100
AcDbCircle
10
-105.77499925291995
20
22.431249252985079
30
0
40
0.99999925292500691
210
0
220
-0
230
-1
100
AcDbArc
50
-90.000042804557708
51
4.279952897278051e-05
0
LINE
5
114
100
AcDbEntity
8
0
100
AcDbLine
10
90.487499999992792
20
-34.218750000014886
30
0
11
90.487499999995208
21
-17.668750000014882
31
0
0
ARC
5
115
100
AcDbEntity
8
0
100
AcDbCircle
10
-103.27496527040543
20
38.981215270390543
30
0
40
1.500034729996496
210
0
220
0
230
1
100
AcDbArc
50
90.001326542079099
51
179.99867345828093
0
ARC
5
116
100
AcDbEntity
8
0
100
AcDbCircle
10
-10.499968526190065
20
-36.718718526114941
30
0
40
0.99996852669305747
210
-0
220
0
230
-1
100
AcDbArc
50
-0.0018033783192234322
51
90.001803373233912
0
ARC
5
117
100
AcDbEntity
8
0
100
AcDbCircle
10
105.77496511225789
20
22.431215112285024
30
0
40
0.99996511286596079
210
0
220
0
230
-1
100
AcDbArc
50
179.99800101230042
51
270.0019989901154
0
LINE
5
118
100
AcDbEntity
8
0
100
AcDbLine
10
-114.29999999999994
20
0.88124999998502918
30
0
11
-114.29999999999993
21
-15.168750000014928
31
0
0
ARC
5
119
100
AcDbEntity
8
0
100
AcDbCircle
10
112.79999941350346
20
0.88124941358148912
30
0
40
1.5000005864965873
210
0
220
-0
230
1
100
AcDbArc
50
2.2377991970151992e-05
51
89.999977597494919
0
LINE
5
120
100
AcDbEntity
8
0
100
AcDbLine
10
-9.4999999999996998
20
-36.718750000014893
30
0
11
-9.4999999999999716
21
-38.981250000014882
31
0
0
LINE
5
121
100
AcDbEntity
8
0
100
AcDbLine
10
-7.9999999999999636
20
-40.481249999925303
30
0
11
8.0000000000000107
21
-40.481250000014903
31
0
0
LINE
5
122
100
AcDbEntity
8
0
100
AcDbLine
10
91.487499999999926
20
-16.668749999990187
30
0
11
112.7999999999999
21
-16.668750000014867
31
0
0
ARC
5
123
100
AcDbEntity
8
0
100
AcDbCircle
10
10.499985596320002
20
-36.718735596314936
30
0
40
0.99998559642404217
210
0
220
0
230
-1
100
AcDbArc
50
89.999174718040649
51
180.00082528297372
0
LINE
5
124
100
AcDbEntity
8
0
100
AcDbLine
10
-110.53749999999994
20
2.3812500000276553
30
0
11
-112.79999999999994
21
2.3812499999850529
31
0
0
ARC
5
125
100
AcDbEntity
8
0
100
AcDbCircle
10
112.79999941349629
20
-15.168749413518373
30
0
40
1.5000005864966095
210
-0
220
0
230
1
100
AcDbArc
50
270.00002240277865
51
359.99997760572717
0
LINE
5
126
100
AcDbEntity
8
0
100
AcDbLine
10
-105.77499999999993
20
21.43125000002766
30
0
11
-108.03749999999994
21
21.431249999985035
31
0
0
ARC
5
127
100
AcDbEntity
8
0
100
AcDbCircle
10
-7.9999857564898065
20
-38.981235756415138
30
0
40
1.5000142435777899
210
0
220
0
230
1
100
AcDbArc
50
180.00054406018035
51
269.99945594315454
0
LINE
5
128
100
AcDbEntity
8
0
100
AcDbLine
10
114.29999999999279
20
-15.16875000001489
30
0
11
114.29999999999993
21
0.88124999998505937
31
0
0
LINE
5
129
100
AcDbEntity
8
0
100
AcDbLine
10
10.500000000000018
20
-35.7187499999172
30
0
11
88.987499999999926
21
-35.718750000014872
31
0
0
LINE
5
130
100
AcDbEntity
8
0
100
AcDbLine
10
-109.53749999999985
20
19.931249999985031
30
0
11
-109.53750000000053
21
3.3812499999850321
31
0
0
LINE
5
131
100
AcDbEntity
8
0
100
AcDbLine
10
-112.79999999999994
20
-16.668749999925289
30
0
11
-91.487499999999926
21
-16.668749999994684
31
0
0
LINE
5
132
100
AcDbEntity
8
0
100
AcDbLine
10
112.7999999999999
20
2.3812500000779617
30
0
11
110.53749999999994
21
2.3812500000603576
31
0
0
LINE
5
133
100
AcDbEntity
8
0
100
AcDbLine
10
-88.987499999999926
20
-35.718749999925322
30
0
11
-10.499999999999982
21
-35.718749999994628
31
0
0
ARC
5
134
100
AcDbEntity
8
0
100
AcDbCircle
10
-110.53749925291996
20
3.3812492529851488
30
0
40
0.99999925292507097
210
0
220
-0
230
-1
100
AcDbArc
50
-90.000042804561772
51
4.279952897278051e-05
0
LINE
5
135
100
AcDbEntity
8
0
100
AcDbLine
10
-104.77499999999989
20
38.981249999985032
30
0
11
-104.77500000000052
21
22.431249999985042
31
0
0
ARC
5
136
100
AcDbEntity
8
0
100
AcDbCircle
10
91.487485596319971
20
-17.668735596314949
30
0
40
0.9999855964240022
210
0
220
0
230
-1
100
AcDbArc
50
89.99917471804207
51
180.00082528297372
0
LINE
5
137
100
AcDbEntity
8
0
100
AcDbLine
10
104.77499999999523
20
22.43124999998507
30
0
11
104.77499999999274
21
38.98124999998506
31
0
0
ARC
5
138
100
AcDbEntity
8
0
100
AcDbCircle
10
-91.487499252919889
20
-17.668749252914871
30
0
40
0.99999925292496739
210
-0
220
0
230
-1
100
AcDbArc
50
-4.2799528968783063e-05
51
90.000042804565069
0
ARC
5
139
100
AcDbEntity
8
0
100
AcDbCircle
10
88.987499413496423
20
-34.218749413518509
30
0
40
1.5000005864964763
210
-0
220
0
230
1
100
AcDbArc
50
270.00002240277485
51
359.99997760572717
0
LWPOLYLINE
5
140
100
AcDbEntity
8
0
100
AcDbPolyline
90
8
70
1
43
0.0
10
-87.949999999999733
20
37.456249999984998
42
0.41421200000191305
10
-88.44999999999996
20
37.956249999985033
10
-102.04999999999998
20
37.956249999988238
42
0.41421200000189223
10
-102.55000000000017
20
37.45624999998499
10
-102.55000000000017
20
24.456249999985026
42
0.41421199999605474
10
-102.04999999999998
20
23.956249999985037
10
-88.449999999999974
20
23.956249999991801
42
0.41421199999606251
10
-87.949999999999946
20
24.456249999985033
0
LWPOLYLINE
5
141
100
AcDbEntity
8
0
100
AcDbPolyline
90
8
70
1
43
0.0
10
73.974999999993187
20
-0.64375000001489979
10
73.97499999999998
20
-13.643750000014904
42
-0.41421199998027586
10
73.474999999999937
20
-14.143749999988128
10
59.874999999999972
20
-14.143750000014894
42
-0.4142119999861551
10
59.374999999996831
20
-13.643750000014908
10
59.374999999996859
20
-0.64375000001490146
42
-0.41421200004454162
10
59.874999999999979
20
-0.14374999994169194
10
73.474999999999937
20
-0.14375000001490579
42
-0.41421200003878061
0
LWPOLYLINE
5
142
100
AcDbEntity
8
0
100
AcDbPolyline
90
8
70
1
43
0.0
10
97.474999999996754
20
-13.64375000001491
10
97.474999999996754
20
-0.64375000001490124
42
-0.4142120000446558
10
97.974999999999923
20
-0.14374999994169013
10
111.57499999999985
20
-0.14375000001492882
42
-0.41421200003882103
10
112.07499999999312
20
-0.6437500000149039
10
112.07499999999985
20
-13.643750000014913
42
-0.41421199998025637
10
111.57499999999986
20
-14.143749999988131
10
97.974999999999923
20
-14.14375000001491
42
-0.41421199998611608
0
LWPOLYLINE
5
143
100
AcDbEntity
8
0
100
AcDbPolyline
90
8
70
1
43
0.0
10
11.74999999999679
20
37.456249999985019
10
11.749999999996746
20
24.456249999985054
42
0.41421199999776387
10
12.249999999999979
20
23.956249999985051
10
25.849999999999987
20
23.956249999991822
42
0.41421199999195751
10
26.349999999999959
20
24.456249999985044
10
26.349999999993173
20
37.456249999985012
42
0.41421199999778457
10
25.849999999999987
20
37.956249999985062
10
12.249999999999993
20
37.956249999988259
42
0.41421200000372621
0
CIRCLE
5
144
100
AcDbEntity
8
0
100
AcDbCircle
10
-33.337499999999977
20
11.90624999998507
30
0
40
0.80000000000000071
210
0
220
0
230
1
0
CIRCLE
5
145
100
AcDbEntity
8
0
100
AcDbCircle
10
85.724999999999937
20
30.956249999985065
30
0
40
0.80000000000000071
210
0
220
0
230
1
0
LWPOLYLINE
5
146
100
AcDbEntity
8
0
100
AcDbPolyline
90
8
70
1
43
0.0
10
-63.949999999999967
20
37.956249999988245
10
-50.349999999999937
20
37.95624999998499
42
-0.4142119999977924
10
-49.850000000006752
20
37.456249999985005
10
-49.84999999999993
20
24.456249999985037
42
-0.41421199999199909
10
-50.34999999999993
20
23.956249999991805
10
-63.949999999999974
20
23.95624999998504
42
-0.41421199999606251
10
-64.450000000000188
20
24.456249999985033
10
-64.450000000000173
20
37.456249999984998
42
-0.41421200000192082
0
CIRCLE
5
147
100
AcDbEntity
8
0
100
AcDbCircle
10
9.5249999999999453
20
30.956249999985054
30
0
40
0.7999999999999996
210
0
220
0
230
1
0
LWPOLYLINE
5
148
100
AcDbEntity
8
0
100
AcDbPolyline
90
8
70
1
43
0.0
10
-78.924999999999955
20
-0.14375000001496019
10
-92.524999999999963
20
-0.14374999994172349
42
0.41421200004289144
10
-93.025000000000148
20
-0.64375000001493343
10
-93.025000000000148
20
-13.64375000001494
42
0.41421199998435493
10
-92.524999999999963
20
-14.143750000014883
10
-78.924999999999955
20
-14.143749999988163
42
0.41421199998434965
10
-78.424999999999955
20
-13.643750000014943
10
-78.424999999999699
20
-0.6437500000149341
42
0.41421200004294717
0
LWPOLYLINE
5
149
100
AcDbEntity
8
0
100
AcDbPolyline
90
24
70
1
43
0.0
10
19.049999999999986
20
-15.668750000014901
42
-0.41423199999876464
10
18.050000000000043
20
-16.668750000012601
10
11.024999999999995
20
-16.668750000014892
42
0.4141973333433428
10
9.5250000000399844
20
-18.168750000014885
10
9.5249999999999773
20
-20.431250000014924
42
-0.41423199999873961
10
8.5249999999999932
20
-21.431250000012621
10
-8.5249999999999702
20
-21.431250000014927
42
-0.41422199997677711
10
-9.525000000000281
20
-20.431250000014924
10
-9.5250000000000021
20
-18.168750000014889
42
0.41420800000018781
10
-11.024999999999965
20
-16.66874999999489
10
-18.050000000000001
20
-16.668750000014889
42
-0.4142219999767553
10
-19.050000000000288
20
-15.668750000014896
10
-19.050000000000004
20
1.3812499999850725
42
-0.41423400001921834
10
-18.04999999999999
20
2.3812500000424808
10
-15.787500000000012
20
2.3812499999850649
42
0.41419999999971024
10
-14.287499999999948
20
3.8812499999850711
10
-14.287500000007389
20
20.431249999985074
42
-0.41423400001920263
10
-13.287500000000009
20
21.431250000042471
10
13.287499999999961
20
21.431249999985049
42
-0.41421400000573649
10
14.287499999994722
20
20.431249999985074
10
14.287500000000046
20
3.881249999985072
42
0.41421333333265092
10
15.787500000000005
20
2.3812499999950862
10
18.050000000000036
20
2.3812499999850658
42
-0.41421400000572434
10
19.049999999994725
20
1.38124999998507
0
CIRCLE
5
150
100
AcDbEntity
8
0
100
AcDbCircle
10
-47.61874999999997
20
30.956249999985033
30
0
40
0.80000000000000071
210
0
220
0
230
1
0
LWPOLYLINE
5
151
100
AcDbEntity
8
0
100
AcDbPolyline
90
8
70
1
43
0.0
10
-47.968749999999972
20
-33.193749999988157
42
0.41421199998027458
10
-47.468749999999964
20
-32.693750000014902
10
-47.46875000000675
20
-19.693750000014987
42
0.41421200003885028
10
-47.968749999999972
20
-19.193750000014933
10
-61.568749999999959
20
-19.193749999941694
42
0.41421200004294761
10
-62.068750000000179
20
-19.69375000001498
10
-62.068750000000179
20
-32.693750000014902
42
0.41421199998437186
10
-61.568749999999959
20
-33.19375000001493
0
LWPOLYLINE
5
152
100
AcDbEntity
8
0
100
AcDbPolyline
90
8
70
1
43
0.0
10
-73.474999999999937
20
-14.143750000014936
42
-0.41421199998431463
10
-73.975000000000193
20
-13.643750000014943
10
-73.975000000000122
20
-0.64375000001493554
42
-0.41421200004287029
10
-73.474999999999937
20
-0.14374999994172818
10
-59.874999999999972
20
-0.14375000001495225
42
-0.41421200004298875
10
-59.374999999999751
20
-0.64375000001493377
10
-59.374999999999972
20
-13.64375000001494
42
-0.41421199998434577
10
-59.874999999999972
20
-14.14374999998816
0
LWPOLYLINE
5
153
100
AcDbEntity
8
0
100
AcDbPolyline
90
8
70
1
43
0.0
10
35.874999999993207
20
-0.64375000001491767
10
35.87500000000005
20
-13.643750000014929
42
-0.41421199998026415
10
35.374999999999979
20
-14.143749999988149
10
21.774999999999984
20
-14.143750000014911
42
-0.4142119999860901
10
21.274999999996751
20
-13.643750000014927
10
21.274999999996762
20
-0.64375000001491944
42
-0.41421200004468406
10
21.774999999999991
20
-0.14374999994170659
10
35.374999999999979
20
-0.14375000001493243
42
-0.41421200003881231
0
CIRCLE
5
154
100
AcDbEntity
8
0
100
AcDbCircle
10
33.33749999999997
20
11.906249999985071
30
0
40
0.80000000000000071
210
0
220
0
230
1
0
LWPOLYLINE
5
155
100
AcDbEntity
8
0
100
AcDbPolyline
90
8
70
1
43
0.0
10
30.799999999996693
20
37.456249999985012
10
30.799999999996686
20
24.456249999985044
42
0.41421199999778208
10
31.299999999999926
20
23.95624999998504
10
44.89999999999992
20
23.956249999991847
42
0.4142119999920017
10
45.399999999999935
20
24.456249999985062
10
45.399999999993099
20
37.45624999998504
42
0.41421199999776898
10
44.899999999999935
20
37.95624999998509
10
31.299999999999926
20
37.956249999988259
42
0.41421200000374442
0
LWPOLYLINE
5
156
100
AcDbEntity
8
0
100
AcDbPolyline
90
8
70
1
43
0.0
10
-35.374999999999986
20
-0.14374999994170629
42
0.41421200004466047
10
-35.875000000003169
20
-0.64375000001491767
10
-35.875000000003226
20
-13.643750000014926
42
0.4142119999860836
10
-35.374999999999986
20
-14.143750000014919
10
-21.774999999999991
20
-14.143749999988147
42
0.41421199998027064
10
-21.274999999999977
20
-13.643750000014929
10
-21.275000000006766
20
-0.64375000001491811
42
0.41421200003877762
10
-21.774999999999984
20
-0.14375000001492655
0
CIRCLE
5
157
100
AcDbEntity
8
0
100
AcDbCircle
10
71.437499999999943
20
11.906249999985096
30
0
40
0.80000000000000071
210
0
220
0
230
1
0
CIRCLE
5
158
100
AcDbEntity
8
0
100
AcDbCircle
10
-69.056249999999935
20
-26.193750000014916
30
0
40
0.80000000000000071
210
0
220
0
230
1
0
LWPOLYLINE
5
159
100
AcDbEntity
8
0
100
AcDbPolyline
90
8
70
1
43
0.0
10
73.662499999996697
20
18.406249999985075
42
-0.41421200004469189
10
74.162499999999952
20
18.906250000058328
10
87.76249999999996
20
18.906249999985047
42
-0.41421200003890102
10
88.262499999993125
20
18.406249999985075
10
88.262499999999903
20
5.406249999985083
42
-0.41421199998031361
10
87.76249999999996
20
4.9062500000118447
10
74.16249999999998
20
4.9062499999850937
42
-0.41421199998611025
10
73.662499999996754
20
5.4062499999850839
0
LWPOLYLINE
5
160
100
AcDbEntity
8
0
100
AcDbPolyline
90
8
70
1
43
0.0
10
78.424999999996714
20
-0.64375000001490146
10
78.424999999996714
20
-13.643750000014904
42
0.41421199998612651
10
78.924999999999898
20
-14.143750000014897
10
92.524999999999906
20
-14.143749999988133
42
0.41421199998029018
10
93.024999999999963
20
-13.643750000014903
10
93.024999999993128
20
-0.6437500000149019
42
0.41421200003882302
10
92.524999999999906
20
-0.14375000001491456
10
78.924999999999926
20
-0.14374999994169019
42
0.41421200004464087
0
LWPOLYLINE
5
161
100
AcDbEntity
8
0
100
AcDbPolyline
90
8
70
1
43
0.0
10
55.112499999999983
20
4.906249999985091
10
68.712499999999935
20
4.9062500000118492
42
0.41421199998028563
10
69.212499999999935
20
5.4062499999850866
10
69.212499999993099
20
18.406249999985075
42
0.41421200003884767
10
68.712499999999892
20
18.906249999985061
10
55.112499999999933
20
18.906250000058325
42
0.41421200004473868
10
54.612499999996729
20
18.406249999985071
10
54.612499999996793
20
5.4062499999850866
42
0.41421199998615771
0
LWPOLYLINE
5
162
100
AcDbEntity
8
0
100
AcDbPolyline
90
8
70
1
43
0.0
10
-68.899999999999935
20
24.456249999985033
42
-0.41421199999607294
10
-69.399999999999949
20
23.956249999991801
10
-82.999999999999901
20
23.95624999998504
42
-0.41421199999609115
10
-83.500000000000213
20
24.456249999985033
10
-83.500000000000213
20
37.456249999985026
42
-0.41421200000191821
10
-82.999999999999901
20
37.956249999988252
10
-69.399999999999935
20
37.956249999985033
42
-0.41421200000191044
10
-68.89999999999975
20
37.456249999984998
0
LWPOLYLINE
5
163
100
AcDbEntity
8
0
100
AcDbPolyline
90
8
70
1
43
0.0
10
69.399999999999906
20
23.95624999998509
42
-0.41421199999779246
10
68.899999999996709
20
24.456249999985062
10
68.899999999996723
20
37.45624999998504
42
-0.41421200000368719
10
69.399999999999892
20
37.95624999998828
10
82.999999999999901
20
37.956249999985062
42
-0.41421199999780023
10
83.49999999999315
20
37.45624999998504
10
83.499999999999915
20
24.456249999985062
42
-0.41421199999194447
10
82.999999999999901
20
23.956249999991851
0
LWPOLYLINE
5
164
100
AcDbEntity
8
0
100
AcDbPolyline
90
8
70
1
43
0.0
10
-54.424999999999962
20
-0.14374999994172244
10
-40.824999999999989
20
-0.14375000001493143
42
-0.41421200003877967
10
-40.325000000006746
20
-0.64375000001493377
10
-40.324999999999989
20
-13.643750000014938
42
-0.41421199998026803
10
-40.824999999999989
20
-14.143749999988163
10
-54.424999999999962
20
-14.143750000014935
42
-0.41421199998613301
10
-54.925000000003152
20
-13.643750000014943
10
-54.925000000003159
20
-0.64375000001493321
42
-0.414212000044686
0
LWPOLYLINE
5
165
100
AcDbEntity
8
0
100
AcDbPolyline
90
8
70
1
43
0.0
10
-31.112500000003184
20
18.406249999985061
10
-31.11250000000323
20
5.4062499999850679
42
0.41421199998607705
10
-30.612499999999994
20
4.906249999985075
10
-17.01250000000001
20
4.9062500000118314
42
0.41421199998029212
10
-16.51250000000001
20
5.4062499999850697
10
-16.512500000006792
20
18.40624999998505
42
0.4142120000388399
10
-17.012500000000014
20
18.90624999998505
10
-30.612499999999979
20
18.906250000058304
42
0.41421200004466069
0
CIRCLE
5
166
100
AcDbEntity
8
0
100
AcDbCircle
10
85.724999999999937
20
38.100249999985067
30
0
40
1.0999999999999943
210
0
220
0
230
1
0
CIRCLE
5
167
100
AcDbEntity
8
0
100
AcDbCircle
10
-16.668750000000006
20
-26.193750000014905
30
0
40
0.80000000000000071
210
0
220
0
230
1
0
CIRCLE
5
168
100
AcDbEntity
8
0
100
AcDbCircle
10
47.624999999999972
20
30.956249999985069
30
0
40
0.80000000000000071
210
0
220
0
230
1
0
LWPOLYLINE
5
169
100
AcDbEntity
8
0
100
AcDbPolyline
90
8
70
1
43
0.0
10
-71.781249999999972
20
-33.193749999988157
10
-85.381249999999937
20
-33.193750000014937
42
-0.41421199998438224
10
-85.881250000000122
20
-32.693750000014902
10
-85.881250000000108
20
-19.693750000014983
42
-0.41421200004291514
10
-85.381249999999937
20
-19.193749999941701
10
-71.781249999999972
20
-19.193750000014937
42
-0.41421200004298392
10
-71.28124999999973
20
-19.693750000014983
10
-71.281249999999943
20
-32.693750000014902
42
-0.4142119999843718
0
LWPOLYLINE
5
170
100
AcDbEntity
8
0
100
AcDbPolyline
90
8
70
1
43
0.0
10
-7.0000000000000009
20
24.456249999985054
10
-7
20
37.45624999998504
42
-0.41421356237309503
10
-6.5000000000000018
20
37.95624999998504
10
6.4999999999999662
20
37.956249999985047
42
-0.4142135623730957
10
6.9999999999999662
20
37.45624999998504
10
6.9999999999999654
20
24.456249999985054
42
-0.41421356237309243
10
6.4999999999999671
20
23.956249999985051
10
-6.5
20
23.956249999985051
42
-0.4142135623730937
0
CIRCLE
5
171
100
AcDbEntity
8
0
100
AcDbCircle
10
16.668750000000021
20
-26.193750000014905
30
0
40
0.80000000000000071
210
0
220
0
230
1
0
CIRCLE
5
172
100
AcDbEntity
8
0
100
AcDbCircle
10
57.14999999999997
20
-7.1437500000149035
30
0
40
0.80000000000000071
210
0
220
0
230
1
0
LWPOLYLINE
5
173
100
AcDbEntity
8
0
100
AcDbPolyline
90
8
70
1
43
0.0
10
54.424999999999962
20
-14.143749999988129
42
0.41421199998030189
10
54.924999999999962
20
-13.643750000014908
10
54.924999999993219
20
-0.6437500000148999
42
0.41421200003881081
10
54.424999999999962
20
-0.14375000001489802
10
40.824999999999967
20
-0.14374999994170745
42
0.41421200004464026
10
40.32499999999682
20
-0.64375000001491711
10
40.324999999996756
20
-13.643750000014926
42
0.41421199998610048
10
40.824999999999967
20
-14.143750000014922
0
CIRCLE
5
174
100
AcDbEntity
8
0
100
AcDbCircle
10
-95.249999999999943
20
-7.1437500000149381
30
0
40
0.80000000000000071
210
0
220
0
230
1
0
LWPOLYLINE
5
175
100
AcDbEntity
8
0
100
AcDbPolyline
90
8
70
1
43
0.0
10
30.612499999999947
20
4.9062500000118314
42
0.41421199998032271
10
31.112499999999947
20
5.4062499999850679
10
31.112499999993105
20
18.406249999985057
42
0.41421200003881775
10
30.612499999999919
20
18.90624999998505
10
17.012499999999953
20
18.906250000058307
42
0.41421200004461645
10
16.512499999996738
20
18.406249999985054
10
16.512499999996788
20
5.4062499999850662
42
0.41421199998612779
10
17.012499999999989
20
4.9062499999850795
0
LWPOLYLINE
5
176
100
AcDbEntity
8
0
100
AcDbPolyline
90
8
70
1
43
0.0
10
-26.350000000003217
20
37.456249999985019
42
-0.41421200000376002
10
-25.850000000000001
20
37.956249999988259
10
-12.249999999999986
20
37.95624999998504
42
-0.4142119999977833
10
-11.75000000000675
20
37.456249999985019
10
-11.749999999999968
20
24.456249999985054
42
-0.41421199999199393
10
-12.249999999999982
20
23.956249999991822
10
-25.849999999999994
20
23.956249999985033
42
-0.41421199999783409
10
-26.350000000003241
20
24.456249999985047
0
LWPOLYLINE
5
177
100
AcDbEntity
8
0
100
AcDbPolyline
90
8
70
1
43
0.0
10
64.449999999993167
20
37.45624999998504
10
64.449999999999903
20
24.456249999985062
42
-0.41421199999198871
10
63.949999999999896
20
23.956249999991851
10
50.34999999999993
20
23.956249999985072
42
-0.41421199999783409
10
49.849999999996719
20
24.456249999985062
10
49.849999999996719
20
37.45624999998504
42
-0.41421200000364816
10
50.349999999999966
20
37.95624999998828
10
63.949999999999889
20
37.956249999985062
42
-0.41421199999783664
0
CIRCLE
5
178
100
AcDbEntity
8
0
100
AcDbCircle
10
95.249999999999986
20
-14.287750000014883
30
0
40
1.0999999999999943
210
0
220
0
230
1
0
CIRCLE
5
179
100
AcDbEntity
8
0
100
AcDbCircle
10
69.056249999999935
20
-26.193750000014884
30
0
40
0.80000000000000071
210
0
220
0
230
1
0
LWPOLYLINE
5
180
100
AcDbEntity
8
0
100
AcDbPolyline
90
8
70
1
43
0.0
10
-107.31250000000014
20
5.4062499999850511
10
-107.31250000000014
20
18.40624999998504
42
-0.41421200004297365
10
-106.81249999999993
20
18.906250000058293
10
-93.21249999999992
20
18.906249999985004
42
-0.41421200004291886
10
-92.712499999999721
20
18.40624999998504
10
-92.712499999999963
20
5.4062499999850537
42
-0.41421199998436919
10
-93.21249999999992
20
4.9062500000118137
10
-106.81249999999993
20
4.9062499999850466
42
-0.41421199998435948
0
LWPOLYLINE
5
181
100
AcDbEntity
8
0
100
AcDbPolyline
90
8
70
1
43
0.0
10
-33.493750000003203
20
-32.693750000014887
42
0.41421199998609137
10
-32.99374999999997
20
-33.193750000014916
10
-19.393749999999997
20
-33.193749999988135
42
0.41421199998025893
10
-18.893750000000008
20
-32.693750000014902
10
-18.893750000006754
20
-19.693750000014965
42
0.41421200003883335
10
-19.393749999999997
20
-19.193750000014909
10
-32.99374999999997
20
-19.193749999941684
42
0.41421200004468539
10
-33.493750000003203
20
-19.693750000014973
0
LWPOLYLINE
5
182
100
AcDbEntity
8
0
100
AcDbPolyline
90
8
70
1
43
0.0
10
7.0000000000000018
20
-24.456250000014933
10
7.0000000000000018
20
-37.456250000014897
42
-0.41421356237309503
10
6.5000000000000036
20
-37.956250000014897
10
-6.4999999999999858
20
-37.956250000014897
42
-0.41421356237309503
10
-6.999999999999984
20
-37.456250000014897
10
-6.9999999999999982
20
-24.456250000014933
42
-0.41421356237309115
10
-6.5000000000000018
20
-23.956250000014929
10
6.5000000000000027
20
-23.956250000014929
42
-0.41421356237309243
0
LWPOLYLINE
5
183
100
AcDbEntity
8
0
100
AcDbPolyline
90
8
70
1
43
0.0
10
-74.162499999999937
20
4.9062500000118163
42
0.41421199998435032
10
-73.662499999999952
20
5.4062499999850502
10
-73.66249999999971
20
18.406249999985043
42
0.41421200004298914
10
-74.162499999999937
20
18.906249999985047
10
-87.76249999999996
20
18.906250000058289
42
0.41421200004297887
10
-88.262500000000159
20
18.40624999998504
10
-88.262500000000159
20
5.4062499999850537
42
0.41421199998435559
10
-87.76249999999996
20
4.9062499999850644
0
LWPOLYLINE
5
184
100
AcDbEntity
8
0
100
AcDbPolyline
90
8
70
1
43
0.0
10
-97.474999999999724
20
-0.64375000001493421
10
-97.474999999999937
20
-13.643750000014945
42
-0.41421199998431973
10
-97.974999999999923
20
-14.143749999988165
10
-111.57499999999992
20
-14.143750000014922
42
-0.41421199998433544
10
-112.07500000000013
20
-13.643750000014943
10
-112.07500000000013
20
-0.64375000001493587
42
-0.41421200004290215
10
-111.57499999999992
20
-0.14374999994172305
10
-97.974999999999923
20
-0.14375000001494942
42
-0.4142120000429092
0
LWPOLYLINE
5
185
100
AcDbEntity
8
0
100
AcDbPolyline
90
8
70
1
43
0.0
10
-49.662499999999959
20
4.9062499999850671
42
-0.41421199998614211
10
-50.162500000003192
20
5.4062499999850502
10
-50.162500000003156
20
18.40624999998504
42
-0.414212000044688
10
-49.662499999999959
20
18.906250000058286
10
-36.062499999999972
20
18.906249999985043
42
-0.41421200003885156
10
-35.562500000006779
20
18.406249999985061
10
-35.562499999999979
20
5.4062499999850679
42
-0.41421199998026026
10
-36.062499999999986
20
4.9062500000118323
0
LWPOLYLINE
5
186
100
AcDbEntity
8
0
100
AcDbPolyline
90
8
70
1
43
0.0
10
47.468749999996795
20
-19.693750000014948
10
47.468749999996774
20
-32.69375000001488
42
0.41421199998610697
10
47.968749999999972
20
-33.193750000014887
10
61.568749999999987
20
-33.193749999988121
42
0.41421199998023295
10
62.06874999999993
20
-32.693750000014873
10
62.068749999993116
20
-19.693750000014948
42
0.41421200003883729
10
61.568750000000001
20
-19.193750000014884
10
47.968749999999972
20
-19.193749999941673
42
0.41421200004478814
0
LWPOLYLINE
5
187
100
AcDbEntity
8
0
100
AcDbPolyline
90
8
70
1
43
0.0
10
-45.400000000003189
20
37.456249999985005
10
-45.400000000003182
20
24.456249999985037
42
0.4142119999978367
10
-44.899999999999984
20
23.956249999985033
10
-31.299999999999983
20
23.956249999991819
42
0.41421199999199909
10
-30.799999999999969
20
24.456249999985047
10
-30.800000000006776
20
37.456249999985019
42
0.4142119999977924
10
-31.299999999999972
20
37.956249999985047
10
-44.899999999999977
20
37.956249999988245
42
0.41421200000366637
0
CIRCLE
5
188
100
AcDbEntity
8
0
100
AcDbCircle
10
95.249999999999986
20
-7.1437500000149061
30
0
40
0.80000000000000071
210
0
220
0
230
1
0
LWPOLYLINE
5
189
100
AcDbEntity
8
0
100
AcDbPolyline
90
8
70
1
43
0.0
10
87.949999999996678
20
24.456249999985062
10
87.949999999996678
20
37.45624999998504
42
-0.41421200000367941
10
88.449999999999847
20
37.956249999988273
10
102.04999999999987
20
37.956249999985047
42
-0.41421199999776637
10
102.54999999999301
20
37.456249999985033
10
102.54999999999984
20
24.456249999985069
42
-0.41421199999190805
10
102.04999999999987
20
23.95624999999184
10
88.449999999999847
20
23.956249999985072
42
-0.41421199999776126
0
CIRCLE
5
190
100
AcDbEntity
8
0
100
AcDbCircle
10
-9.524999999999995
20
30.956249999985054
30
0
40
0.80000000000000071
210
0
220
0
230
1
0
CIRCLE
5
191
100
AcDbEntity
8
0
100
AcDbCircle
10
-85.724999999999937
20
38.100249999985039
30
0
40
1.0999999999999943
210
0
220
0
230
1
0
LWPOLYLINE
5
192
100
AcDbEntity
8
0
100
AcDbPolyline
90
8
70
1
43
0.0
10
107.31249999999308
20
18.406249999985068
10
107.31249999999994
20
5.4062499999850866
42
-0.41421199998021474
10
106.81249999999993
20
4.9062500000118572
10
93.21249999999992
20
4.9062499999850973
42
-0.41421199998610697
10
92.71249999999668
20
5.406249999985083
10
92.712499999996652
20
18.406249999985075
42
-0.41421200004468145
10
93.212499999999864
20
18.906250000058321
10
106.81249999999989
20
18.906249999985064
42
-0.41421200003884118
0
LWPOLYLINE
5
193
100
AcDbEntity
8
0
100
AcDbPolyline
90
8
70
1
43
0.0
10
32.993749999999956
20
-19.193750000014902
10
19.393749999999986
20
-19.193749999941684
42
0.4142120000447595
10
18.893749999996817
20
-19.693750000014965
10
18.893749999996793
20
-32.693750000014894
42
0.41421199998611219
10
19.393749999999986
20
-33.193750000014909
10
32.993749999999956
20
-33.193749999988135
42
0.41421199998024333
10
33.493749999999977
20
-32.693750000014894
10
33.493749999993135
20
-19.693750000014965
42
0.41421200003886199
0
CIRCLE
5
194
100
AcDbEntity
8
0
100
AcDbCircle
10
-85.724999999999937
20
30.95624999998503
30
0
40
0.80000000000000071
210
0
220
0
230
1
0
LWPOLYLINE
5
195
100
AcDbEntity
8
0
100
AcDbPolyline
90
8
70
1
43
0.0
10
36.062499999999993
20
4.9062499999850795
10
49.662500000000016
20
4.9062500000118483
42
0.41421199998031683
10
50.162499999999959
20
5.4062499999850875
10
50.162499999993251
20
18.406249999985075
42
0.41421200003885938
10
49.662499999999952
20
18.906249999985082
10
36.062499999999964
20
18.906250000058304
42
0.41421200004467107
10
35.562499999996732
20
18.406249999985057
10
35.56249999999676
20
5.4062499999850688
42
0.41421199998610375
0
CIRCLE
5
196
100
AcDbEntity
8
0
100
AcDbCircle
10
-57.149999999999963
20
-7.1437500000149416
30
0
40
0.80000000000000071
210
0
220
0
230
1
0
CIRCLE
5
197
100
AcDbEntity
8
0
100
AcDbCircle
10
-71.437499999999943
20
11.906249999985057
30
0
40
0.80000000000000071
210
0
220
0
230
1
0
CIRCLE
5
198
100
AcDbEntity
8
0
100
AcDbCircle
10
-95.249999999999943
20
-14.287750000014913
30
0
40
1.0999999999999943
210
0
220
0
230
1
0
LWPOLYLINE
5
199
100
AcDbEntity
8
0
100
AcDbPolyline
90
8
70
1
43
0.0
10
-54.612500000006733
20
18.406249999985043
42
0.41421200003880998
10
-55.112499999999969
20
18.906249999985047
10
-68.712499999999935
20
18.906250000058289
42
0.41421200004294634
10
-69.212500000000134
20
18.406249999985043
10
-69.212500000000148
20
5.4062499999850537
42
0.41421199998440761
10
-68.712499999999935
20
4.906249999985083
10
-55.112499999999983
20
4.9062500000118154
42
0.41421199998028169
10
-54.612499999999962
20
5.406249999985052
0
LWPOLYLINE
5
200
100
AcDbEntity
8
0
100
AcDbPolyline
90
8
70
1
43
0.0
10
71.781249999999929
20
-33.193750000014916
10
85.381249999999952
20
-33.193749999988121
42
0.41421199998032138
10
85.88124999999998
20
-32.693750000014873
10
85.881249999993173
20
-19.693750000014951
42
0.41421200003879433
10
85.381249999999966
20
-19.193750000014887
10
71.781249999999957
20
-19.193749999941673
42
0.41421200004467496
10
71.281249999996817
20
-19.693750000014948
10
71.281249999996732
20
-32.693750000014873
42
0.41421199998610697
0
ENDSEC
0
SECTION
2
OBJECTS
0
DICTIONARY
5
C
100
AcDbDictionary
3
ACAD_GROUP
350
D
3
ACAD_MLINESTYLE
350
17
0
DICTIONARY
5
D
100
AcDbDictionary
0
DICTIONARY
5
1A
330
C
100
AcDbDictionary
0
DICTIONARY
5
17
100
AcDbDictionary
0
ENDSEC
0
EOF
